<svg width="182" height="34" viewBox="0 0 182 34" xmlns="http://www.w3.org/2000/svg"><defs><path id="a" d="M0 .616h181.167V33.6H0V14.306h21.43V.616H0v13.69z"/></defs><g fill="none" fill-rule="evenodd"><path d="M65.566 15.328c-.164.172-.38.28-.524.477 1.335.027 2.533-.174 2.513-1.375-.007-.492-.382-1.098-.9-1.285-.188.894-.556 1.62-1.09 2.183zm-3.572-2.363c-.487.212-.963.527-1.115.925-.347.87.77 1.45 1.614 1.11.163-.07.36-.21.49-.334.603-.51.987-1.38 1.31-2.062-.85-.063-1.615.066-2.3.36zm2.42-4.487c-.408.433-.996.694-1.643.9.928-.048 1.956-.005 2.827-.028-.485-.204-.78-.584-1.182-.872zM59.01 3.845c-.064.102-.348.654-.338 1.226.034 1.943 2.65 3.046 4.1 1.468.567-.62.764-1.684.34-2.51-.378-.748-1.267-1.348-2.427-1.198-.777.1-1.378.552-1.675 1.015zm8.11 16.712c.31.202.855.436 1.055.843-4.048.066-8.228.004-12.33.027v-8.525c0-.404-.076-.912 0-1.194.076-.285.748-.703 1.023-.866.2-.115.423-.232.622-.328.433-.21.856-.282.84-.925-.115-.11-.267-.087-.407-.122-.58-.172-1.147-.506-1.613-.896-.167-.142-.433-.378-.466-.508-.1-.36 0-.97 0-1.41v-2.78c0-.454-.09-1.037 0-1.372.068-.254.57-.635.87-.84.98-.673 2.448-1.15 3.918-1.19 2.216-.072 3.524 1.095 4.5 2.268 1.426-1.15 4.58-1.158 6.33-.358 1.76.794 2.898 2.39 3.514 4.184-.02.11-.127-.045-.187-.087-1.033-.75-2.396-1.384-4.032-1.586-.186.132-.176.344-.378.505-.583.457-1.702.232-1.93-.358-.157.054-.258.164-.4.24.2.554-.058 1.118-.402 1.346.11.084.25.135.34.238.778-.868 2.77-.244 2.605.956 1.6-.074 3.164-.19 4.196-.807-.044.232-.23.427-.374.598-.435.522-1.023.99-1.646 1.377-.822.513-1.82.964-2.92 1.166 1.825.704 3.322 1.732 4.1 3.435.926 2.006.383 4.432-.866 5.653-1.122 1.086-3.597 1.872-5.935 1.314h-.03zM113.09 4.746h-.75c-.03-.317-.018-.52-.03-.78-.014-.235.012-.528-.058-.747-.102-.284-.78-.685-1.093-.837-.448-.223-.97-.354-1.52-.42-1.304-.154-2.513.116-3.264.51-1.655.864-2.57 2.748-2.33 5.2.225 2.25 1.314 3.86 3.08 4.578.842.343 2.153.555 3.323.383.773-.11 1.58-.286 2.292-.595.25-.107.458-.31.627-.15.256.25-.27.684-.312 1.014-1.67.984-4.596 1.336-6.99.69-2.057-.554-3.713-1.883-4.44-3.735-.436-1.103-.54-2.316-.404-3.5.38-3.336 3.265-5.284 6.924-5.47 1.59-.086 3.037.1 4.258.476.28.088.982.27 1.083.48.07.158-.046.437-.093.69-.14.713-.202 1.494-.307 2.213M135.606 1.9c-.887.06-1.555.262-2.114.602-1.592.966-2.148 3.31-1.86 5.798.17 1.498.746 2.96 1.637 3.738.505.43 1.225.78 2.053.836.968.065 1.874-.132 2.52-.475 1.45-.778 2.058-2.54 2.078-4.55.025-2.088-.514-3.93-1.616-5.02-.68-.55-1.42-1.008-2.698-.93m-.31-.985c4.597-.263 7.285 1.86 7.488 6.042.097 2.195-.607 3.846-1.71 4.99-1.092 1.13-2.762 1.854-4.846 1.943-4.664.206-7.28-1.846-7.488-6.04-.185-3.752 1.818-6.054 4.97-6.754.5-.115 1.07-.152 1.587-.18M171.42 8.81h3.814c-.615-1.575-1.296-3.096-1.958-4.636-.6 1.56-1.284 3.05-1.857 4.636m2.013-7.775h1.31c1.49 3.344 3.13 7.013 4.684 10.494.224.495.42 1.095.872 1.284.255.11.61.084.867.15v.69c-1.926-.075-3.977-.075-5.9 0v-.69c.412-.09.886.048 1.18-.117.503-.285.005-1.138-.155-1.527-.253-.62-.414-1.076-.588-1.496h-4.757c-.153.3-.297.764-.493 1.256-.182.466-.478.928-.402 1.343.106.59.792.48 1.49.54v.692c-1.39-.076-2.902-.08-4.282 0v-.69c.992.065 1.356-.57 1.67-1.284 1.503-3.446 3.085-7.1 4.442-10.553-.006-.054.024-.078.06-.092M127.282 1.183c-.028.897-.23 1.876-.186 2.932-.202.065-.527.012-.778.028-.102-.57.01-1.337-.28-1.73-.883-.28-2.24-.1-3.355-.153-.044 2.78-.047 6.17-.03 9.21 0 .44.01.985.156 1.163.282.36 1.078.146 1.456.27v.752c-1.9-.085-3.996-.085-5.896 0v-.753c.36-.096 1.104.042 1.397-.205.34-.287.217-1.79.217-2.45V2.292c-.76-.024-1.7-.07-2.577-.033-.268.013-.6.03-.754.123-.465.29-.166 1.16-.336 1.76h-.776c.016-1.055-.138-2.098-.214-2.96.047-.024.13-.024.12-.024.953-.078 1.974.012 2.984.023 2.702.04 5.517-.024 8.193-.024.226 0 .448-.043.66.023M152.535 7.076c.828 1.346 1.967 2.854 2.947 4.334.443.665.813 1.395 1.77 1.492v.752c-1.013-.08-1.978-.066-3.07-.03-.14.004-.346.047-.408.03-.18-.055-.415-.55-.59-.807-1.124-1.67-2.238-3.3-3.348-4.963-.164-.237-.496-.552-.255-.87.074-.08.19-.028.28-.028 1.704 0 2.926-1.115 2.764-2.9-.14-1.613-1.814-2.39-3.756-1.884-.058 2.535-.033 5.312-.033 7.954 0 .857-.042 1.713.155 2.477.315.26.95.2 1.462.27v.75c-1.906-.083-4-.08-5.904 0v-.75c.342-.08 1.26.022 1.46-.27.29-.4.155-1.884.155-2.57v-5.44c0-.8.134-2.205-.187-2.544-.248-.266-.963-.182-1.395-.238-.067-.173-.013-.466-.032-.683 2.392.048 4.757.026 7.052-.034 2.23-.06 3.876.826 3.73 2.928-.12 1.684-1.452 2.475-2.795 3.022M42.522 26.152c-.128.133-.258.322-.372.357-.235.07-.664 0-.904 0-.316 0-.656.07-.93 0-.198-.054-.56-.475-.778-.688-.332-.317-.58-.608-.81-.78-.252.234-.5.453-.842.78-.224.218-.506.627-.774.687-.54.122-1.15-.094-1.83 0-.47-.435-.87-.938-1.33-1.378 0-.044-.092-.096-.065 0v2.84h9.69v-2.897c-.323.285-.71.714-1.055 1.077m6.582-15.82c-.658-.18-1.347-.652-1.988-.835-2.204-.625-3.155 1.403-5.373.866-.79-.19-1.492-.717-2.296-.895-2.335-.517-3.15 1.537-5.496.836-.72-.216-1.226-.607-1.99-.807-1.665-.44-2.512.572-3.7.866-1.622.403-2.66-.678-4.22-.866-.062 2.58-.032 5.52-.032 8.19 0 .704-.012 1.344.125 1.95.346 1.554 1.284 3.12 2.643 3.644.297.118.84.224 1.33.12 1.084-.224 1.924-1.02 3.045-1.02 1.144 0 2.003.785 3.08 1.02 1.557.346 2.52-.596 3.63-.896 2.015-.55 3.014 1.063 4.847.955 1.05-.06 1.908-.808 2.914-1.016 1.91-.396 2.76 1.06 4.32 1.015.33-.01.655-.11.875-.21 1.25-.572 2.198-2.18 2.508-3.677.133-.597.097-1.24.097-1.946 0-2.653.03-5.595-.03-8.13-1.396.14-2.6 1.307-4.286.836m.217-5.5c-.16.172-.53.66-.744.717-.247.066-.655 0-.903 0-.34 0-.653.074-.93 0-.248-.07-.558-.51-.783-.718-.286-.276-.542-.51-.768-.716-.216.143-.504.416-.842.744-.208.21-.518.63-.772.69-.557.127-1.177-.095-1.866 0-.405-.383-.84-.916-1.24-1.284-.02-.02-.1-.194-.157-.09v2.84h9.69c.07-.907.012-1.945.032-2.9-.27.197-.455.445-.716.716m-12.893 0c-.163.173-.527.662-.737.718-.245.066-.658 0-.905 0-.338 0-.656.074-.935 0-.246-.07-.554-.51-.773-.718-.29-.276-.552-.51-.775-.716-.214.143-.504.416-.842.744-.217.21-.515.63-.78.69-.55.127-1.17-.095-1.856 0-.41-.378-.838-.922-1.247-1.284-.02-.02-.088-.194-.15-.09v2.84c3.232-.02 6.54.04 9.72-.03v-2.87c-.273.197-.454.445-.72.716M22.89 1.158H54.6v11.838c0 2.095.078 4.043 0 5.92-.07 1.796-.71 3.146-1.55 4.395-1.555 2.31-3.91 4.204-6.28 5.77-2.028 1.35-4.435 2.644-6.924 3.676-.367.155-.72.345-1.083.423-.246.048-.836-.272-1.182-.424-3.937-1.662-7.38-3.687-10.308-6.278-1.58-1.397-3.042-2.986-3.882-5.113-.294-.73-.522-1.51-.53-2.45-.06-5.75.046-11.794 0-17.672-.005-.04-.01-.085.03-.085M77.276 1.16c2.022.033 4.03.023 6.053 0v.654c-.512.09-1.272-.055-1.453.36.112.787.44 1.51.742 2.21.875 2.06 1.75 4.095 2.635 6.195.903-2.232 2.077-4.74 2.985-7.155.113-.296.36-.786.31-1.106-.095-.58-1.035-.423-1.556-.48-.066-.17-.013-.464-.026-.68 1.465.027 2.91.03 4.372 0v.68c-.263.02-.6 0-.833.09-.414.156-.684.85-.867 1.29-1.473 3.444-3.093 7.008-4.442 10.435h-1.463c-1.363-3.11-2.868-6.67-4.285-9.898-.208-.47-.383-.996-.652-1.374-.304-.423-.778-.58-1.522-.542-.05-.158-.05-.522 0-.68M93.36 1.16c1.936.038 3.933.03 5.874 0v.713c-.342.09-1.17-.016-1.43.238-.324.312-.19 1.915-.19 2.545v6.785c0 .49.007 1.018.163 1.193.25.302 1.04.18 1.457.27v.752c-1.906-.082-3.995-.085-5.9 0v-.753c.39-.096 1.165.037 1.43-.232.29-.306.15-1.962.15-2.575V3.278c0-.493 0-.99-.182-1.167-.263-.242-1.06-.147-1.4-.237v-.63c-.004-.04-.004-.084.03-.084M159.242 1.16c1.94.033 3.93.033 5.865 0v.713c-.382.108-1.153-.024-1.43.238-.15.15-.173.735-.178 1.2-.05 2.28 0 4.47 0 6.817 0 .375-.018.875 0 1.374.004.442.022.997.178 1.17.254.258 1.085.15 1.43.232v.753c-1.9-.085-4-.085-5.9 0v-.753c.35-.083 1.173.023 1.43-.232.316-.32.188-1.908.188-2.543 0-2.302.01-4.468 0-6.788 0-.46-.024-1.033-.157-1.2-.25-.3-1.068-.156-1.46-.267v-.63c0-.04-.007-.084.032-.084" fill="#6D6E71"/><path d="M60.908 4.055c.63-.063 1.223.36 1.152 1.106-.06.586-.718 1.085-1.43.838-.525-.178-.902-1.03-.467-1.583.154-.198.425-.327.745-.36M21.337 4.204c.026.007.03.03.064.03.55 1.6.413 4.036-.687 4.964-.376.32-.963.574-1.678.478-.372-.048-.794-.333-1.083-.596-.26-.246-.608-.585-.648-1.016-.04-.343.083-.787.18-1.14.23-.84.624-1.513 1.34-1.853.787-.372 1.863-.308 2.513-.866" fill="#6D6E71"/><path d="M21.617 9.168v12.258H2.48c.33-.82.696-1.604 1.216-2.24-.216-.3-.606-.433-.808-.75.506-.613 1.047-1.237 1.68-1.794.732-.647 1.49-1.302 2.696-1.495-.11-.2-.504-.388-.618-.687.532-.505 1.35-.65 2.172-.746.858-.1 1.8-.144 2.7-.21 1.745-.126 3.685-.258 4.632-1.2.68-.67.85-1.802.87-3.223-.01-.052.028-.063.028-.034.65.593 1.237 1.416 2.396 1.41 1.046-.01 1.573-.734 2.173-1.288M39.875 17.332c-.42.018-.93-.04-1.3.027.223.362.466.71.654 1.107-.228.354-.432.722-.654 1.077h1.336c.186.378.43.7.62 1.077h.064c.207-.37.414-.737.65-1.076.426-.024.932.04 1.3-.033-.237-.332-.445-.702-.647-1.074.206-.38.443-.728.647-1.104h-1.33c-.224-.36-.417-.733-.654-1.077-.247.338-.413.753-.688 1.077m-6.082 0h-1.31c.19.412.453.74.656 1.135-.24.336-.444.707-.656 1.077h1.31c.225.363.43.76.685 1.104.214-.375.415-.775.676-1.104.42-.024.912.04 1.27-.033-.224-.345-.428-.713-.645-1.074.225-.363.46-.714.647-1.104h-1.332c-.2-.38-.406-.744-.648-1.077-.218.362-.428.73-.654 1.077m8.516-4.035c-.43.018-.935-.042-1.317.028.245.346.477.702.658 1.106-.223.355-.43.725-.657 1.077h1.342c.08.194.23.356.338.538.116.186.16.41.343.537.208-.368.416-.737.654-1.075.424-.02.933.035 1.306-.03-.227-.36-.47-.713-.66-1.105.24-.35.443-.717.66-1.075H43.64c-.208-.372-.41-.74-.658-1.083-.242.342-.42.756-.673 1.083m-6.092 0h-1.304c.206.38.427.735.65 1.105-.223.362-.444.723-.65 1.105h1.338c.19.374.39.752.65 1.075.233-.347.407-.758.68-1.075h1.27c-.173-.4-.446-.702-.613-1.105.166-.405.44-.707.61-1.105H37.55c-.235-.353-.408-.766-.68-1.083-.213.366-.428.73-.65 1.083m-5.286-1.887h15.622v10.017H30.902V11.5c0-.04 0-.086.03-.09M108.364 17.96c.027.14-.018.3-.028.447-.013.136.057.322-.06.39-.262.042-.168-.24-.188-.418-.377-.477-1.576-.408-1.46.387.076.525 1.083.453 1.548.718.51.283.597 1.05.218 1.523-.47.59-1.658.623-2.483.27.063-.19.052-.473.096-.72.007-.06-.047-.22.09-.18.222-.006.118.285.16.45.332.582 1.9.553 1.67-.42.003.012-.038-.084-.086-.148-.383-.45-1.483-.29-1.805-.897-.062-.11-.09-.294-.093-.388-.036-.988 1.162-1.436 2.422-1.016M119.173 19.544c.382-.51.688-1.095 1.028-1.647h.433c-.13.357-.39.65-.622.99-.166.243-.55.65-.622.983-.07.358.03.826.038 1.26.078.094.313.054.428.116v.12c-.076.112-.262.06-.4.06-.38.01-.913.02-1.273-.027v-.09c.006-.18.31-.056.402-.152.053-.366.126-.773.067-1.108-.068-.336-.368-.653-.564-.954-.21-.336-.397-.665-.653-.87-.083-.024-.222-.007-.28-.06-.08-.22.17-.194.35-.235.172-.047.33-.095.52-.124.578.396.8 1.13 1.15 1.738M125.076 18.378c-.607.565-.46 2.158.125 2.63.323.258.973.276 1.368.033.8-.514.576-2.48-.184-2.84-.2-.093-.428-.11-.72-.062-.235.037-.437.096-.588.24m.59-.538c.74-.073 1.387.13 1.706.416.565.516.672 1.634.31 2.33-.165.343-.56.653-.9.78-.545.208-1.417.238-2.017-.058-.363-.18-.67-.55-.777-.867-.366-1.073.143-2.08.84-2.42.248-.123.404-.14.837-.18M165.61 18.05c0 .132-.043.318-.063.475-.022.15.064.408-.158.39-.193-.003-.036-.345-.12-.447-.508-.48-1.562-.464-2.023-.09-.38.306-.502.868-.466 1.342.078.998.958 1.86 2.146 1.35-.01-.262.026-.562-.03-.782-.06-.06-.153-.065-.284-.086-.093-.017-.304.063-.282-.09-.038-.19.21-.112.32-.123.366-.02.91-.004 1.237.034.056.21-.187.136-.22.264v.93c-1.565.612-3.52.26-3.694-1.348-.193-1.797 1.845-2.487 3.638-1.82M172.9 18.378c-.525.48-.526 1.89-.025 2.48.33.38.96.496 1.462.212.37-.213.56-.79.56-1.35 0-.968-.432-1.727-1.4-1.582-.267.042-.437.1-.596.24m.564-.538c1.367-.14 2.24.51 2.24 1.796 0 .726-.34 1.357-.9 1.64-.76.38-2.05.33-2.645-.27-.465-.47-.625-1.525-.283-2.24.25-.495.792-.848 1.587-.926M99.79 17.898c.028.112-.02.228-.024.357-.015.154.06.348-.064.42h-.065c-.17-.017-.078-.28-.126-.42-.336-.11-.87-.036-1.3-.055v1.253c.312-.02.698.035.964-.03.134-.066-.05-.44.248-.358.137.035.032.21.026.328-.006.245.045.578 0 .777-.337.09-.136-.342-.31-.417-.245-.066-.604-.013-.897-.033-.07.405-.014.928-.03 1.377.385.066.95.035 1.3-.027.153-.128 0-.542.316-.512.122.06.042.27.028.42-.01.16-.002.32-.065.42-.815.04-1.82.054-2.637 0 0-.18.222-.145.278-.27-.02-.968.044-2.015-.027-2.928-.028-.18-.407-.013-.4-.21.004-.156.29-.092.455-.092.753-.002 1.623-.018 2.33 0M131.817 17.898c.022.138-.02.27-.033.416-.01.118.063.304-.06.362h-.068c-.17-.013-.067-.29-.12-.42-.303-.106-.786-.044-1.18-.056-.075.348-.01.823-.03 1.222.196.108.622.063.865.03.138-.06-.01-.392.224-.356.16.012.09.326.09.508 0 .205.027.434-.03.566-.305.075-.153-.292-.283-.385-.205-.1-.613-.066-.865-.032.015.45-.036.972.032 1.375.064.136.393.017.468.15v.058c-.014.16-.256.087-.372.09-.294.012-.614.006-.937 0-.132 0-.34.052-.402-.062v-.055c.01-.17.304-.072.402-.152.053-.92.053-2.045 0-2.958-.034-.164-.392-.018-.402-.21.01-.156.276-.09.43-.092.73-.01 1.576-.016 2.273 0M137.97 17.867c.313.81.642 1.614.988 2.393.178-.677.46-1.414.53-2.093-.058-.132-.4.007-.404-.177.02-.156.368-.093.558-.093.22 0 .5-.044.59.06.022.168-.223.137-.31.243-.112.136-.176.546-.25.805-.212.75-.52 1.675-.68 2.42h-.402c-.296-.852-.662-1.64-.995-2.45-.38.805-.76 1.605-1.09 2.45h-.374c-.182-.685-.39-1.627-.58-2.45-.074-.252-.117-.647-.227-.775-.083-.106-.285-.078-.306-.21 0-.156.223-.087.34-.093.263-.008.567-.007.87 0 .116.006.296-.05.338.06.037.223-.314.078-.37.21.09.762.298 1.405.436 2.122.398-.77.72-1.618 1.086-2.423h.253zM144.143 17.898c.03.13-.018.255-.027.39-.01.138.06.32-.06.388h-.064c-.168-.018-.08-.28-.126-.42-.335-.11-.848-.037-1.274-.056-.074.355-.01.847-.03 1.253.31-.02.702.035.964-.03.135-.07-.035-.435.25-.358.137.064.03.252.03.388-.007.242.052.533 0 .717-.333.084-.145-.342-.31-.417-.247-.066-.61-.013-.904-.033-.074.413-.01.95-.03 1.408.454-.005.937.03 1.304-.058.162-.11 0-.538.31-.512.142.048.044.234.034.358-.013.16 0 .33-.034.448-.77.107-1.852.074-2.667.035-.02-.192.233-.134.278-.272-.028-.968.038-2.015-.03-2.928-.027-.18-.41-.013-.404-.21.008-.156.29-.092.464-.092.75-.002 1.615-.018 2.325 0M80.32 17.96c.03.215-.288.103-.404.18-.097.32-.062.835-.062 1.314 0 .666-.05 1.305.37 1.524.357.185.9.12 1.15 0 .724-.342.363-1.885.405-2.778-.026-.18-.405-.013-.405-.21-.028-.143.16-.084.247-.093.205-.013.446-.008.688 0 .09.006.266-.044.275.062.03.222-.32.09-.408.207-.16 1.144.28 2.566-.526 3.11-.67.456-2.392.265-2.544-.568-.132-.722.15-1.823-.062-2.543-.066-.118-.356-.004-.402-.147v-.06c-.006-.036 0-.054.034-.063.403.01.858-.01 1.3 0 .102.006.276-.052.345.062M83.704 17.898h1.087c.223.186.37.44.56.657.544.62 1.126 1.267 1.712 1.885-.017-.747.025-1.542-.03-2.24-.06-.156-.424-.02-.437-.21-.03-.145.175-.088.275-.092.21-.01.448-.01.683 0 .092.004.272-.046.284.06.02.228-.352.084-.436.21-.076 1.046-.013 2.22-.03 3.32-.14-.043-.344-.03-.5-.06-.795-.883-1.557-1.816-2.356-2.693-.042.75-.065 1.65 0 2.393.044.16.446-.02.433.208.027.146-.175.087-.28.09-.207.012-.445.01-.68 0-.096 0-.27.05-.283-.062-.055-.25.325-.082.405-.206.122-.85.06-2.058.03-2.99-.098-.084-.33-.046-.436-.12v-.15zM90.724 18.02c.003.182-.34.028-.402.147-.12.864-.065 2.05-.032 2.962.063.132.416-.007.434.18.035.187-.243.113-.373.116-.3.015-.604.01-.928 0-.12-.003-.38.07-.38-.09-.03-.22.315-.074.41-.178.12-.866.06-2.046.034-2.958-.078-.114-.317-.062-.443-.122v-.18c.342.022.945-.03 1.373 0 .093.008.35-.064.308.122M91.872 17.898c.36.007.908-.01 1.336 0 .125.002.3-.053.37.06.03.228-.34.067-.4.21.26.846.63 1.585.964 2.364.31-.773.69-1.485.928-2.332-.045-.164-.417-.02-.43-.21-.028-.145.172-.088.273-.092.208-.01.448-.01.686 0 .095.004.268-.046.282.06.04.178-.168.117-.283.152-.553 1.038-1.008 2.172-1.458 3.317h-.437c-.526-1.087-.912-2.314-1.523-3.317-.103-.016-.23-.016-.31-.06v-.152zM103.365 19.573c.26.35.483.725.743 1.106.08.112.17.272.25.36.11.117.35.117.342.324-.076.114-.3.063-.463.063h-.5c-.255-.27-.443-.582-.652-.895-.203-.31-.438-.614-.594-.96 1.223.068 1.173-1.766-.15-1.404-.04.914-.085 2.092.034 2.96.034.15.404-.013.404.18.033.19-.245.115-.373.12-.303.012-.608.01-.937 0-.112-.005-.373.067-.367-.092-.04-.22.318-.07.402-.178.124-.85.06-2.058.03-2.99-.09-.104-.377-.015-.43-.148v-.06c-.013-.036 0-.055.023-.062.877.14 2.518-.303 2.92.302.347.505-.1 1.264-.68 1.373M111.627 18.02c.007.18-.305.043-.404.118-.117.85-.064 2.058-.034 2.99.054.146.424-.005.437.18.03.19-.244.115-.373.118-.298.015-.61.01-.927 0-.12-.003-.38.07-.38-.09-.027-.213.305-.086.406-.178.054-.92.054-2.044 0-2.958-.037-.135-.3-.05-.405-.122v-.18c.338.022.943-.03 1.37 0 .093.008.354-.064.31.122M112.742 17.898h3.384c-.127.22.168.854-.214.837-.133-.048-.012-.34-.093-.447-.196-.152-.636-.07-.966-.088-.05.907-.046 2.02 0 2.928.073.133.42-.005.436.18.035.19-.243.115-.368.12-.305.012-.603.01-.936 0-.115-.005-.378.067-.37-.092-.033-.22.312-.075.4-.178.137-.865.034-1.97.06-2.932-.26-.058-.696-.03-.96 0-.142.107.064.534-.217.51-.173 0-.082-.23-.092-.358-.016-.15-.035-.294-.066-.39v-.09zM147.13 17.99c.038.228-.34.055-.402.177-.13.88-.042 1.96-.065 2.93.396.066.97.042 1.335-.028.137-.157-.012-.59.31-.572.08.034.04.25.028.418-.01.155-.046.32-.03.45-.783.125-1.79.033-2.668.06-.026-.165.23-.202.277-.357.094-.297 0-1.08 0-1.466 0-.542.025-1.04-.03-1.437-.08-.09-.33-.024-.43-.09v-.18c.328.014.913-.015 1.328 0 .098.006.34-.063.348.092M151.258 17.99c.047.22-.298.067-.406.15-.137.873-.02 1.986-.058 2.957.403.066.96.03 1.342-.028.01-.098.047-.207.083-.33.032-.086-.018-.284.155-.242.194.034.075.295.066.448-.018.167.02.315-.033.42-.767.126-1.768.033-2.636.06-.04-.215.2-.165.245-.298.055-.913.046-2.017 0-2.928-.076-.114-.314-.06-.435-.122v-.18c.334.013.918-.016 1.337 0 .098.005.34-.064.34.09M155.354 17.99c.047.228-.33.055-.398.177-.054.92-.054 2.043 0 2.96.05.14.398-.004.398.182.032.188-.236.113-.37.117-.296.013-.6.01-.93 0-.116-.004-.376.067-.376-.09-.02-.222.33-.076.44-.18.05-.93.05-2.06 0-2.99-.085-.09-.328-.024-.44-.09v-.18c.33.014.92-.015 1.336 0 .1.006.34-.063.34.092M159.92 20.44c-.015-.74.043-1.552-.03-2.24-.033-.173-.42-.018-.43-.21-.028-.146.175-.087.28-.092.208-.01.444-.01.68 0 .094.005.273-.046.282.06.03.233-.34.08-.405.21-.12.993-.058 2.275-.032 3.32-.564.048-.794-.38-1.092-.72-.585-.69-1.24-1.43-1.797-2.063.02.81-.04 1.69.03 2.453.09.114.447-.03.437.178.024.146-.178.087-.276.09-.214.012-.45.01-.687 0-.087 0-.273.05-.277-.06-.066-.243.258-.102.374-.178.183-.825.074-2.067.06-2.988-.07-.122-.312-.078-.434-.15v-.09c-.01-.036.004-.055.03-.062.334.078.688-.1 1.023 0 .187.055.407.486.56.657.55.64 1.208 1.305 1.705 1.886M167.13 17.898h3.386c-.07.11-.022.302-.033.48-.008.147.04.382-.157.357-.194-.017-.026-.39-.148-.48-.23-.102-.617-.043-.935-.055-.055.896-.055 2.002 0 2.897.02.188.418.018.43.212.036.188-.24.113-.37.117-.3.013-.605.01-.93 0-.12-.004-.375.068-.372-.09-.03-.222.31-.076.404-.18.075-.925.01-1.985.03-2.957-.317.002-.663-.025-.93.026-.146.1.045.524-.218.51-.17 0-.08-.236-.092-.358-.018-.15-.047-.29-.065-.39v-.09zM180.267 20.41c.056-.674.043-1.54 0-2.21-.054-.156-.417-.02-.434-.21-.026-.145.18-.087.278-.093.206-.01.443-.008.683 0 .098.006.27-.044.28.062.025.225-.35.08-.43.207-.076 1.047-.015 2.22-.032 3.32-.144-.042-.343-.03-.5-.06-.795-.89-1.555-1.815-2.36-2.692.007.796-.088 1.62 0 2.394.05.16.46-.023.438.205.022.147-.175.088-.28.092-.21.01-.444.01-.684 0-.094-.002-.267.05-.282-.063-.04-.23.277-.11.4-.176.128-.873.067-2.07.036-2.988-.055-.136-.316-.078-.436-.15v-.09c0-.036.004-.054.03-.063h1.06c.2.197.38.417.56.628.536.62 1.08 1.282 1.675 1.884" fill="#6D6E71"/><path d="M9.253 1.963c-.245.2-.52.637-.71.895-.064.09-.273.22-.157.27 1.032-.215 2.247-.248 3.446-.297-.6-.25-1.817-1.473-2.58-.867M0 7.763c.725.72 1.993 1.087 3.545.986 1.314-.086 2.238-.81 3.57-.81-.633-.67-1.75-1.754-2.085-2.84-.19-.605-.033-1.197.343-1.582-.064-.31-.235-.654-.156-1.016.15-.645 1.622-.996 2.325-1.14 2-.395 4.11-.453 6.432-.507 1.177-.026 2.346.09 3.388.09C18.968.944 20.424.68 21.43.2c-.05.313-.23.6-.402.865-.66 1.012-1.8 1.707-3.57 1.674v.418c1.72.013 3.067-.494 3.878-1.316.065.882-.036 1.632-.557 2.003-.69.493-1.932.432-2.67.868-.935.545-1.253 1.787-1.496 2.99-.113.583-.255 1.27-.3 1.914-.076.83-.134 1.64-.628 2.122-.546.532-1.515.725-2.456.863-2.384.362-5.15.41-7.45.9-.22.046-.45.11-.658.18-.183.065-.338.183-.525.207-.07-.094-.088-.235-.187-.3.187-.223.47-.36.683-.564.688-.654 1.198-1.536 1.12-2.812.244-.12.486-.25.835-.267-.477 1.327 1.088 1.522 2.427 1.494.98-.023 1.592-.56 1.613-1.523.008-.5-.173-1.082-.338-1.586-.183-.527-.39-1.022-.596-1.315-.108-.154-.287-.398-.59-.536-.682-.323-1.57-.067-1.74.445-.13.39.044.712.19 1.046.918.24 2.31.406 2.605 1.168.21.537-.082 1.182-.555 1.257-.296.042-.54-.117-.812-.238-.65-.293-1.443-.734-2.327-.75-.985-.018-1.96.44-3.042.51C1.764 10.04.708 8.997 0 7.763" fill="#6D6E71"/></g></svg>