<svg width="265" height="120" viewBox="0 0 265 120" xmlns="http://www.w3.org/2000/svg" xmlns:xlink="http://www.w3.org/1999/xlink"><defs><path id="a" d="M.61.45h118.96V119.95H.61V.45z"/><path id="c" d="M123.628.45H0v71.205h123.628V.45z"/></defs><g fill="none" fill-rule="evenodd"><g transform="translate(144.547 -.4)"><mask id="b" fill="#fff"><use xlink:href="#a"/></mask><path d="M95.326 22.563H33.832V.45h64.96s20.78.53 20.78 21.493v76.513c0 20.963-20.78 21.492-20.78 21.492H.613V33.82h22v62.9c.012.61.505 1.116 1.122 1.116h72.703c.617 0 1.11-.507 1.11-1.117 0 0 .012-65.84 0-68.456 0 0 .598-5.7-2.22-5.7H33.83" fill="#58595B" mask="url(#b)"/></g><path d="M96.13 71.256V96.57H1.27c-.64 0-1.158.517-1.158 1.16v20.66c0 .642.517 1.158 1.157 1.158h96.015c12.655 0 19.242-5.748 22.663-11.495 3.423-5.747 3.68-11.484 3.68-11.484l-.078-.813c.045-.112.078-.225.078-.35v-22.99c0-.643-.516-1.16-1.156-1.16H96.13zM96.13 71.256h-.068" fill="#58595B"/><g transform="translate(0 -.4)"><mask id="d" fill="#fff"><use xlink:href="#c"/></mask><path d="M96.062 71.655V49.893c0-.642-.516-1.162-1.156-1.162h-71.77v-25.3h99.336c.64 0 1.156-.52 1.156-1.16V1.61c0-.64-.516-1.16-1.156-1.16H1.268C.628.45.112.97.112 1.61L0 49.893c0 20.872 22.64 21.762 22.64 21.762l.495-.01c.034 0 .057.01.09.01H96.06z" fill="#58595B" mask="url(#d)"/></g></g></svg>