<svg xmlns="http://www.w3.org/2000/svg" width="200" height="140" viewBox="0 0 200 140"><style>.a{fill:#38C7C9;}.b{fill:#ECEDED;}.c{fill:#D91C5C;}.d{fill:#414042;}.e{fill:#414042;stroke-width:2;stroke:#414042;}.f{fill:#DE653A;}.g{fill:#90278E;}.h{fill:#1FA7E0;}</style><rect x="-269.2" y="238.8" width="200" height="140" class="a"/><rect x="-194.1" y="283.9" width="25" height="12.3" class="b"/><rect x="-194.1" y="321.3" width="25" height="12.5" class="b"/><rect x="-206.6" y="296.2" width="12.5" height="25.1" class="b"/><rect x="-156.7" y="283.9" width="25" height="12.3" class="b"/><rect x="-156.7" y="321.3" width="25" height="12.5" class="b"/><rect x="-169.2" y="296.2" width="12.5" height="25.1" class="b"/><rect x="-796.9" y="238.8" width="200" height="140" class="c"/><rect x="-703.2" y="296.3" width="12.5" height="37.6" class="b"/><polygon points="-728.1 283.8 -728.1 333.9 -715.7 333.9 -715.7 296.3 -703.2 296.3 -703.2 283.8 " class="b"/><rect x="-678.2" y="296.3" width="12.5" height="37.6" class="b"/><rect x="-690.7" y="283.8" width="12.5" height="12.5" class="b"/><rect x="-802.8" y="-434.3" width="200" height="200" class="b"/><rect x="-536.8" y="-434.3" width="200" height="200" class="b"/><rect x="-270.9" y="-434.3" width="200" height="200" class="b"/><rect x="-5.2" y="-434.3" width="200" height="200" class="b"/><rect x="-206.7" y="-365.2" width="35.6" height="11.3" class="d"/><rect x="-206.7" y="-320" width="35.6" height="11.3" class="d"/><rect x="-224.5" y="-353.9" width="17.8" height="33.9" class="d"/><rect x="-146.8" y="-320" width="36.1" height="11.3" class="d"/><rect x="-164.5" y="-353.9" width="17.7" height="33.9" class="d"/><rect x="-146.8" y="-365.2" width="36.1" height="11.3" class="d"/><rect x="-711.7" y="-354" width="17.8" height="45.3" class="d"/><polygon points="-747.3 -365.4 -747.3 -308.7 -729.5 -308.7 -729.5 -354 -711.7 -354 -711.7 -365.4 " class="d"/><rect x="-676" y="-354" width="17.8" height="45.3" class="d"/><rect x="-693.9" y="-365.4" width="17.8" height="11.3" class="d"/><rect x="-1068.3" y="-434.3" width="200" height="200" class="b"/><polygon points="-975 -365.4 -1021.6 -365.4 -1021.6 -309 -1003.8 -309 -1003.8 -331.5 -975 -331.5 -975 -342.8 -1003.8 -342.8 -1003.8 -354.1 -975 -354.1 " class="d"/><rect x="-950.7" y="-342.5" width="17.7" height="33.8" class="d"/><polygon points="-968.4 -342.8 -950.7 -342.8 -950.7 -365.4 -950.7 -365.4 -968.4 -365.4 " class="d"/><rect x="-932.9" y="-365.1" width="17.7" height="22.5" class="d"/><rect x="-1316.3" y="-434.3" width="200" height="194.7" class="b"/><rect x="58.9" y="-353.9" width="17.8" height="45.2" class="d"/><polygon points="23.4 -365.2 23.4 -308.7 41.2 -308.7 41.2 -353.9 58.9 -353.9 58.9 -365.2 " class="d"/><polygon points="112.3 -353.9 130.5 -353.9 130.5 -365.2 94.5 -365.2 94.4 -365.2 76.7 -365.2 76.7 -353.9 94.4 -353.9 94.4 -308.7 94.5 -308.7 112.3 -308.7 130.5 -308.7 130.5 -320 112.3 -320 " class="d"/><rect x="130.5" y="-353.9" width="16.2" height="33.9" class="d"/><rect x="153.4" y="-344.2" width="17.8" height="35.5" class="d"/><rect x="153.4" y="-365.2" width="17.8" height="11.3" class="d"/><path d="M-436.8-354.1h17M-419.5-354.1v44.1h-17.3v-44.1" class="d"/><rect x="-454.2" y="-368.5" width="17.3" height="11" class="d"/><path d="M-1171.8-354.9h-29.3v-10.5h30.9c0 0 9.9 0.3 9.9 10.2v3 33.3c0 9.9-9.9 10.2-9.9 10.2h-46.8v-40.8h10.5v29.8c0 0.3 0.2 0.5 0.5 0.5h34.6c0.3 0 0.5-0.2 0.5-0.5 0 0 0-31.2 0-32.5C-1170.8-352.2-1170.5-354.9-1171.8-354.9h-29.3" class="e"/><path d="M-1239.3-331.5v11.9h-44.9c-0.3 0-0.5 0.2-0.5 0.5v9.7c0 0.3 0.2 0.5 0.5 0.5h45.5c6 0 9.1-2.7 10.7-5.4 1.6-2.7 1.7-5.4 1.7-5.4l0-0.4c0-0.1 0-0.1 0-0.2v-10.8c0-0.3-0.2-0.5-0.5-0.5H-1239.3z" class="e"/><line x1="-1239.3" y1="-331.5" x2="-1239.3" y2="-331.5" class="e"/><path d="M-1239.3-331.5v-10.3c0-0.3-0.2-0.5-0.5-0.5h-34v-11.9h47.1c0.3 0 0.5-0.2 0.5-0.5v-9.7c0-0.3-0.2-0.5-0.5-0.5h-57.4c-0.3 0-0.5 0.2-0.5 0.5l-0.1 22.8c0 9.8 10.7 10.3 10.7 10.3l0.2 0c0 0 0 0 0 0H-1239.3z" class="e"/><rect x="-1311.4" y="238.8" width="200" height="140" class="e"/><path d="M-1207.4 338.2h-1v-42.8h12.5v30.3h39c0-3.9 0-30.8 0-32l0-0.1c0.1-0.6 0-1.3-0.1-1.6h-35.5v-12.5h37.3c0.1 0 10.9 0.4 10.9 11.2v36.3c0 10.8-10.8 11.2-10.9 11.2H-1207.4z" class="b"/><path d="M-1229.2 338.2h-47.6c-0.9 0-1.5-0.7-1.5-1.5v-9.7c0-0.9 0.7-1.5 1.5-1.5h46v-8.1h13.5c0.9 0 1.5 0.7 1.5 1.5v7c0 0.1 0 0.2 0 0.3l0 0.3 0 0.1c0 0.1-0.2 3-1.9 5.9C-1219.2 335-1222.6 338.2-1229.2 338.2z" class="b"/><path d="M-1230.8 317.2h-35.8c-0.2 0-11.7-0.6-11.7-11.3l0.1-24.6c0-0.8 0.7-1.5 1.5-1.5h59.5c0.9 0 1.5 0.7 1.5 1.5v9.7c0 0.9-0.7 1.5-1.5 1.5h-48.1v11.8h33.1c0.9 0 1.5 0.7 1.5 1.5V317.2z" class="b"/><rect x="-532.9" y="238.8" width="200" height="140" class="f"/><rect x="-445.4" y="283.9" width="12.5" height="12.5" class="b"/><rect x="-432.9" y="296.4" width="12.5" height="37.4" class="b"/><rect x="-1.2" y="510.8" width="200" height="140" class="g"/><polygon points="111.9 568.4 135.6 568.4 135.6 555.9 86.9 555.9 86.9 568.4 99.5 568.4 99.5 605.9 99.5 605.9 117.3 605.9 135.6 605.9 135.6 593.6 111.9 593.6 " class="b"/><rect x="135.6" y="568.4" width="12.5" height="25.2" class="b"/><rect x="148.1" y="555.9" width="12.5" height="12.5" class="b"/><rect x="160.5" y="568.5" width="12.5" height="37.5" class="b"/><rect x="49.6" y="568.3" width="12.5" height="37.6" class="b"/><polygon points="24.6 555.8 24.6 605.9 37.1 605.9 37.1 568.3 49.6 568.3 49.6 555.8 " class="b"/><rect x="74.6" y="568.3" width="12.5" height="37.6" class="b"/><rect x="62.1" y="555.8" width="12.5" height="12.5" class="b"/><rect x="449" y="-140.1" width="200" height="140" class="g"/><polygon points="562.1 -82.6 585.8 -82.6 585.8 -95.1 537.1 -95.1 537.1 -82.6 549.7 -82.6 549.7 -45.1 549.7 -45.1 567.5 -45.1 585.8 -45.1 585.8 -57.4 562.1 -57.4 " class="b"/><rect x="585.8" y="-82.6" width="12.5" height="25.2" class="b"/><rect x="598.3" y="-95.1" width="12.5" height="12.5" class="b"/><rect x="610.7" y="-82.5" width="12.5" height="37.5" class="b"/><rect x="499.8" y="-82.7" width="12.5" height="37.6" class="b"/><polygon points="474.8 -95.2 474.8 -45.1 487.3 -45.1 487.3 -82.7 499.8 -82.7 499.8 -95.2 " class="b"/><rect x="524.8" y="-82.7" width="12.5" height="37.6" class="b"/><rect x="512.3" y="-95.2" width="12.5" height="12.5" class="b"/><rect x="-1247.7" y="585.1" width="12.5" height="12.5" class="b"/><rect x="-1247.7" y="597.7" width="12.5" height="12.5" class="b"/><rect x="-1247.7" y="610.1" width="12.5" height="12.5" class="b"/><rect x="-1247.7" y="622.7" width="12.5" height="12.5" class="b"/><rect x="-1260.2" y="585.1" width="12.5" height="12.5" class="b"/><rect x="-1260.2" y="597.7" width="12.5" height="12.5" class="b"/><rect x="-1260.2" y="610.1" width="12.5" height="12.5" class="b"/><rect x="-1260.2" y="622.7" width="12.5" height="12.5" class="b"/><rect x="-1272.7" y="585.1" width="12.5" height="12.5" class="b"/><rect x="-1272.7" y="597.7" width="12.5" height="12.5" class="b"/><rect x="-1272.7" y="610.1" width="12.5" height="12.5" class="b"/><rect x="-1272.7" y="622.7" width="12.5" height="12.5" class="b"/><rect x="-1285.1" y="585.1" width="12.5" height="12.5" class="b"/><rect x="-1285.1" y="597.7" width="12.5" height="12.5" class="b"/><rect x="-1285.1" y="610.1" width="12.5" height="12.5" class="b"/><rect x="-1285.1" y="622.7" width="12.5" height="12.5" class="b"/><rect x="-1297.6" y="585.1" width="12.5" height="12.5" class="b"/><rect x="-1297.6" y="597.7" width="12.5" height="12.5" class="b"/><rect x="-1297.6" y="610.1" width="12.5" height="12.5" class="b"/><rect x="-1297.6" y="622.7" width="12.5" height="12.5" class="b"/><rect x="-1061.4" y="238.8" width="200" height="140" class="h"/><polygon points="-967.6 284 -1005.1 284 -1005.1 333.9 -992.5 333.9 -992.5 321.4 -980.1 321.4 -980.1 308.8 -992.5 308.8 -992.5 296.4 -967.6 296.4 " class="b"/><rect x="-955.1" y="308.8" width="12.5" height="25.1" class="b"/><rect x="-942.6" y="296.4" width="12.5" height="12.5" class="b"/><rect x="-967.6" y="296.4" width="12.5" height="12.5" class="b"/><rect x="-930.2" y="283.8" width="12.5" height="12.5" class="b"/><rect x="-269.2" y="-0.1" width="200" height="140" class="b"/><rect x="-194.1" y="44.9" width="25" height="12.3" class="a"/><rect x="-194.1" y="82.3" width="25" height="12.5" class="a"/><rect x="-206.6" y="57.3" width="12.5" height="25.1" class="a"/><rect x="-156.7" y="44.9" width="25" height="12.3" class="a"/><rect x="-156.7" y="82.3" width="25" height="12.5" class="a"/><rect x="-169.2" y="57.3" width="12.5" height="25.1" class="a"/><rect x="-796.9" y="-0.1" width="200" height="140" class="b"/><rect x="-703.2" y="57.3" width="12.5" height="37.6" class="c"/><polygon points="-728.1 44.8 -728.1 94.9 -715.7 94.9 -715.7 57.3 -703.2 57.3 -703.2 44.8 " class="c"/><rect x="-678.2" y="57.3" width="12.5" height="37.6" class="c"/><rect x="-690.7" y="44.8" width="12.5" height="12.5" class="c"/><rect x="-1311.4" y="-0.1" width="200" height="140" class="b"/><path d="M-1207.4 99.2h-1V56.4h12.5v30.3h39c0-3.9 0-30.8 0-32l0-0.1c0.1-0.6 0-1.3-0.1-1.6h-35.5V40.5h37.3c0.1 0 10.9 0.4 10.9 11.2v36.3c0 10.8-10.8 11.2-10.9 11.2H-1207.4z" class="d"/><path d="M-1229.2 99.2h-47.6c-0.9 0-1.5-0.7-1.5-1.5v-9.7c0-0.9 0.7-1.5 1.5-1.5h46v-8.1h13.5c0.9 0 1.5 0.7 1.5 1.5v7c0 0.1 0 0.2 0 0.3l0 0.3 0 0.1c0 0.1-0.2 3-1.9 5.9C-1219.2 96-1222.6 99.2-1229.2 99.2z" class="d"/><path d="M-1230.8 78.2h-35.8c-0.2 0-11.7-0.6-11.7-11.3l0.1-24.6c0-0.8 0.7-1.5 1.5-1.5h59.5c0.9 0 1.5 0.7 1.5 1.5v9.7c0 0.9-0.7 1.5-1.5 1.5h-48.1v11.8h33.1c0.9 0 1.5 0.7 1.5 1.5V78.2z" class="d"/><rect x="-532.9" y="-0.1" width="200" height="140" class="b"/><rect x="-445.4" y="44.9" width="12.5" height="12.5" class="f"/><rect x="-432.9" y="57.4" width="12.5" height="37.4" class="f"/><rect x="-1061.4" y="-0.1" width="200" height="140" class="b"/><polygon points="-967.6 45 -1005.1 45 -1005.1 94.9 -992.5 94.9 -992.5 82.4 -980.1 82.4 -980.1 69.9 -992.5 69.9 -992.5 57.4 -967.6 57.4 " class="h"/><rect x="-955.1" y="69.9" width="12.5" height="25.1" class="h"/><rect x="-942.6" y="57.4" width="12.5" height="12.5" class="h"/><rect x="-967.6" y="57.4" width="12.5" height="12.5" class="h"/><rect x="-930.2" y="44.8" width="12.5" height="12.5" class="h"/><text transform="matrix(1 0 0 1 403.0957 195.7256)"><tspan font-family="'Monoeger0556'" font-size="78.5648" letter-spacing="-25">  P</tspan><tspan x="33.8" font-family="'Monoeger0556'" font-size="78.5648">  G</tspan></text><rect x="1.2" y="238.8" width="200" height="140" class="g"/><path d="M82.5 309v12.5H70.1v12.5H57.6v-50h24.9l0 12.5h-12.4v12.5H82.5z" class="b"/><path d="M144.7 309v25.1h-24.7v-12.5h-12.5v-25.1h12.5V284h24.7v12.5h-24.7v25.1h12.3v-12.6H144.7z" class="b"/><rect x="82.5" y="296.5" width="12.5" height="12.5" class="b"/><rect width="200" height="140" class="b"/><path d="M81.4 70.2v12.5H68.9v12.5H56.4V45.2h24.9l0 12.5h-12.4V70.2H81.4z" class="g"/><path d="M143.6 70.1V95.2h-24.7V82.7h-12.5V57.6h12.5V45.2h24.7v12.5h-24.7v25.1h12.3V70.1H143.6z" class="g"/><rect x="81.4" y="57.7" width="12.5" height="12.5" class="g"/><rect x="473.9" y="238.8" width="200" height="140" class="g"/><path d="M579 309v12.5h-12.4v12.5h-12.5v-50h24.9l0 12.5h-12.4v12.5H579z" class="b"/><rect x="581.3" y="296.5" width="12.5" height="12.5" class="b"/><rect x="-836.5" y="466.7" width="12.5" height="12.5"/><rect x="-909.5" y="413.5" width="12.5" height="12.5"/></svg>