<svg xmlns="http://www.w3.org/2000/svg" width="200" height="140" viewBox="0 0 200 140"><style>.a{fill:#38C7C9;}.b{fill:#ECEDED;}.c{fill:#D91C5C;}.d{fill:#414042;}.e{fill:#414042;stroke-width:2;stroke:#414042;}.f{fill:#DE653A;}.g{fill:#90278E;}.h{fill:#1FA7E0;}</style><rect x="792.2" y="239" width="200" height="140" class="a"/><rect x="867.2" y="284" width="25" height="12.3" class="b"/><rect x="867.2" y="321.4" width="25" height="12.5" class="b"/><rect x="854.8" y="296.4" width="12.5" height="25.1" class="b"/><rect x="904.7" y="284" width="25" height="12.3" class="b"/><rect x="904.7" y="321.4" width="25" height="12.5" class="b"/><rect x="892.2" y="296.4" width="12.5" height="25.1" class="b"/><rect x="264.4" y="239" width="200" height="140" class="c"/><rect x="358.2" y="296.4" width="12.5" height="37.6" class="b"/><polygon points="333.2 283.9 333.2 334.1 345.7 334.1 345.7 296.4 358.2 296.4 358.2 283.9 " class="b"/><rect x="383.2" y="296.4" width="12.5" height="37.6" class="b"/><rect x="370.7" y="283.9" width="12.5" height="12.5" class="b"/><rect x="258.6" y="-434.2" width="200" height="200" class="b"/><rect x="524.5" y="-434.2" width="200" height="200" class="b"/><rect x="790.5" y="-434.2" width="200" height="200" class="b"/><rect x="1056.2" y="-434.2" width="200" height="200" class="b"/><rect x="854.7" y="-365.1" width="35.6" height="11.3" class="d"/><rect x="854.7" y="-319.9" width="35.6" height="11.3" class="d"/><rect x="836.9" y="-353.8" width="17.8" height="33.9" class="d"/><rect x="914.6" y="-319.9" width="36.1" height="11.3" class="d"/><rect x="896.9" y="-353.8" width="17.7" height="33.9" class="d"/><rect x="914.6" y="-365.1" width="36.1" height="11.3" class="d"/><rect x="349.7" y="-353.9" width="17.8" height="45.3" class="d"/><polygon points="314 -365.2 314 -308.6 331.9 -308.6 331.9 -353.9 349.7 -353.9 349.7 -365.2 " class="d"/><rect x="385.3" y="-353.9" width="17.8" height="45.3" class="d"/><rect x="367.5" y="-365.2" width="17.8" height="11.3" class="d"/><rect x="-6.9" y="-434.2" width="200" height="200" class="b"/><polygon points="86.3 -365.2 39.8 -365.2 39.8 -308.9 57.5 -308.9 57.5 -331.4 86.3 -331.4 86.3 -342.7 57.5 -342.7 57.5 -353.9 86.3 -353.9 " class="d"/><rect x="110.7" y="-342.4" width="17.7" height="33.8" class="d"/><polygon points="93 -342.7 110.7 -342.7 110.7 -365.2 110.7 -365.2 93 -365.2 " class="d"/><rect x="128.4" y="-364.9" width="17.7" height="22.5" class="d"/><rect x="-254.9" y="-434.2" width="200" height="194.7" class="b"/><rect x="1120.3" y="-353.8" width="17.8" height="45.2" class="d"/><polygon points="1084.7 -365.1 1084.7 -308.6 1102.5 -308.6 1102.5 -353.8 1120.3 -353.8 1120.3 -365.1 " class="d"/><polygon points="1173.7 -353.8 1191.9 -353.8 1191.9 -365.1 1155.9 -365.1 1155.8 -365.1 1138.1 -365.1 1138.1 -353.8 1155.8 -353.8 1155.8 -308.6 1155.9 -308.6 1173.7 -308.6 1191.9 -308.6 1191.9 -319.9 1173.7 -319.9 " class="d"/><rect x="1191.9" y="-353.8" width="16.2" height="33.9" class="d"/><rect x="1214.8" y="-344.1" width="17.8" height="35.5" class="d"/><rect x="1214.8" y="-365.1" width="17.8" height="11.3" class="d"/><path d="M624.5-353.9h17M641.9-353.9v44.1h-17.3v-44.1" class="d"/><rect x="607.2" y="-368.3" width="17.3" height="11" class="d"/><path d="M-110.4-354.7h-29.3v-10.5h30.9c0 0 9.9 0.3 9.9 10.2v3 33.3c0 9.9-9.9 10.2-9.9 10.2h-46.8v-40.8h10.5v29.8c0 0.3 0.2 0.5 0.5 0.5h34.6c0.3 0 0.5-0.2 0.5-0.5 0 0 0-31.2 0-32.5C-109.4-352-109.1-354.7-110.4-354.7h-29.3" class="e"/><path d="M-177.9-331.3v11.9h-44.9c-0.3 0-0.5 0.2-0.5 0.5v9.7c0 0.3 0.2 0.5 0.5 0.5h45.5c6 0 9.1-2.7 10.7-5.4 1.6-2.7 1.7-5.4 1.7-5.4l0-0.4c0-0.1 0-0.1 0-0.2v-10.8c0-0.3-0.2-0.5-0.5-0.5H-177.9z" class="e"/><line x1="-177.9" y1="-331.3" x2="-177.9" y2="-331.3" class="e"/><path d="M-177.9-331.3v-10.3c0-0.3-0.2-0.5-0.5-0.5h-34v-11.9h47.1c0.3 0 0.5-0.2 0.5-0.5v-9.7c0-0.3-0.2-0.5-0.5-0.5h-57.4c-0.3 0-0.5 0.2-0.5 0.5l-0.1 22.8c0 9.8 10.7 10.3 10.7 10.3l0.2 0c0 0 0 0 0 0H-177.9z" class="e"/><rect x="-250.1" y="239" width="200" height="140" class="e"/><path d="M-146.1 338.3h-1v-42.8h12.5v30.3h39c0-3.9 0-30.8 0-32l0-0.1c0.1-0.6 0-1.3-0.1-1.6h-35.5v-12.5h37.3c0.1 0 10.9 0.4 10.9 11.2v36.3c0 10.8-10.8 11.2-10.9 11.2H-146.1z" class="b"/><path d="M-167.8 338.3h-47.6c-0.9 0-1.5-0.7-1.5-1.5v-9.7c0-0.9 0.7-1.5 1.5-1.5h46v-8.1h13.5c0.9 0 1.5 0.7 1.5 1.5v7c0 0.1 0 0.2 0 0.3l0 0.3 0 0.1c0 0.1-0.2 3-1.9 5.9C-157.9 335.1-161.2 338.3-167.8 338.3z" class="b"/><path d="M-169.4 317.4h-35.8c-0.2 0-11.7-0.6-11.7-11.3l0.1-24.6c0-0.8 0.7-1.5 1.5-1.5h59.5c0.9 0 1.5 0.7 1.5 1.5v9.7c0 0.9-0.7 1.5-1.5 1.5h-48.1v11.8h33.1c0.9 0 1.5 0.7 1.5 1.5V317.4z" class="b"/><rect x="528.4" y="239" width="200" height="140" class="f"/><rect x="615.9" y="284" width="12.5" height="12.5" class="b"/><rect x="628.4" y="296.6" width="12.5" height="37.4" class="b"/><rect x="1060.2" y="511" width="200" height="140" class="g"/><polygon points="1173.3 568.5 1196.9 568.5 1196.9 556 1148.3 556 1148.3 568.5 1160.8 568.5 1160.8 606.1 1160.9 606.1 1178.7 606.1 1196.9 606.1 1196.9 593.7 1173.3 593.7 " class="b"/><rect x="1196.9" y="568.5" width="12.5" height="25.2" class="b"/><rect x="1209.4" y="556" width="12.5" height="12.5" class="b"/><rect x="1221.9" y="568.6" width="12.5" height="37.5" class="b"/><rect x="1111" y="568.4" width="12.5" height="37.6" class="b"/><polygon points="1086 555.9 1086 606.1 1098.5 606.1 1098.5 568.4 1111 568.4 1111 555.9 " class="b"/><rect x="1135.9" y="568.4" width="12.5" height="37.6" class="b"/><rect x="1123.5" y="555.9" width="12.5" height="12.5" class="b"/><rect x="1510.4" y="-140" width="200" height="140" class="g"/><polygon points="1623.5 -82.5 1647.1 -82.5 1647.1 -95 1598.5 -95 1598.5 -82.5 1611 -82.5 1611 -44.9 1611.1 -44.9 1628.9 -44.9 1647.1 -44.9 1647.1 -57.2 1623.5 -57.2 " class="b"/><rect x="1647.1" y="-82.5" width="12.5" height="25.2" class="b"/><rect x="1659.6" y="-95" width="12.5" height="12.5" class="b"/><rect x="1672.1" y="-82.4" width="12.5" height="37.5" class="b"/><rect x="1561.2" y="-82.6" width="12.5" height="37.6" class="b"/><polygon points="1536.2 -95.1 1536.2 -44.9 1548.7 -44.9 1548.7 -82.6 1561.2 -82.6 1561.2 -95.1 " class="b"/><rect x="1586.1" y="-82.6" width="12.5" height="37.6" class="b"/><rect x="1573.7" y="-95.1" width="12.5" height="12.5" class="b"/><rect x="-186.3" y="585.2" width="12.5" height="12.5" class="b"/><rect x="-186.3" y="597.8" width="12.5" height="12.5" class="b"/><rect x="-186.3" y="610.3" width="12.5" height="12.5" class="b"/><rect x="-186.3" y="622.9" width="12.5" height="12.5" class="b"/><rect x="-198.8" y="585.2" width="12.5" height="12.5" class="b"/><rect x="-198.8" y="597.8" width="12.5" height="12.5" class="b"/><rect x="-198.8" y="610.3" width="12.5" height="12.5" class="b"/><rect x="-198.8" y="622.9" width="12.5" height="12.5" class="b"/><rect x="-211.3" y="585.2" width="12.5" height="12.5" class="b"/><rect x="-211.3" y="597.8" width="12.5" height="12.5" class="b"/><rect x="-211.3" y="610.3" width="12.5" height="12.5" class="b"/><rect x="-211.3" y="622.9" width="12.5" height="12.5" class="b"/><rect x="-223.8" y="585.2" width="12.5" height="12.5" class="b"/><rect x="-223.8" y="597.8" width="12.5" height="12.5" class="b"/><rect x="-223.8" y="610.3" width="12.5" height="12.5" class="b"/><rect x="-223.8" y="622.9" width="12.5" height="12.5" class="b"/><rect x="-236.3" y="585.2" width="12.5" height="12.5" class="b"/><rect x="-236.3" y="597.8" width="12.5" height="12.5" class="b"/><rect x="-236.3" y="610.3" width="12.5" height="12.5" class="b"/><rect x="-236.3" y="622.9" width="12.5" height="12.5" class="b"/><rect y="239" width="200" height="140" class="h"/><polygon points="93.8 284.2 56.3 284.2 56.3 334.1 68.9 334.1 68.9 321.6 81.3 321.6 81.3 309 68.9 309 68.9 296.5 93.8 296.5 " class="b"/><rect x="106.3" y="309" width="12.5" height="25.1" class="b"/><rect x="118.7" y="296.5" width="12.5" height="12.5" class="b"/><rect x="93.8" y="296.5" width="12.5" height="12.5" class="b"/><rect x="131.2" y="283.9" width="12.5" height="12.5" class="b"/><rect x="792.2" width="200" height="140" class="b"/><rect x="867.2" y="45.1" width="25" height="12.3" class="a"/><rect x="867.2" y="82.5" width="25" height="12.5" class="a"/><rect x="854.8" y="57.4" width="12.5" height="25.1" class="a"/><rect x="904.7" y="45.1" width="25" height="12.3" class="a"/><rect x="904.7" y="82.5" width="25" height="12.5" class="a"/><rect x="892.2" y="57.4" width="12.5" height="25.1" class="a"/><rect x="264.4" width="200" height="140" class="b"/><rect x="358.2" y="57.4" width="12.5" height="37.6" class="c"/><polygon points="333.2 44.9 333.2 95.1 345.7 95.1 345.7 57.4 358.2 57.4 358.2 44.9 " class="c"/><rect x="383.2" y="57.4" width="12.5" height="37.6" class="c"/><rect x="370.7" y="44.9" width="12.5" height="12.5" class="c"/><rect x="-250.1" width="200" height="140" class="b"/><path d="M-146.1 99.3h-1V56.5h12.5v30.3h39c0-3.9 0-30.8 0-32l0-0.1c0.1-0.6 0-1.3-0.1-1.6h-35.5V40.7h37.3c0.1 0 10.9 0.4 10.9 11.2v36.3c0 10.8-10.8 11.2-10.9 11.2H-146.1z" class="d"/><path d="M-167.8 99.3h-47.6c-0.9 0-1.5-0.7-1.5-1.5v-9.7c0-0.9 0.7-1.5 1.5-1.5h46v-8.1h13.5c0.9 0 1.5 0.7 1.5 1.5v7c0 0.1 0 0.2 0 0.3l0 0.3 0 0.1c0 0.1-0.2 3-1.9 5.9C-157.9 96.1-161.2 99.3-167.8 99.3z" class="d"/><path d="M-169.4 78.4h-35.8c-0.2 0-11.7-0.6-11.7-11.3l0.1-24.6c0-0.8 0.7-1.5 1.5-1.5h59.5c0.9 0 1.5 0.7 1.5 1.5v9.7c0 0.9-0.7 1.5-1.5 1.5h-48.1v11.8h33.1c0.9 0 1.5 0.7 1.5 1.5V78.4z" class="d"/><rect x="528.4" width="200" height="140" class="b"/><rect x="615.9" y="45" width="12.5" height="12.5" class="f"/><rect x="628.4" y="57.6" width="12.5" height="37.4" class="f"/><rect width="200" height="140" class="b"/><polygon points="93.8 45.2 56.3 45.2 56.3 95.1 68.9 95.1 68.9 82.6 81.3 82.6 81.3 70 68.9 70 68.9 57.5 93.8 57.5 " class="h"/><rect x="106.3" y="70" width="12.5" height="25.1" class="h"/><rect x="118.7" y="57.5" width="12.5" height="12.5" class="h"/><rect x="93.8" y="57.5" width="12.5" height="12.5" class="h"/><rect x="131.2" y="44.9" width="12.5" height="12.5" class="h"/><text transform="matrix(1 0 0 1 1464.4644 195.8643)"><tspan font-family="'Monoeger0556'" font-size="78.5648" letter-spacing="-25">  P</tspan><tspan x="33.8" font-family="'Monoeger0556'" font-size="78.5648">  G</tspan></text><rect x="1062.5" y="239" width="200" height="140" class="g"/><path d="M1143.9 309.1v12.5h-12.4v12.5h-12.5v-50h24.9l0 12.5h-12.4v12.5H1143.9z" class="b"/><path d="M1206.1 309.1v25.1h-24.7v-12.5h-12.5v-25.1h12.5v-12.5h24.7v12.5h-24.7v25.1h12.3v-12.6H1206.1z" class="b"/><rect x="1143.9" y="296.7" width="12.5" height="12.5" class="b"/><rect x="1061.4" y="0.1" width="200" height="140" class="b"/><path d="M1142.7 70.3v12.5h-12.4v12.5h-12.5V45.3h24.9l0 12.5h-12.4v12.5H1142.7z" class="g"/><path d="M1204.9 70.3v25.1h-24.7V82.8h-12.5V57.8h12.5V45.3h24.7v12.5h-24.7v25.1h12.3V70.3H1204.9z" class="g"/><rect x="1142.7" y="57.8" width="12.5" height="12.5" class="g"/><rect x="1535.3" y="239" width="200" height="140" class="g"/><path d="M1640.4 309.1v12.5h-12.4v12.5h-12.5v-50h24.9l0 12.5h-12.4v12.5H1640.4z" class="b"/><rect x="1642.7" y="296.7" width="12.5" height="12.5" class="b"/><rect x="224.9" y="466.8" width="12.5" height="12.5"/><rect x="151.9" y="413.7" width="12.5" height="12.5"/></svg>