<svg xmlns="http://www.w3.org/2000/svg" width="200" height="140" viewBox="0 0 200 140"><style>.a{fill:#38C7C9;}.b{fill:#ECEDED;}.c{fill:#D91C5C;}.d{fill:#414042;}.e{fill:#414042;stroke-width:2;stroke:#414042;}.f{fill:#DE653A;}.g{fill:#90278E;}.h{fill:#1FA7E0;}</style><rect y="239" width="200" height="140" class="a"/><rect x="75" y="284" width="25" height="12.3" class="b"/><rect x="75" y="321.4" width="25" height="12.5" class="b"/><rect x="62.6" y="296.4" width="12.5" height="25.1" class="b"/><rect x="112.5" y="284" width="25" height="12.3" class="b"/><rect x="112.5" y="321.4" width="25" height="12.5" class="b"/><rect x="100" y="296.4" width="12.5" height="25.1" class="b"/><rect x="-527.8" y="239" width="200" height="140" class="c"/><rect x="-434" y="296.4" width="12.5" height="37.6" class="b"/><polygon points="-459 283.9 -459 334.1 -446.5 334.1 -446.5 296.4 -434 296.4 -434 283.9 " class="b"/><rect x="-409" y="296.4" width="12.5" height="37.6" class="b"/><rect x="-421.5" y="283.9" width="12.5" height="12.5" class="b"/><rect x="-533.6" y="-434.2" width="200" height="200" class="b"/><rect x="-267.7" y="-434.2" width="200" height="200" class="b"/><rect x="-1.8" y="-434.2" width="200" height="200" class="b"/><rect x="264" y="-434.2" width="200" height="200" class="b"/><rect x="62.4" y="-365.1" width="35.6" height="11.3" class="d"/><rect x="62.4" y="-319.9" width="35.6" height="11.3" class="d"/><rect x="44.7" y="-353.8" width="17.8" height="33.9" class="d"/><rect x="122.4" y="-319.9" width="36.1" height="11.3" class="d"/><rect x="104.7" y="-353.8" width="17.7" height="33.9" class="d"/><rect x="122.4" y="-365.1" width="36.1" height="11.3" class="d"/><rect x="-442.5" y="-353.9" width="17.8" height="45.3" class="d"/><polygon points="-478.2 -365.2 -478.2 -308.6 -460.3 -308.6 -460.3 -353.9 -442.5 -353.9 -442.5 -365.2 " class="d"/><rect x="-406.9" y="-353.9" width="17.8" height="45.3" class="d"/><rect x="-424.7" y="-365.2" width="17.8" height="11.3" class="d"/><rect x="-799.1" y="-434.2" width="200" height="200" class="b"/><polygon points="-705.9 -365.2 -752.4 -365.2 -752.4 -308.9 -734.7 -308.9 -734.7 -331.4 -705.9 -331.4 -705.9 -342.7 -734.7 -342.7 -734.7 -353.9 -705.9 -353.9 " class="d"/><rect x="-681.5" y="-342.4" width="17.7" height="33.8" class="d"/><polygon points="-699.2 -342.7 -681.5 -342.7 -681.5 -365.2 -681.5 -365.2 -699.2 -365.2 " class="d"/><rect x="-663.8" y="-364.9" width="17.7" height="22.5" class="d"/><rect x="-1047.1" y="-434.2" width="200" height="194.7" class="b"/><rect x="328.1" y="-353.8" width="17.8" height="45.2" class="d"/><polygon points="292.5 -365.1 292.5 -308.6 310.3 -308.6 310.3 -353.8 328.1 -353.8 328.1 -365.1 " class="d"/><polygon points="381.4 -353.8 399.7 -353.8 399.7 -365.1 363.7 -365.1 363.6 -365.1 345.9 -365.1 345.9 -353.8 363.6 -353.8 363.6 -308.6 363.7 -308.6 381.4 -308.6 399.7 -308.6 399.7 -319.9 381.4 -319.9 " class="d"/><rect x="399.7" y="-353.8" width="16.2" height="33.9" class="d"/><rect x="422.5" y="-344.1" width="17.8" height="35.5" class="d"/><rect x="422.5" y="-365.1" width="17.8" height="11.3" class="d"/><path d="M-167.7-353.9h17M-150.3-353.9v44.1h-17.3v-44.1" class="d"/><rect x="-185" y="-368.3" width="17.3" height="11" class="d"/><path d="M-902.7-354.7h-29.3v-10.5h30.9c0 0 9.9 0.3 9.9 10.2v3 33.3c0 9.9-9.9 10.2-9.9 10.2h-46.8v-40.8h10.5v29.8c0 0.3 0.2 0.5 0.5 0.5h34.6c0.3 0 0.5-0.2 0.5-0.5 0 0 0-31.2 0-32.5C-901.6-352-901.3-354.7-902.7-354.7h-29.3" class="e"/><path d="M-970.1-331.3v11.9h-44.9c-0.3 0-0.5 0.2-0.5 0.5v9.7c0 0.3 0.2 0.5 0.5 0.5h45.5c6 0 9.1-2.7 10.7-5.4 1.6-2.7 1.7-5.4 1.7-5.4l0-0.4c0-0.1 0-0.1 0-0.2v-10.8c0-0.3-0.2-0.5-0.5-0.5H-970.1z" class="e"/><line x1="-970.1" y1="-331.3" x2="-970.1" y2="-331.3" class="e"/><path d="M-970.1-331.3v-10.3c0-0.3-0.2-0.5-0.5-0.5h-34v-11.9h47.1c0.3 0 0.5-0.2 0.5-0.5v-9.7c0-0.3-0.2-0.5-0.5-0.5h-57.4c-0.3 0-0.5 0.2-0.5 0.5l-0.1 22.8c0 9.8 10.7 10.3 10.7 10.3l0.2 0c0 0 0 0 0 0H-970.1z" class="e"/><rect x="-1042.3" y="239" width="200" height="140" class="e"/><path d="M-938.3 338.3h-1v-42.8h12.5v30.3h39c0-3.9 0-30.8 0-32l0-0.1c0.1-0.6 0-1.3-0.1-1.6h-35.5v-12.5h37.3c0.1 0 10.9 0.4 10.9 11.2v36.3c0 10.8-10.8 11.2-10.9 11.2H-938.3z" class="b"/><path d="M-960.1 338.3h-47.6c-0.9 0-1.5-0.7-1.5-1.5v-9.7c0-0.9 0.7-1.5 1.5-1.5h46v-8.1h13.5c0.9 0 1.5 0.7 1.5 1.5v7c0 0.1 0 0.2 0 0.3l0 0.3 0 0.1c0 0.1-0.2 3-1.9 5.9C-950.1 335.1-953.4 338.3-960.1 338.3z" class="b"/><path d="M-961.6 317.4h-35.8c-0.2 0-11.7-0.6-11.7-11.3l0.1-24.6c0-0.8 0.7-1.5 1.5-1.5h59.5c0.9 0 1.5 0.7 1.5 1.5v9.7c0 0.9-0.7 1.5-1.5 1.5h-48.1v11.8h33.1c0.9 0 1.5 0.7 1.5 1.5V317.4z" class="b"/><rect x="-263.8" y="239" width="200" height="140" class="f"/><rect x="-176.3" y="284" width="12.5" height="12.5" class="b"/><rect x="-163.8" y="296.6" width="12.5" height="37.4" class="b"/><rect x="268" y="511" width="200" height="140" class="g"/><polygon points="381.1 568.5 404.7 568.5 404.7 556 356.1 556 356.1 568.5 368.6 568.5 368.6 606.1 368.7 606.1 386.5 606.1 404.7 606.1 404.7 593.7 381.1 593.7 " class="b"/><rect x="404.7" y="568.5" width="12.5" height="25.2" class="b"/><rect x="417.2" y="556" width="12.5" height="12.5" class="b"/><rect x="429.7" y="568.6" width="12.5" height="37.5" class="b"/><rect x="318.8" y="568.4" width="12.5" height="37.6" class="b"/><polygon points="293.8 555.9 293.8 606.1 306.3 606.1 306.3 568.4 318.8 568.4 318.8 555.9 " class="b"/><rect x="343.7" y="568.4" width="12.5" height="37.6" class="b"/><rect x="331.2" y="555.9" width="12.5" height="12.5" class="b"/><rect x="718.2" y="-140" width="200" height="140" class="g"/><polygon points="831.3 -82.5 854.9 -82.5 854.9 -95 806.3 -95 806.3 -82.5 818.8 -82.5 818.8 -44.9 818.9 -44.9 836.7 -44.9 854.9 -44.9 854.9 -57.2 831.3 -57.2 " class="b"/><rect x="854.9" y="-82.5" width="12.5" height="25.2" class="b"/><rect x="867.4" y="-95" width="12.5" height="12.5" class="b"/><rect x="879.9" y="-82.4" width="12.5" height="37.5" class="b"/><rect x="769" y="-82.6" width="12.5" height="37.6" class="b"/><polygon points="744 -95.1 744 -44.9 756.5 -44.9 756.5 -82.6 769 -82.6 769 -95.1 " class="b"/><rect x="793.9" y="-82.6" width="12.5" height="37.6" class="b"/><rect x="781.4" y="-95.1" width="12.5" height="12.5" class="b"/><rect x="-978.5" y="585.2" width="12.5" height="12.5" class="b"/><rect x="-978.5" y="597.8" width="12.5" height="12.5" class="b"/><rect x="-978.5" y="610.3" width="12.5" height="12.5" class="b"/><rect x="-978.5" y="622.9" width="12.5" height="12.5" class="b"/><rect x="-991" y="585.2" width="12.5" height="12.5" class="b"/><rect x="-991" y="597.8" width="12.5" height="12.5" class="b"/><rect x="-991" y="610.3" width="12.5" height="12.5" class="b"/><rect x="-991" y="622.9" width="12.5" height="12.5" class="b"/><rect x="-1003.5" y="585.2" width="12.5" height="12.5" class="b"/><rect x="-1003.5" y="597.8" width="12.5" height="12.5" class="b"/><rect x="-1003.5" y="610.3" width="12.5" height="12.5" class="b"/><rect x="-1003.5" y="622.9" width="12.5" height="12.5" class="b"/><rect x="-1016" y="585.2" width="12.5" height="12.5" class="b"/><rect x="-1016" y="597.8" width="12.5" height="12.5" class="b"/><rect x="-1016" y="610.3" width="12.5" height="12.5" class="b"/><rect x="-1016" y="622.9" width="12.5" height="12.5" class="b"/><rect x="-1028.5" y="585.2" width="12.5" height="12.5" class="b"/><rect x="-1028.5" y="597.8" width="12.5" height="12.5" class="b"/><rect x="-1028.5" y="610.3" width="12.5" height="12.5" class="b"/><rect x="-1028.5" y="622.9" width="12.5" height="12.5" class="b"/><rect x="-792.2" y="239" width="200" height="140" class="h"/><polygon points="-698.4 284.2 -735.9 284.2 -735.9 334.1 -723.4 334.1 -723.4 321.6 -710.9 321.6 -710.9 309 -723.4 309 -723.4 296.5 -698.4 296.5 " class="b"/><rect x="-686" y="309" width="12.5" height="25.1" class="b"/><rect x="-673.5" y="296.5" width="12.5" height="12.5" class="b"/><rect x="-698.4" y="296.5" width="12.5" height="12.5" class="b"/><rect x="-661" y="283.9" width="12.5" height="12.5" class="b"/><rect width="200" height="140" class="b"/><rect x="75" y="45.1" width="25" height="12.3" class="a"/><rect x="75" y="82.5" width="25" height="12.5" class="a"/><rect x="62.6" y="57.4" width="12.5" height="25.1" class="a"/><rect x="112.5" y="45.1" width="25" height="12.3" class="a"/><rect x="112.5" y="82.5" width="25" height="12.5" class="a"/><rect x="100" y="57.4" width="12.5" height="25.1" class="a"/><rect x="-527.8" width="200" height="140" class="b"/><rect x="-434" y="57.4" width="12.5" height="37.6" class="c"/><polygon points="-459 44.9 -459 95.1 -446.5 95.1 -446.5 57.4 -434 57.4 -434 44.9 " class="c"/><rect x="-409" y="57.4" width="12.5" height="37.6" class="c"/><rect x="-421.5" y="44.9" width="12.5" height="12.5" class="c"/><rect x="-1042.3" width="200" height="140" class="b"/><path d="M-938.3 99.3h-1V56.5h12.5v30.3h39c0-3.9 0-30.8 0-32l0-0.1c0.1-0.6 0-1.3-0.1-1.6h-35.5V40.7h37.3c0.1 0 10.9 0.4 10.9 11.2v36.3c0 10.8-10.8 11.2-10.9 11.2H-938.3z" class="d"/><path d="M-960.1 99.3h-47.6c-0.9 0-1.5-0.7-1.5-1.5v-9.7c0-0.9 0.7-1.5 1.5-1.5h46v-8.1h13.5c0.9 0 1.5 0.7 1.5 1.5v7c0 0.1 0 0.2 0 0.3l0 0.3 0 0.1c0 0.1-0.2 3-1.9 5.9C-950.1 96.1-953.4 99.3-960.1 99.3z" class="d"/><path d="M-961.6 78.4h-35.8c-0.2 0-11.7-0.6-11.7-11.3l0.1-24.6c0-0.8 0.7-1.5 1.5-1.5h59.5c0.9 0 1.5 0.7 1.5 1.5v9.7c0 0.9-0.7 1.5-1.5 1.5h-48.1v11.8h33.1c0.9 0 1.5 0.7 1.5 1.5V78.4z" class="d"/><rect x="-263.8" width="200" height="140" class="b"/><rect x="-176.3" y="45" width="12.5" height="12.5" class="f"/><rect x="-163.8" y="57.6" width="12.5" height="37.4" class="f"/><rect x="-792.2" width="200" height="140" class="b"/><polygon points="-698.4 45.2 -735.9 45.2 -735.9 95.1 -723.4 95.1 -723.4 82.6 -710.9 82.6 -710.9 70 -723.4 70 -723.4 57.5 -698.4 57.5 " class="h"/><rect x="-686" y="70" width="12.5" height="25.1" class="h"/><rect x="-673.5" y="57.5" width="12.5" height="12.5" class="h"/><rect x="-698.4" y="57.5" width="12.5" height="12.5" class="h"/><rect x="-661" y="44.9" width="12.5" height="12.5" class="h"/><text transform="matrix(1 0 0 1 672.252 195.8643)"><tspan font-family="'Monoeger0556'" font-size="78.5648" letter-spacing="-25">  P</tspan><tspan x="33.8" font-family="'Monoeger0556'" font-size="78.5648">  G</tspan></text><rect x="270.3" y="239" width="200" height="140" class="g"/><path d="M351.7 309.1v12.5H339.3v12.5h-12.5v-50h24.9l0 12.5h-12.4v12.5H351.7z" class="b"/><path d="M413.9 309.1v25.1h-24.7v-12.5h-12.5v-25.1h12.5v-12.5h24.7v12.5h-24.7v25.1h12.3v-12.6H413.9z" class="b"/><rect x="351.7" y="296.7" width="12.5" height="12.5" class="b"/><rect x="269.2" y="0.1" width="200" height="140" class="b"/><path d="M350.5 70.3v12.5H338.1v12.5h-12.5V45.3h24.9l0 12.5h-12.4v12.5H350.5z" class="g"/><path d="M412.7 70.3v25.1h-24.7V82.8h-12.5V57.8h12.5V45.3h24.7v12.5h-24.7v25.1h12.3V70.3H412.7z" class="g"/><rect x="350.5" y="57.8" width="12.5" height="12.5" class="g"/><rect x="743.1" y="239" width="200" height="140" class="g"/><path d="M848.1 309.1v12.5h-12.4v12.5h-12.5v-50h24.9l0 12.5h-12.4v12.5H848.1z" class="b"/><rect x="850.5" y="296.7" width="12.5" height="12.5" class="b"/><rect x="-567.3" y="466.8" width="12.5" height="12.5"/><rect x="-640.3" y="413.7" width="12.5" height="12.5"/></svg>