<svg xmlns="http://www.w3.org/2000/svg" width="200" height="140" viewBox="0 0 200 140"><style>.a{fill:#38C7C9;}.b{fill:#ECEDED;}.c{fill:#D91C5C;}.d{fill:#414042;}.e{fill:#414042;stroke-width:2;stroke:#414042;}.f{fill:#DE653A;}.g{fill:#90278E;}.h{fill:#1FA7E0;}</style><rect x="792.2" width="200" height="140" class="a"/><rect x="867.2" y="45.1" width="25" height="12.3" class="b"/><rect x="867.2" y="82.5" width="25" height="12.5" class="b"/><rect x="854.8" y="57.4" width="12.5" height="25.1" class="b"/><rect x="904.7" y="45.1" width="25" height="12.3" class="b"/><rect x="904.7" y="82.5" width="25" height="12.5" class="b"/><rect x="892.2" y="57.4" width="12.5" height="25.1" class="b"/><rect x="264.4" width="200" height="140" class="c"/><rect x="358.2" y="57.4" width="12.5" height="37.6" class="b"/><polygon points="333.2 44.9 333.2 95.1 345.7 95.1 345.7 57.4 358.2 57.4 358.2 44.9 " class="b"/><rect x="383.2" y="57.4" width="12.5" height="37.6" class="b"/><rect x="370.7" y="44.9" width="12.5" height="12.5" class="b"/><rect x="258.6" y="-673.2" width="200" height="200" class="b"/><rect x="524.5" y="-673.2" width="200" height="200" class="b"/><rect x="790.5" y="-673.2" width="200" height="200" class="b"/><rect x="1056.2" y="-673.2" width="200" height="200" class="b"/><rect x="854.7" y="-604.1" width="35.6" height="11.3" class="d"/><rect x="854.7" y="-558.9" width="35.6" height="11.3" class="d"/><rect x="836.9" y="-592.8" width="17.8" height="33.9" class="d"/><rect x="914.6" y="-558.9" width="36.1" height="11.3" class="d"/><rect x="896.9" y="-592.8" width="17.7" height="33.9" class="d"/><rect x="914.6" y="-604.1" width="36.1" height="11.3" class="d"/><rect x="349.7" y="-592.9" width="17.8" height="45.3" class="d"/><polygon points="314 -604.2 314 -547.6 331.9 -547.6 331.9 -592.9 349.7 -592.9 349.7 -604.2 " class="d"/><rect x="385.3" y="-592.9" width="17.8" height="45.3" class="d"/><rect x="367.5" y="-604.2" width="17.8" height="11.3" class="d"/><rect x="-6.9" y="-673.2" width="200" height="200" class="b"/><polygon points="86.3 -604.2 39.8 -604.2 39.8 -547.9 57.5 -547.9 57.5 -570.4 86.3 -570.4 86.3 -581.7 57.5 -581.7 57.5 -592.9 86.3 -592.9 " class="d"/><rect x="110.7" y="-581.4" width="17.7" height="33.8" class="d"/><polygon points="93 -581.7 110.7 -581.7 110.7 -604.2 110.7 -604.2 93 -604.2 " class="d"/><rect x="128.4" y="-603.9" width="17.7" height="22.5" class="d"/><rect x="-254.9" y="-673.2" width="200" height="194.7" class="b"/><rect x="1120.3" y="-592.8" width="17.8" height="45.2" class="d"/><polygon points="1084.7 -604.1 1084.7 -547.6 1102.5 -547.6 1102.5 -592.8 1120.3 -592.8 1120.3 -604.1 " class="d"/><polygon points="1173.7 -592.8 1191.9 -592.8 1191.9 -604.1 1155.9 -604.1 1155.8 -604.1 1138.1 -604.1 1138.1 -592.8 1155.8 -592.8 1155.8 -547.6 1155.9 -547.6 1173.7 -547.6 1191.9 -547.6 1191.9 -558.9 1173.7 -558.9 " class="d"/><rect x="1191.9" y="-592.8" width="16.2" height="33.9" class="d"/><rect x="1214.8" y="-583.1" width="17.8" height="35.5" class="d"/><rect x="1214.8" y="-604.1" width="17.8" height="11.3" class="d"/><path d="M624.5-592.9h17M641.9-592.9v44.1h-17.3v-44.1" class="d"/><rect x="607.2" y="-607.3" width="17.3" height="11" class="d"/><path d="M-110.4-593.7h-29.3v-10.5h30.9c0 0 9.9 0.3 9.9 10.2v3 33.3c0 9.9-9.9 10.2-9.9 10.2h-46.8v-40.8h10.5v29.8c0 0.3 0.2 0.5 0.5 0.5h34.6c0.3 0 0.5-0.2 0.5-0.5 0 0 0-31.2 0-32.5C-109.4-591-109.1-593.7-110.4-593.7h-29.3" class="e"/><path d="M-177.9-570.3v11.9h-44.9c-0.3 0-0.5 0.2-0.5 0.5v9.7c0 0.3 0.2 0.5 0.5 0.5h45.5c6 0 9.1-2.7 10.7-5.4 1.6-2.7 1.7-5.4 1.7-5.4l0-0.4c0-0.1 0-0.1 0-0.2v-10.8c0-0.3-0.2-0.5-0.5-0.5H-177.9z" class="e"/><line x1="-177.9" y1="-570.3" x2="-177.9" y2="-570.3" class="e"/><path d="M-177.9-570.3v-10.3c0-0.3-0.2-0.5-0.5-0.5h-34v-11.9h47.1c0.3 0 0.5-0.2 0.5-0.5v-9.7c0-0.3-0.2-0.5-0.5-0.5h-57.4c-0.3 0-0.5 0.2-0.5 0.5l-0.1 22.8c0 9.8 10.7 10.3 10.7 10.3l0.2 0c0 0 0 0 0 0H-177.9z" class="e"/><rect x="-250.1" width="200" height="140" class="e"/><path d="M-146.1 99.3h-1V56.5h12.5v30.3h39c0-3.9 0-30.8 0-32l0-0.1c0.1-0.6 0-1.3-0.1-1.6h-35.5V40.7h37.3c0.1 0 10.9 0.4 10.9 11.2v36.3c0 10.8-10.8 11.2-10.9 11.2H-146.1z" class="b"/><path d="M-167.8 99.3h-47.6c-0.9 0-1.5-0.7-1.5-1.5v-9.7c0-0.9 0.7-1.5 1.5-1.5h46v-8.1h13.5c0.9 0 1.5 0.7 1.5 1.5v7c0 0.1 0 0.2 0 0.3l0 0.3 0 0.1c0 0.1-0.2 3-1.9 5.9C-157.9 96.1-161.2 99.3-167.8 99.3z" class="b"/><path d="M-169.4 78.4h-35.8c-0.2 0-11.7-0.6-11.7-11.3l0.1-24.6c0-0.8 0.7-1.5 1.5-1.5h59.5c0.9 0 1.5 0.7 1.5 1.5v9.7c0 0.9-0.7 1.5-1.5 1.5h-48.1v11.8h33.1c0.9 0 1.5 0.7 1.5 1.5V78.4z" class="b"/><rect x="528.4" width="200" height="140" class="f"/><rect x="615.9" y="45" width="12.5" height="12.5" class="b"/><rect x="628.4" y="57.6" width="12.5" height="37.4" class="b"/><rect x="1060.2" y="272" width="200" height="140" class="g"/><polygon points="1173.3 329.5 1196.9 329.5 1196.9 317 1148.3 317 1148.3 329.5 1160.8 329.5 1160.8 367.1 1160.9 367.1 1178.7 367.1 1196.9 367.1 1196.9 354.8 1173.3 354.8 " class="b"/><rect x="1196.9" y="329.5" width="12.5" height="25.2" class="b"/><rect x="1209.4" y="317" width="12.5" height="12.5" class="b"/><rect x="1221.9" y="329.6" width="12.5" height="37.5" class="b"/><rect x="1111" y="329.4" width="12.5" height="37.6" class="b"/><polygon points="1086 316.9 1086 367.1 1098.5 367.1 1098.5 329.4 1111 329.4 1111 316.9 " class="b"/><rect x="1135.9" y="329.4" width="12.5" height="37.6" class="b"/><rect x="1123.5" y="316.9" width="12.5" height="12.5" class="b"/><rect x="1510.4" y="-379" width="200" height="140" class="g"/><polygon points="1623.5 -321.5 1647.1 -321.5 1647.1 -334 1598.5 -334 1598.5 -321.5 1611 -321.5 1611 -283.9 1611.1 -283.9 1628.9 -283.9 1647.1 -283.9 1647.1 -296.2 1623.5 -296.2 " class="b"/><rect x="1647.1" y="-321.5" width="12.5" height="25.2" class="b"/><rect x="1659.6" y="-334" width="12.5" height="12.5" class="b"/><rect x="1672.1" y="-321.4" width="12.5" height="37.5" class="b"/><rect x="1561.2" y="-321.6" width="12.5" height="37.6" class="b"/><polygon points="1536.2 -334.1 1536.2 -283.9 1548.7 -283.9 1548.7 -321.6 1561.2 -321.6 1561.2 -334.1 " class="b"/><rect x="1586.1" y="-321.6" width="12.5" height="37.6" class="b"/><rect x="1573.7" y="-334.1" width="12.5" height="12.5" class="b"/><rect x="-480.3" y="346.2" width="12.5" height="12.5" class="b"/><rect x="-480.3" y="358.8" width="12.5" height="12.5" class="b"/><rect x="-480.3" y="371.3" width="12.5" height="12.5" class="b"/><rect x="-480.3" y="383.9" width="12.5" height="12.5" class="b"/><rect x="-492.8" y="346.2" width="12.5" height="12.5" class="b"/><rect x="-492.8" y="358.8" width="12.5" height="12.5" class="b"/><rect x="-492.8" y="371.3" width="12.5" height="12.5" class="b"/><rect x="-492.8" y="383.9" width="12.5" height="12.5" class="b"/><rect x="-505.3" y="346.2" width="12.5" height="12.5" class="b"/><rect x="-505.3" y="358.8" width="12.5" height="12.5" class="b"/><rect x="-505.3" y="371.3" width="12.5" height="12.5" class="b"/><rect x="-505.3" y="383.9" width="12.5" height="12.5" class="b"/><rect x="-517.8" y="346.2" width="12.5" height="12.5" class="b"/><rect x="-517.8" y="358.8" width="12.5" height="12.5" class="b"/><rect x="-517.8" y="371.3" width="12.5" height="12.5" class="b"/><rect x="-517.8" y="383.9" width="12.5" height="12.5" class="b"/><rect x="-530.3" y="346.2" width="12.5" height="12.5" class="b"/><rect x="-530.3" y="358.8" width="12.5" height="12.5" class="b"/><rect x="-530.3" y="371.3" width="12.5" height="12.5" class="b"/><rect x="-530.3" y="383.9" width="12.5" height="12.5" class="b"/><rect width="200" height="140" class="h"/><polygon points="93.8 45.2 56.3 45.2 56.3 95.1 68.9 95.1 68.9 82.6 81.3 82.6 81.3 70 68.9 70 68.9 57.5 93.8 57.5 " class="b"/><rect x="106.3" y="70" width="12.5" height="25.1" class="b"/><rect x="118.7" y="57.5" width="12.5" height="12.5" class="b"/><rect x="93.8" y="57.5" width="12.5" height="12.5" class="b"/><rect x="131.2" y="44.9" width="12.5" height="12.5" class="b"/><rect x="792.2" y="-239" width="200" height="140" class="b"/><rect x="867.2" y="-193.9" width="25" height="12.3" class="a"/><rect x="867.2" y="-156.5" width="25" height="12.5" class="a"/><rect x="854.8" y="-181.6" width="12.5" height="25.1" class="a"/><rect x="904.7" y="-193.9" width="25" height="12.3" class="a"/><rect x="904.7" y="-156.5" width="25" height="12.5" class="a"/><rect x="892.2" y="-181.6" width="12.5" height="25.1" class="a"/><rect x="264.4" y="-239" width="200" height="140" class="b"/><rect x="358.2" y="-181.6" width="12.5" height="37.6" class="c"/><polygon points="333.2 -194.1 333.2 -143.9 345.7 -143.9 345.7 -181.6 358.2 -181.6 358.2 -194.1 " class="c"/><rect x="383.2" y="-181.6" width="12.5" height="37.6" class="c"/><rect x="370.7" y="-194.1" width="12.5" height="12.5" class="c"/><rect x="-250.1" y="-239" width="200" height="140" class="b"/><path d="M-146.1-139.7h-1v-42.8h12.5v30.3h39c0-3.9 0-30.8 0-32l0-0.1c0.1-0.6 0-1.3-0.1-1.6h-35.5v-12.5h37.3c0.1 0 10.9 0.4 10.9 11.2v36.3c0 10.8-10.8 11.2-10.9 11.2H-146.1z" class="e"/><path d="M-167.8-139.7h-47.6c-0.9 0-1.5-0.7-1.5-1.5v-9.7c0-0.9 0.7-1.5 1.5-1.5h46v-8.1h13.5c0.9 0 1.5 0.7 1.5 1.5v7c0 0.1 0 0.2 0 0.3l0 0.3 0 0.1c0 0.1-0.2 3-1.9 5.9C-157.9-142.9-161.2-139.7-167.8-139.7z" class="e"/><path d="M-169.4-160.6h-35.8c-0.2 0-11.7-0.6-11.7-11.3l0.1-24.6c0-0.8 0.7-1.5 1.5-1.5h59.5c0.9 0 1.5 0.7 1.5 1.5v9.7c0 0.9-0.7 1.5-1.5 1.5h-48.1v11.8h33.1c0.9 0 1.5 0.7 1.5 1.5V-160.6z" class="e"/><rect x="528.4" y="-239" width="200" height="140" class="b"/><rect x="615.9" y="-194" width="12.5" height="12.5" class="f"/><rect x="628.4" y="-181.4" width="12.5" height="37.4" class="f"/><rect x="1060.2" y="-239" width="200" height="140" class="b"/><polygon points="1173.3 -181.5 1196.9 -181.5 1196.9 -194 1148.3 -194 1148.3 -181.5 1160.8 -181.5 1160.8 -143.9 1160.9 -143.9 1178.7 -143.9 1196.9 -143.9 1196.9 -156.2 1173.3 -156.2 " class="g"/><rect x="1196.9" y="-181.5" width="12.5" height="25.2" class="g"/><rect x="1209.4" y="-194" width="12.5" height="12.5" class="g"/><rect x="1221.9" y="-181.4" width="12.5" height="37.5" class="g"/><rect x="1111" y="-181.6" width="12.5" height="37.6" class="g"/><polygon points="1086 -194.1 1086 -143.9 1098.5 -143.9 1098.5 -181.6 1111 -181.6 1111 -194.1 " class="g"/><rect x="1135.9" y="-181.6" width="12.5" height="37.6" class="g"/><rect x="1123.5" y="-194.1" width="12.5" height="12.5" class="g"/><rect y="-239" width="200" height="140" class="b"/><polygon points="93.8 -193.8 56.3 -193.8 56.3 -143.9 68.9 -143.9 68.9 -156.4 81.3 -156.4 81.3 -169 68.9 -169 68.9 -181.5 93.8 -181.5 " class="h"/><rect x="106.3" y="-169" width="12.5" height="25.1" class="h"/><rect x="118.7" y="-181.5" width="12.5" height="12.5" class="h"/><rect x="93.8" y="-181.5" width="12.5" height="12.5" class="h"/><rect x="131.2" y="-194.1" width="12.5" height="12.5" class="h"/><rect x="1062.5" width="200" height="140" class="g"/><path d="M1143.9 70.2v12.5h-12.4v12.5h-12.5V45.2h24.9l0 12.5h-12.4V70.2H1143.9z" class="b"/><path d="M1206.1 70.1V95.2h-24.7V82.7h-12.5V57.6h12.5V45.2h24.7v12.5h-24.7v25.1h12.3V70.1H1206.1z" class="b"/><text transform="matrix(1 0 0 1 1464.4644 -43.1235)"><tspan font-family="'Monoeger0556'" font-size="78.5648" letter-spacing="-25">  P</tspan><tspan x="33.8" font-family="'Monoeger0556'" font-size="78.5648">  G</tspan></text><rect x="1146.2" y="57.7" width="12.5" height="12.5" class="b"/><rect x="1535.3" width="200" height="140" class="g"/><path d="M1640.4 70.2v12.5h-12.4v12.5h-12.5V45.2h24.9l0 12.5h-12.4V70.2H1640.4z" class="b"/><rect x="1642.7" y="57.7" width="12.5" height="12.5" class="b"/><rect x="224.9" y="227.8" width="12.5" height="12.5"/><rect x="151.9" y="174.7" width="12.5" height="12.5"/></svg>