<svg xmlns="http://www.w3.org/2000/svg" width="200" height="140" viewBox="0 0 200 140"><style>.a{fill:#38C7C9;}.b{fill:#ECEDED;}.c{fill:#D91C5C;}.d{fill:#414042;}.e{fill:#414042;stroke-width:2;stroke:#414042;}.f{fill:#DE653A;}.g{fill:#90278E;}.h{fill:#1FA7E0;}</style><rect x="527.8" y="239" width="200" height="140" class="a"/><rect x="602.8" y="284" width="25" height="12.3" class="b"/><rect x="602.8" y="321.4" width="25" height="12.5" class="b"/><rect x="590.3" y="296.4" width="12.5" height="25.1" class="b"/><rect x="640.3" y="284" width="25" height="12.3" class="b"/><rect x="640.3" y="321.4" width="25" height="12.5" class="b"/><rect x="627.8" y="296.4" width="12.5" height="25.1" class="b"/><rect y="239" width="200" height="140" class="c"/><rect x="93.8" y="296.4" width="12.5" height="37.6" class="b"/><polygon points="68.8 283.9 68.8 334.1 81.3 334.1 81.3 296.4 93.8 296.4 93.8 283.9 " class="b"/><rect x="118.7" y="296.4" width="12.5" height="37.6" class="b"/><rect x="106.2" y="283.9" width="12.5" height="12.5" class="b"/><rect x="-5.8" y="-434.2" width="200" height="200" class="b"/><rect x="260.1" y="-434.2" width="200" height="200" class="b"/><rect x="526" y="-434.2" width="200" height="200" class="b"/><rect x="791.7" y="-434.2" width="200" height="200" class="b"/><rect x="590.2" y="-365.1" width="35.6" height="11.3" class="d"/><rect x="590.2" y="-319.9" width="35.6" height="11.3" class="d"/><rect x="572.4" y="-353.8" width="17.8" height="33.9" class="d"/><rect x="650.1" y="-319.9" width="36.1" height="11.3" class="d"/><rect x="632.4" y="-353.8" width="17.7" height="33.9" class="d"/><rect x="650.1" y="-365.1" width="36.1" height="11.3" class="d"/><rect x="85.3" y="-353.9" width="17.8" height="45.3" class="d"/><polygon points="49.6 -365.2 49.6 -308.6 67.4 -308.6 67.4 -353.9 85.3 -353.9 85.3 -365.2 " class="d"/><rect x="120.9" y="-353.9" width="17.8" height="45.3" class="d"/><rect x="103.1" y="-365.2" width="17.8" height="11.3" class="d"/><rect x="-271.4" y="-434.2" width="200" height="200" class="b"/><polygon points="-178.1 -365.2 -224.6 -365.2 -224.6 -308.9 -206.9 -308.9 -206.9 -331.4 -178.1 -331.4 -178.1 -342.7 -206.9 -342.7 -206.9 -353.9 -178.1 -353.9 " class="d"/><rect x="-153.7" y="-342.4" width="17.7" height="33.8" class="d"/><polygon points="-171.4 -342.7 -153.7 -342.7 -153.7 -365.2 -153.7 -365.2 -171.4 -365.2 " class="d"/><rect x="-136" y="-364.9" width="17.7" height="22.5" class="d"/><rect x="-519.4" y="-434.2" width="200" height="194.7" class="b"/><rect x="855.9" y="-353.8" width="17.8" height="45.2" class="d"/><polygon points="820.3 -365.1 820.3 -308.6 838.1 -308.6 838.1 -353.8 855.9 -353.8 855.9 -365.1 " class="d"/><polygon points="909.2 -353.8 927.5 -353.8 927.5 -365.1 891.4 -365.1 891.4 -365.1 873.7 -365.1 873.7 -353.8 891.4 -353.8 891.4 -308.6 891.4 -308.6 909.2 -308.6 927.5 -308.6 927.5 -319.9 909.2 -319.9 " class="d"/><rect x="927.5" y="-353.8" width="16.2" height="33.9" class="d"/><rect x="950.3" y="-344.1" width="17.8" height="35.5" class="d"/><rect x="950.3" y="-365.1" width="17.8" height="11.3" class="d"/><path d="M360.1-353.9h17M377.4-353.9v44.1h-17.3v-44.1" class="d"/><rect x="342.7" y="-368.3" width="17.3" height="11" class="d"/><path d="M-374.9-354.7h-29.3v-10.5h30.9c0 0 9.9 0.3 9.9 10.2v3 33.3c0 9.9-9.9 10.2-9.9 10.2h-46.8v-40.8h10.5v29.8c0 0.3 0.2 0.5 0.5 0.5h34.6c0.3 0 0.5-0.2 0.5-0.5 0 0 0-31.2 0-32.5C-373.8-352-373.5-354.7-374.9-354.7h-29.3" class="e"/><path d="M-442.3-331.3v11.9h-44.9c-0.3 0-0.5 0.2-0.5 0.5v9.7c0 0.3 0.2 0.5 0.5 0.5h45.5c6 0 9.1-2.7 10.7-5.4 1.6-2.7 1.7-5.4 1.7-5.4l0-0.4c0-0.1 0-0.1 0-0.2v-10.8c0-0.3-0.2-0.5-0.5-0.5H-442.3z" class="e"/><line x1="-442.3" y1="-331.3" x2="-442.4" y2="-331.3" class="e"/><path d="M-442.4-331.3v-10.3c0-0.3-0.2-0.5-0.5-0.5h-34v-11.9h47.1c0.3 0 0.5-0.2 0.5-0.5v-9.7c0-0.3-0.2-0.5-0.5-0.5h-57.4c-0.3 0-0.5 0.2-0.5 0.5l-0.1 22.8c0 9.8 10.7 10.3 10.7 10.3l0.2 0c0 0 0 0 0 0H-442.4z" class="e"/><rect x="-514.5" y="239" width="200" height="140" class="e"/><path d="M-410.5 338.3h-1v-42.8h12.5v30.3h39c0-3.9 0-30.8 0-32l0-0.1c0.1-0.6 0-1.3-0.1-1.6h-35.5v-12.5h37.3c0.1 0 10.9 0.4 10.9 11.2v36.3c0 10.8-10.8 11.2-10.9 11.2H-410.5z" class="b"/><path d="M-432.3 338.3h-47.6c-0.9 0-1.5-0.7-1.5-1.5v-9.7c0-0.9 0.7-1.5 1.5-1.5h46v-8.1h13.5c0.9 0 1.5 0.7 1.5 1.5v7c0 0.1 0 0.2 0 0.3l0 0.3 0 0.1c0 0.1-0.2 3-1.9 5.9C-422.3 335.1-425.6 338.3-432.3 338.3z" class="b"/><path d="M-433.9 317.4h-35.8c-0.2 0-11.7-0.6-11.7-11.3l0.1-24.6c0-0.8 0.7-1.5 1.5-1.5h59.5c0.9 0 1.5 0.7 1.5 1.5v9.7c0 0.9-0.7 1.5-1.5 1.5h-48.1v11.8h33.1c0.9 0 1.5 0.7 1.5 1.5V317.4z" class="b"/><rect x="264" y="239" width="200" height="140" class="f"/><rect x="351.5" y="284" width="12.5" height="12.5" class="b"/><rect x="364" y="296.6" width="12.5" height="37.4" class="b"/><rect x="795.8" y="511" width="200" height="140" class="g"/><polygon points="908.8 568.5 932.5 568.5 932.5 556 883.9 556 883.9 568.5 896.4 568.5 896.4 606.1 896.5 606.1 914.2 606.1 932.5 606.1 932.5 593.7 908.8 593.7 " class="b"/><rect x="932.5" y="568.5" width="12.5" height="25.2" class="b"/><rect x="945" y="556" width="12.5" height="12.5" class="b"/><rect x="957.5" y="568.6" width="12.5" height="37.5" class="b"/><rect x="846.5" y="568.4" width="12.5" height="37.6" class="b"/><polygon points="821.6 555.9 821.6 606.1 834.1 606.1 834.1 568.4 846.5 568.4 846.5 555.9 " class="b"/><rect x="871.5" y="568.4" width="12.5" height="37.6" class="b"/><rect x="859" y="555.9" width="12.5" height="12.5" class="b"/><rect x="1246" y="-140" width="200" height="140" class="g"/><polygon points="1359 -82.5 1382.7 -82.5 1382.7 -95 1334.1 -95 1334.1 -82.5 1346.6 -82.5 1346.6 -44.9 1346.7 -44.9 1364.4 -44.9 1382.7 -44.9 1382.7 -57.2 1359 -57.2 " class="b"/><rect x="1382.7" y="-82.5" width="12.5" height="25.2" class="b"/><rect x="1395.2" y="-95" width="12.5" height="12.5" class="b"/><rect x="1407.7" y="-82.4" width="12.5" height="37.5" class="b"/><rect x="1296.7" y="-82.6" width="12.5" height="37.6" class="b"/><polygon points="1271.8 -95.1 1271.8 -44.9 1284.3 -44.9 1284.3 -82.6 1296.7 -82.6 1296.7 -95.1 " class="b"/><rect x="1321.7" y="-82.6" width="12.5" height="37.6" class="b"/><rect x="1309.2" y="-95.1" width="12.5" height="12.5" class="b"/><rect x="-450.8" y="585.2" width="12.5" height="12.5" class="b"/><rect x="-450.8" y="597.8" width="12.5" height="12.5" class="b"/><rect x="-450.8" y="610.3" width="12.5" height="12.5" class="b"/><rect x="-450.8" y="622.9" width="12.5" height="12.5" class="b"/><rect x="-463.2" y="585.2" width="12.5" height="12.5" class="b"/><rect x="-463.2" y="597.8" width="12.5" height="12.5" class="b"/><rect x="-463.2" y="610.3" width="12.5" height="12.5" class="b"/><rect x="-463.2" y="622.9" width="12.5" height="12.5" class="b"/><rect x="-475.7" y="585.2" width="12.5" height="12.5" class="b"/><rect x="-475.7" y="597.8" width="12.5" height="12.5" class="b"/><rect x="-475.7" y="610.3" width="12.5" height="12.5" class="b"/><rect x="-475.7" y="622.9" width="12.5" height="12.5" class="b"/><rect x="-488.2" y="585.2" width="12.5" height="12.5" class="b"/><rect x="-488.2" y="597.8" width="12.5" height="12.5" class="b"/><rect x="-488.2" y="610.3" width="12.5" height="12.5" class="b"/><rect x="-488.2" y="622.9" width="12.5" height="12.5" class="b"/><rect x="-500.7" y="585.2" width="12.5" height="12.5" class="b"/><rect x="-500.7" y="597.8" width="12.5" height="12.5" class="b"/><rect x="-500.7" y="610.3" width="12.5" height="12.5" class="b"/><rect x="-500.7" y="622.9" width="12.5" height="12.5" class="b"/><rect x="-264.4" y="239" width="200" height="140" class="h"/><polygon points="-170.7 284.2 -208.1 284.2 -208.1 334.1 -195.6 334.1 -195.6 321.6 -183.2 321.6 -183.2 309 -195.6 309 -195.6 296.5 -170.7 296.5 " class="b"/><rect x="-158.2" y="309" width="12.5" height="25.1" class="b"/><rect x="-145.7" y="296.5" width="12.5" height="12.5" class="b"/><rect x="-170.7" y="296.5" width="12.5" height="12.5" class="b"/><rect x="-133.2" y="283.9" width="12.5" height="12.5" class="b"/><rect x="527.8" width="200" height="140" class="b"/><rect x="602.8" y="45.1" width="25" height="12.3" class="a"/><rect x="602.8" y="82.5" width="25" height="12.5" class="a"/><rect x="590.3" y="57.4" width="12.5" height="25.1" class="a"/><rect x="640.3" y="45.1" width="25" height="12.3" class="a"/><rect x="640.3" y="82.5" width="25" height="12.5" class="a"/><rect x="627.8" y="57.4" width="12.5" height="25.1" class="a"/><rect width="200" height="140" class="b"/><rect x="93.8" y="57.4" width="12.5" height="37.6" class="c"/><polygon points="68.8 44.9 68.8 95.1 81.3 95.1 81.3 57.4 93.8 57.4 93.8 44.9 " class="c"/><rect x="118.7" y="57.4" width="12.5" height="37.6" class="c"/><rect x="106.2" y="44.9" width="12.5" height="12.5" class="c"/><rect x="-514.5" width="200" height="140" class="b"/><path d="M-410.5 99.3h-1V56.5h12.5v30.3h39c0-3.9 0-30.8 0-32l0-0.1c0.1-0.6 0-1.3-0.1-1.6h-35.5V40.7h37.3c0.1 0 10.9 0.4 10.9 11.2v36.3c0 10.8-10.8 11.2-10.9 11.2H-410.5z" class="d"/><path d="M-432.3 99.3h-47.6c-0.9 0-1.5-0.7-1.5-1.5v-9.7c0-0.9 0.7-1.5 1.5-1.5h46v-8.1h13.5c0.9 0 1.5 0.7 1.5 1.5v7c0 0.1 0 0.2 0 0.3l0 0.3 0 0.1c0 0.1-0.2 3-1.9 5.9C-422.3 96.1-425.6 99.3-432.3 99.3z" class="d"/><path d="M-433.9 78.4h-35.8c-0.2 0-11.7-0.6-11.7-11.3l0.1-24.6c0-0.8 0.7-1.5 1.5-1.5h59.5c0.9 0 1.5 0.7 1.5 1.5v9.7c0 0.9-0.7 1.5-1.5 1.5h-48.1v11.8h33.1c0.9 0 1.5 0.7 1.5 1.5V78.4z" class="d"/><rect x="264" width="200" height="140" class="b"/><rect x="351.5" y="45" width="12.5" height="12.5" class="f"/><rect x="364" y="57.6" width="12.5" height="37.4" class="f"/><rect x="-264.4" width="200" height="140" class="b"/><polygon points="-170.7 45.2 -208.1 45.2 -208.1 95.1 -195.6 95.1 -195.6 82.6 -183.2 82.6 -183.2 70 -195.6 70 -195.6 57.5 -170.7 57.5 " class="h"/><rect x="-158.2" y="70" width="12.5" height="25.1" class="h"/><rect x="-145.7" y="57.5" width="12.5" height="12.5" class="h"/><rect x="-170.7" y="57.5" width="12.5" height="12.5" class="h"/><rect x="-133.2" y="44.9" width="12.5" height="12.5" class="h"/><text transform="matrix(1 0 0 1 1200.0269 195.8643)"><tspan font-family="'Monoeger0556'" font-size="78.5648" letter-spacing="-25">  P</tspan><tspan x="33.8" font-family="'Monoeger0556'" font-size="78.5648">  G</tspan></text><rect x="798.1" y="239" width="200" height="140" class="g"/><path d="M879.5 309.1v12.5h-12.4v12.5H854.6v-50h24.9l0 12.5h-12.4v12.5H879.5z" class="b"/><path d="M941.7 309.1v25.1h-24.7v-12.5h-12.5v-25.1h12.5v-12.5h24.7v12.5h-24.7v25.1h12.3v-12.6H941.7z" class="b"/><rect x="879.5" y="296.7" width="12.5" height="12.5" class="b"/><rect x="796.9" y="0.1" width="200" height="140" class="b"/><path d="M878.3 70.3v12.5h-12.4v12.5H853.4V45.3h24.9l0 12.5h-12.4v12.5H878.3z" class="g"/><path d="M940.5 70.3v25.1h-24.7V82.8h-12.5V57.8h12.5V45.3h24.7v12.5h-24.7v25.1H928V70.3H940.5z" class="g"/><rect x="878.3" y="57.8" width="12.5" height="12.5" class="g"/><rect x="1270.9" y="239" width="200" height="140" class="g"/><path d="M1375.9 309.1v12.5h-12.4v12.5h-12.5v-50h24.9l0 12.5h-12.4v12.5H1375.9z" class="b"/><rect x="1378.3" y="296.7" width="12.5" height="12.5" class="b"/><rect x="-39.5" y="466.8" width="12.5" height="12.5"/><rect x="-112.5" y="413.7" width="12.5" height="12.5"/></svg>