<svg xmlns="http://www.w3.org/2000/svg" width="200" height="140" viewBox="0 0 200 140"><style>.a{fill:#38C7C9;}.b{fill:#ECEDED;}.c{fill:#D91C5C;}.d{fill:#414042;}.e{fill:#414042;stroke-width:2;stroke:#414042;}.f{fill:#DE653A;}.g{fill:#90278E;}.h{fill:#1FA7E0;}</style><rect x="263.8" y="239" width="200" height="140" class="a"/><rect x="338.8" y="284" width="25" height="12.3" class="b"/><rect x="338.8" y="321.4" width="25" height="12.5" class="b"/><rect x="326.3" y="296.4" width="12.5" height="25.1" class="b"/><rect x="376.3" y="284" width="25" height="12.3" class="b"/><rect x="376.3" y="321.4" width="25" height="12.5" class="b"/><rect x="363.8" y="296.4" width="12.5" height="25.1" class="b"/><rect x="-264" y="239" width="200" height="140" class="c"/><rect x="-170.2" y="296.4" width="12.5" height="37.6" class="b"/><polygon points="-195.2 283.9 -195.2 334.1 -182.7 334.1 -182.7 296.4 -170.2 296.4 -170.2 283.9 " class="b"/><rect x="-145.3" y="296.4" width="12.5" height="37.6" class="b"/><rect x="-157.7" y="283.9" width="12.5" height="12.5" class="b"/><rect x="-269.8" y="-434.2" width="200" height="200" class="b"/><rect x="-3.9" y="-434.2" width="200" height="200" class="b"/><rect x="262" y="-434.2" width="200" height="200" class="b"/><rect x="527.8" y="-434.2" width="200" height="200" class="b"/><rect x="326.2" y="-365.1" width="35.6" height="11.3" class="d"/><rect x="326.2" y="-319.9" width="35.6" height="11.3" class="d"/><rect x="308.4" y="-353.8" width="17.8" height="33.9" class="d"/><rect x="386.1" y="-319.9" width="36.1" height="11.3" class="d"/><rect x="368.4" y="-353.8" width="17.7" height="33.9" class="d"/><rect x="386.1" y="-365.1" width="36.1" height="11.3" class="d"/><rect x="-178.7" y="-353.9" width="17.8" height="45.3" class="d"/><polygon points="-214.4 -365.2 -214.4 -308.6 -196.6 -308.6 -196.6 -353.9 -178.7 -353.9 -178.7 -365.2 " class="d"/><rect x="-143.1" y="-353.9" width="17.8" height="45.3" class="d"/><rect x="-160.9" y="-365.2" width="17.8" height="11.3" class="d"/><rect x="-535.3" y="-434.2" width="200" height="200" class="b"/><polygon points="-442.1 -365.2 -488.6 -365.2 -488.6 -308.9 -470.9 -308.9 -470.9 -331.4 -442.1 -331.4 -442.1 -342.7 -470.9 -342.7 -470.9 -353.9 -442.1 -353.9 " class="d"/><rect x="-417.7" y="-342.4" width="17.7" height="33.8" class="d"/><polygon points="-435.4 -342.7 -417.7 -342.7 -417.7 -365.2 -417.7 -365.2 -435.4 -365.2 " class="d"/><rect x="-400" y="-364.9" width="17.7" height="22.5" class="d"/><rect x="-783.3" y="-434.2" width="200" height="194.7" class="b"/><rect x="591.9" y="-353.8" width="17.8" height="45.2" class="d"/><polygon points="556.3 -365.1 556.3 -308.6 574.1 -308.6 574.1 -353.8 591.9 -353.8 591.9 -365.1 " class="d"/><polygon points="645.2 -353.8 663.5 -353.8 663.5 -365.1 627.5 -365.1 627.4 -365.1 609.7 -365.1 609.7 -353.8 627.4 -353.8 627.4 -308.6 627.5 -308.6 645.2 -308.6 663.5 -308.6 663.5 -319.9 645.2 -319.9 " class="d"/><rect x="663.5" y="-353.8" width="16.2" height="33.9" class="d"/><rect x="686.3" y="-344.1" width="17.8" height="35.5" class="d"/><rect x="686.3" y="-365.1" width="17.8" height="11.3" class="d"/><path d="M96.1-353.9h17M113.5-353.9v44.1h-17.3v-44.1" class="d"/><rect x="78.8" y="-368.3" width="17.3" height="11" class="d"/><path d="M-638.9-354.7h-29.3v-10.5h30.9c0 0 9.9 0.3 9.9 10.2v3 33.3c0 9.9-9.9 10.2-9.9 10.2h-46.8v-40.8h10.5v29.8c0 0.3 0.2 0.5 0.5 0.5h34.6c0.3 0 0.5-0.2 0.5-0.5 0 0 0-31.2 0-32.5C-637.8-352-637.5-354.7-638.9-354.7h-29.3" class="e"/><path d="M-706.3-331.3v11.9h-44.9c-0.3 0-0.5 0.2-0.5 0.5v9.7c0 0.3 0.2 0.5 0.5 0.5h45.5c6 0 9.1-2.7 10.7-5.4 1.6-2.7 1.7-5.4 1.7-5.4l0-0.4c0-0.1 0-0.1 0-0.2v-10.8c0-0.3-0.2-0.5-0.5-0.5H-706.3z" class="e"/><line x1="-706.3" y1="-331.3" x2="-706.3" y2="-331.3" class="e"/><path d="M-706.3-331.3v-10.3c0-0.3-0.2-0.5-0.5-0.5h-34v-11.9h47.1c0.3 0 0.5-0.2 0.5-0.5v-9.7c0-0.3-0.2-0.5-0.5-0.5h-57.4c-0.3 0-0.5 0.2-0.5 0.5l-0.1 22.8c0 9.8 10.7 10.3 10.7 10.3l0.2 0c0 0 0 0 0 0H-706.3z" class="e"/><rect x="-778.5" y="239" width="200" height="140" class="e"/><path d="M-674.5 338.3h-1v-42.8h12.5v30.3h39c0-3.9 0-30.8 0-32l0-0.1c0.1-0.6 0-1.3-0.1-1.6h-35.5v-12.5h37.3c0.1 0 10.9 0.4 10.9 11.2v36.3c0 10.8-10.8 11.2-10.9 11.2H-674.5z" class="b"/><path d="M-696.3 338.3h-47.6c-0.9 0-1.5-0.7-1.5-1.5v-9.7c0-0.9 0.7-1.5 1.5-1.5h46v-8.1h13.5c0.9 0 1.5 0.7 1.5 1.5v7c0 0.1 0 0.2 0 0.3l0 0.3 0 0.1c0 0.1-0.2 3-1.9 5.9C-686.3 335.1-689.6 338.3-696.3 338.3z" class="b"/><path d="M-697.9 317.4h-35.8c-0.2 0-11.7-0.6-11.7-11.3l0.1-24.6c0-0.8 0.7-1.5 1.5-1.5h59.5c0.9 0 1.5 0.7 1.5 1.5v9.7c0 0.9-0.7 1.5-1.5 1.5h-48.1v11.8h33.1c0.9 0 1.5 0.7 1.5 1.5V317.4z" class="b"/><rect y="239" width="200" height="140" class="f"/><rect x="87.5" y="284" width="12.5" height="12.5" class="b"/><rect x="100" y="296.6" width="12.5" height="37.4" class="b"/><rect x="531.8" y="511" width="200" height="140" class="g"/><polygon points="644.9 568.5 668.5 568.5 668.5 556 619.9 556 619.9 568.5 632.4 568.5 632.4 606.1 632.5 606.1 650.3 606.1 668.5 606.1 668.5 593.7 644.9 593.7 " class="b"/><rect x="668.5" y="568.5" width="12.5" height="25.2" class="b"/><rect x="681" y="556" width="12.5" height="12.5" class="b"/><rect x="693.5" y="568.6" width="12.5" height="37.5" class="b"/><rect x="582.6" y="568.4" width="12.5" height="37.6" class="b"/><polygon points="557.6 555.9 557.6 606.1 570.1 606.1 570.1 568.4 582.6 568.4 582.6 555.9 " class="b"/><rect x="607.5" y="568.4" width="12.5" height="37.6" class="b"/><rect x="595" y="555.9" width="12.5" height="12.5" class="b"/><rect x="982" y="-140" width="200" height="140" class="g"/><polygon points="1095.1 -82.5 1118.7 -82.5 1118.7 -95 1070.1 -95 1070.1 -82.5 1082.6 -82.5 1082.6 -44.9 1082.7 -44.9 1100.5 -44.9 1118.7 -44.9 1118.7 -57.2 1095.1 -57.2 " class="b"/><rect x="1118.7" y="-82.5" width="12.5" height="25.2" class="b"/><rect x="1131.2" y="-95" width="12.5" height="12.5" class="b"/><rect x="1143.7" y="-82.4" width="12.5" height="37.5" class="b"/><rect x="1032.8" y="-82.6" width="12.5" height="37.6" class="b"/><polygon points="1007.8 -95.1 1007.8 -44.9 1020.3 -44.9 1020.3 -82.6 1032.8 -82.6 1032.8 -95.1 " class="b"/><rect x="1057.7" y="-82.6" width="12.5" height="37.6" class="b"/><rect x="1045.2" y="-95.1" width="12.5" height="12.5" class="b"/><rect x="-714.7" y="585.2" width="12.5" height="12.5" class="b"/><rect x="-714.7" y="597.8" width="12.5" height="12.5" class="b"/><rect x="-714.7" y="610.3" width="12.5" height="12.5" class="b"/><rect x="-714.7" y="622.9" width="12.5" height="12.5" class="b"/><rect x="-727.2" y="585.2" width="12.5" height="12.5" class="b"/><rect x="-727.2" y="597.8" width="12.5" height="12.5" class="b"/><rect x="-727.2" y="610.3" width="12.5" height="12.5" class="b"/><rect x="-727.2" y="622.9" width="12.5" height="12.5" class="b"/><rect x="-739.7" y="585.2" width="12.5" height="12.5" class="b"/><rect x="-739.7" y="597.8" width="12.5" height="12.5" class="b"/><rect x="-739.7" y="610.3" width="12.5" height="12.5" class="b"/><rect x="-739.7" y="622.9" width="12.5" height="12.5" class="b"/><rect x="-752.2" y="585.2" width="12.5" height="12.5" class="b"/><rect x="-752.2" y="597.8" width="12.5" height="12.5" class="b"/><rect x="-752.2" y="610.3" width="12.5" height="12.5" class="b"/><rect x="-752.2" y="622.9" width="12.5" height="12.5" class="b"/><rect x="-764.7" y="585.2" width="12.5" height="12.5" class="b"/><rect x="-764.7" y="597.8" width="12.5" height="12.5" class="b"/><rect x="-764.7" y="610.3" width="12.5" height="12.5" class="b"/><rect x="-764.7" y="622.9" width="12.5" height="12.5" class="b"/><rect x="-528.4" y="239" width="200" height="140" class="h"/><polygon points="-434.7 284.2 -472.1 284.2 -472.1 334.1 -459.6 334.1 -459.6 321.6 -447.1 321.6 -447.1 309 -459.6 309 -459.6 296.5 -434.7 296.5 " class="b"/><rect x="-422.2" y="309" width="12.5" height="25.1" class="b"/><rect x="-409.7" y="296.5" width="12.5" height="12.5" class="b"/><rect x="-434.7" y="296.5" width="12.5" height="12.5" class="b"/><rect x="-397.2" y="283.9" width="12.5" height="12.5" class="b"/><rect x="263.8" width="200" height="140" class="b"/><rect x="338.8" y="45.1" width="25" height="12.3" class="a"/><rect x="338.8" y="82.5" width="25" height="12.5" class="a"/><rect x="326.3" y="57.4" width="12.5" height="25.1" class="a"/><rect x="376.3" y="45.1" width="25" height="12.3" class="a"/><rect x="376.3" y="82.5" width="25" height="12.5" class="a"/><rect x="363.8" y="57.4" width="12.5" height="25.1" class="a"/><rect x="-264" width="200" height="140" class="b"/><rect x="-170.2" y="57.4" width="12.5" height="37.6" class="c"/><polygon points="-195.2 44.9 -195.2 95.1 -182.7 95.1 -182.7 57.4 -170.2 57.4 -170.2 44.9 " class="c"/><rect x="-145.3" y="57.4" width="12.5" height="37.6" class="c"/><rect x="-157.7" y="44.9" width="12.5" height="12.5" class="c"/><rect x="-778.5" width="200" height="140" class="b"/><path d="M-674.5 99.3h-1V56.5h12.5v30.3h39c0-3.9 0-30.8 0-32l0-0.1c0.1-0.6 0-1.3-0.1-1.6h-35.5V40.7h37.3c0.1 0 10.9 0.4 10.9 11.2v36.3c0 10.8-10.8 11.2-10.9 11.2H-674.5z" class="d"/><path d="M-696.3 99.3h-47.6c-0.9 0-1.5-0.7-1.5-1.5v-9.7c0-0.9 0.7-1.5 1.5-1.5h46v-8.1h13.5c0.9 0 1.5 0.7 1.5 1.5v7c0 0.1 0 0.2 0 0.3l0 0.3 0 0.1c0 0.1-0.2 3-1.9 5.9C-686.3 96.1-689.6 99.3-696.3 99.3z" class="d"/><path d="M-697.9 78.4h-35.8c-0.2 0-11.7-0.6-11.7-11.3l0.1-24.6c0-0.8 0.7-1.5 1.5-1.5h59.5c0.9 0 1.5 0.7 1.5 1.5v9.7c0 0.9-0.7 1.5-1.5 1.5h-48.1v11.8h33.1c0.9 0 1.5 0.7 1.5 1.5V78.4z" class="d"/><rect width="200" height="140" class="b"/><rect x="87.5" y="45" width="12.5" height="12.5" class="f"/><rect x="100" y="57.6" width="12.5" height="37.4" class="f"/><rect x="-528.4" width="200" height="140" class="b"/><polygon points="-434.7 45.2 -472.1 45.2 -472.1 95.1 -459.6 95.1 -459.6 82.6 -447.1 82.6 -447.1 70 -459.6 70 -459.6 57.5 -434.7 57.5 " class="h"/><rect x="-422.2" y="70" width="12.5" height="25.1" class="h"/><rect x="-409.7" y="57.5" width="12.5" height="12.5" class="h"/><rect x="-434.7" y="57.5" width="12.5" height="12.5" class="h"/><rect x="-397.2" y="44.9" width="12.5" height="12.5" class="h"/><text transform="matrix(1 0 0 1 936.042 195.8643)"><tspan font-family="'Monoeger0556'" font-size="78.5648" letter-spacing="-25">  P</tspan><tspan x="33.8" font-family="'Monoeger0556'" font-size="78.5648">  G</tspan></text><rect x="534.1" y="239" width="200" height="140" class="g"/><path d="M615.5 309.1v12.5H603.1v12.5h-12.5v-50h24.9l0 12.5h-12.4v12.5H615.5z" class="b"/><path d="M677.7 309.1v25.1h-24.7v-12.5h-12.5v-25.1h12.5v-12.5h24.7v12.5h-24.7v25.1h12.3v-12.6H677.7z" class="b"/><rect x="615.5" y="296.7" width="12.5" height="12.5" class="b"/><rect x="532.9" y="0.1" width="200" height="140" class="b"/><path d="M614.3 70.3v12.5H601.9v12.5h-12.5V45.3h24.9l0 12.5h-12.4v12.5H614.3z" class="g"/><path d="M676.5 70.3v25.1h-24.7V82.8h-12.5V57.8h12.5V45.3h24.7v12.5h-24.7v25.1h12.3V70.3H676.5z" class="g"/><rect x="614.3" y="57.8" width="12.5" height="12.5" class="g"/><rect x="1006.9" y="239" width="200" height="140" class="g"/><path d="M1111.9 309.1v12.5h-12.4v12.5h-12.5v-50h24.9l0 12.5h-12.4v12.5H1111.9z" class="b"/><rect x="1114.3" y="296.7" width="12.5" height="12.5" class="b"/><rect x="-303.5" y="466.8" width="12.5" height="12.5"/><rect x="-376.5" y="413.7" width="12.5" height="12.5"/></svg>