<svg xmlns="http://www.w3.org/2000/svg" width="200" height="140" viewBox="0 0 200 140"><style>.a{fill:#38C7C9;}.b{fill:#ECEDED;}.c{fill:#D91C5C;}.d{fill:#414042;}.e{fill:#414042;stroke-width:2;stroke:#414042;}.f{fill:#DE653A;}.g{fill:#90278E;}.h{fill:#1FA7E0;}</style><rect width="200" height="140" class="a"/><rect x="75" y="45.1" width="25" height="12.3" class="b"/><rect x="75" y="82.5" width="25" height="12.5" class="b"/><rect x="62.6" y="57.4" width="12.5" height="25.1" class="b"/><rect x="112.5" y="45.1" width="25" height="12.3" class="b"/><rect x="112.5" y="82.5" width="25" height="12.5" class="b"/><rect x="100" y="57.4" width="12.5" height="25.1" class="b"/><rect x="-527.8" width="200" height="140" class="c"/><rect x="-434" y="57.4" width="12.5" height="37.6" class="b"/><polygon points="-459 44.9 -459 95.1 -446.5 95.1 -446.5 57.4 -434 57.4 -434 44.9 " class="b"/><rect x="-409" y="57.4" width="12.5" height="37.6" class="b"/><rect x="-421.5" y="44.9" width="12.5" height="12.5" class="b"/><rect x="-533.6" y="-673.2" width="200" height="200" class="b"/><rect x="-267.7" y="-673.2" width="200" height="200" class="b"/><rect x="-1.8" y="-673.2" width="200" height="200" class="b"/><rect x="264" y="-673.2" width="200" height="200" class="b"/><rect x="62.4" y="-604.1" width="35.6" height="11.3" class="d"/><rect x="62.4" y="-558.9" width="35.6" height="11.3" class="d"/><rect x="44.7" y="-592.8" width="17.8" height="33.9" class="d"/><rect x="122.4" y="-558.9" width="36.1" height="11.3" class="d"/><rect x="104.7" y="-592.8" width="17.7" height="33.9" class="d"/><rect x="122.4" y="-604.1" width="36.1" height="11.3" class="d"/><rect x="-442.5" y="-592.9" width="17.8" height="45.3" class="d"/><polygon points="-478.2 -604.2 -478.2 -547.6 -460.3 -547.6 -460.3 -592.9 -442.5 -592.9 -442.5 -604.2 " class="d"/><rect x="-406.9" y="-592.9" width="17.8" height="45.3" class="d"/><rect x="-424.7" y="-604.2" width="17.8" height="11.3" class="d"/><rect x="-799.1" y="-673.2" width="200" height="200" class="b"/><polygon points="-705.9 -604.2 -752.4 -604.2 -752.4 -547.9 -734.7 -547.9 -734.7 -570.4 -705.9 -570.4 -705.9 -581.7 -734.7 -581.7 -734.7 -592.9 -705.9 -592.9 " class="d"/><rect x="-681.5" y="-581.4" width="17.7" height="33.8" class="d"/><polygon points="-699.2 -581.7 -681.5 -581.7 -681.5 -604.2 -681.5 -604.2 -699.2 -604.2 " class="d"/><rect x="-663.8" y="-603.9" width="17.7" height="22.5" class="d"/><rect x="-1047.1" y="-673.2" width="200" height="194.7" class="b"/><rect x="328.1" y="-592.8" width="17.8" height="45.2" class="d"/><polygon points="292.5 -604.1 292.5 -547.6 310.3 -547.6 310.3 -592.8 328.1 -592.8 328.1 -604.1 " class="d"/><polygon points="381.4 -592.8 399.7 -592.8 399.7 -604.1 363.7 -604.1 363.6 -604.1 345.9 -604.1 345.9 -592.8 363.6 -592.8 363.6 -547.6 363.7 -547.6 381.4 -547.6 399.7 -547.6 399.7 -558.9 381.4 -558.9 " class="d"/><rect x="399.7" y="-592.8" width="16.2" height="33.9" class="d"/><rect x="422.5" y="-583.1" width="17.8" height="35.5" class="d"/><rect x="422.5" y="-604.1" width="17.8" height="11.3" class="d"/><path d="M-167.7-592.9h17M-150.3-592.9v44.1h-17.3v-44.1" class="d"/><rect x="-185" y="-607.3" width="17.3" height="11" class="d"/><path d="M-902.7-593.7h-29.3v-10.5h30.9c0 0 9.9 0.3 9.9 10.2v3 33.3c0 9.9-9.9 10.2-9.9 10.2h-46.8v-40.8h10.5v29.8c0 0.3 0.2 0.5 0.5 0.5h34.6c0.3 0 0.5-0.2 0.5-0.5 0 0 0-31.2 0-32.5C-901.6-591-901.3-593.7-902.7-593.7h-29.3" class="e"/><path d="M-970.1-570.3v11.9h-44.9c-0.3 0-0.5 0.2-0.5 0.5v9.7c0 0.3 0.2 0.5 0.5 0.5h45.5c6 0 9.1-2.7 10.7-5.4 1.6-2.7 1.7-5.4 1.7-5.4l0-0.4c0-0.1 0-0.1 0-0.2v-10.8c0-0.3-0.2-0.5-0.5-0.5H-970.1z" class="e"/><line x1="-970.1" y1="-570.3" x2="-970.1" y2="-570.3" class="e"/><path d="M-970.1-570.3v-10.3c0-0.3-0.2-0.5-0.5-0.5h-34v-11.9h47.1c0.3 0 0.5-0.2 0.5-0.5v-9.7c0-0.3-0.2-0.5-0.5-0.5h-57.4c-0.3 0-0.5 0.2-0.5 0.5l-0.1 22.8c0 9.8 10.7 10.3 10.7 10.3l0.2 0c0 0 0 0 0 0H-970.1z" class="e"/><rect x="-1042.3" width="200" height="140" class="e"/><path d="M-938.3 99.3h-1V56.5h12.5v30.3h39c0-3.9 0-30.8 0-32l0-0.1c0.1-0.6 0-1.3-0.1-1.6h-35.5V40.7h37.3c0.1 0 10.9 0.4 10.9 11.2v36.3c0 10.8-10.8 11.2-10.9 11.2H-938.3z" class="b"/><path d="M-960.1 99.3h-47.6c-0.9 0-1.5-0.7-1.5-1.5v-9.7c0-0.9 0.7-1.5 1.5-1.5h46v-8.1h13.5c0.9 0 1.5 0.7 1.5 1.5v7c0 0.1 0 0.2 0 0.3l0 0.3 0 0.1c0 0.1-0.2 3-1.9 5.9C-950.1 96.1-953.4 99.3-960.1 99.3z" class="b"/><path d="M-961.6 78.4h-35.8c-0.2 0-11.7-0.6-11.7-11.3l0.1-24.6c0-0.8 0.7-1.5 1.5-1.5h59.5c0.9 0 1.5 0.7 1.5 1.5v9.7c0 0.9-0.7 1.5-1.5 1.5h-48.1v11.8h33.1c0.9 0 1.5 0.7 1.5 1.5V78.4z" class="b"/><rect x="-263.8" width="200" height="140" class="f"/><rect x="-176.3" y="45" width="12.5" height="12.5" class="b"/><rect x="-163.8" y="57.6" width="12.5" height="37.4" class="b"/><rect x="268" y="272" width="200" height="140" class="g"/><polygon points="381.1 329.5 404.7 329.5 404.7 317 356.1 317 356.1 329.5 368.6 329.5 368.6 367.1 368.7 367.1 386.5 367.1 404.7 367.1 404.7 354.8 381.1 354.8 " class="b"/><rect x="404.7" y="329.5" width="12.5" height="25.2" class="b"/><rect x="417.2" y="317" width="12.5" height="12.5" class="b"/><rect x="429.7" y="329.6" width="12.5" height="37.5" class="b"/><rect x="318.8" y="329.4" width="12.5" height="37.6" class="b"/><polygon points="293.8 316.9 293.8 367.1 306.3 367.1 306.3 329.4 318.8 329.4 318.8 316.9 " class="b"/><rect x="343.7" y="329.4" width="12.5" height="37.6" class="b"/><rect x="331.2" y="316.9" width="12.5" height="12.5" class="b"/><rect x="718.2" y="-379" width="200" height="140" class="g"/><polygon points="831.3 -321.5 854.9 -321.5 854.9 -334 806.3 -334 806.3 -321.5 818.8 -321.5 818.8 -283.9 818.9 -283.9 836.7 -283.9 854.9 -283.9 854.9 -296.2 831.3 -296.2 " class="b"/><rect x="854.9" y="-321.5" width="12.5" height="25.2" class="b"/><rect x="867.4" y="-334" width="12.5" height="12.5" class="b"/><rect x="879.9" y="-321.4" width="12.5" height="37.5" class="b"/><rect x="769" y="-321.6" width="12.5" height="37.6" class="b"/><polygon points="744 -334.1 744 -283.9 756.5 -283.9 756.5 -321.6 769 -321.6 769 -334.1 " class="b"/><rect x="793.9" y="-321.6" width="12.5" height="37.6" class="b"/><rect x="781.4" y="-334.1" width="12.5" height="12.5" class="b"/><rect x="-1272.5" y="346.2" width="12.5" height="12.5" class="b"/><rect x="-1272.5" y="358.8" width="12.5" height="12.5" class="b"/><rect x="-1272.5" y="371.3" width="12.5" height="12.5" class="b"/><rect x="-1272.5" y="383.9" width="12.5" height="12.5" class="b"/><rect x="-1285" y="346.2" width="12.5" height="12.5" class="b"/><rect x="-1285" y="358.8" width="12.5" height="12.5" class="b"/><rect x="-1285" y="371.3" width="12.5" height="12.5" class="b"/><rect x="-1285" y="383.9" width="12.5" height="12.5" class="b"/><rect x="-1297.5" y="346.2" width="12.5" height="12.5" class="b"/><rect x="-1297.5" y="358.8" width="12.5" height="12.5" class="b"/><rect x="-1297.5" y="371.3" width="12.5" height="12.5" class="b"/><rect x="-1297.5" y="383.9" width="12.5" height="12.5" class="b"/><rect x="-1310" y="346.2" width="12.5" height="12.5" class="b"/><rect x="-1310" y="358.8" width="12.5" height="12.5" class="b"/><rect x="-1310" y="371.3" width="12.5" height="12.5" class="b"/><rect x="-1310" y="383.9" width="12.5" height="12.5" class="b"/><rect x="-1322.5" y="346.2" width="12.5" height="12.5" class="b"/><rect x="-1322.5" y="358.8" width="12.5" height="12.5" class="b"/><rect x="-1322.5" y="371.3" width="12.5" height="12.5" class="b"/><rect x="-1322.5" y="383.9" width="12.5" height="12.5" class="b"/><rect x="-792.2" width="200" height="140" class="h"/><polygon points="-698.4 45.2 -735.9 45.2 -735.9 95.1 -723.4 95.1 -723.4 82.6 -710.9 82.6 -710.9 70 -723.4 70 -723.4 57.5 -698.4 57.5 " class="b"/><rect x="-686" y="70" width="12.5" height="25.1" class="b"/><rect x="-673.5" y="57.5" width="12.5" height="12.5" class="b"/><rect x="-698.4" y="57.5" width="12.5" height="12.5" class="b"/><rect x="-661" y="44.9" width="12.5" height="12.5" class="b"/><rect y="-239" width="200" height="140" class="b"/><rect x="75" y="-193.9" width="25" height="12.3" class="a"/><rect x="75" y="-156.5" width="25" height="12.5" class="a"/><rect x="62.6" y="-181.6" width="12.5" height="25.1" class="a"/><rect x="112.5" y="-193.9" width="25" height="12.3" class="a"/><rect x="112.5" y="-156.5" width="25" height="12.5" class="a"/><rect x="100" y="-181.6" width="12.5" height="25.1" class="a"/><rect x="-527.8" y="-239" width="200" height="140" class="b"/><rect x="-434" y="-181.6" width="12.5" height="37.6" class="c"/><polygon points="-459 -194.1 -459 -143.9 -446.5 -143.9 -446.5 -181.6 -434 -181.6 -434 -194.1 " class="c"/><rect x="-409" y="-181.6" width="12.5" height="37.6" class="c"/><rect x="-421.5" y="-194.1" width="12.5" height="12.5" class="c"/><rect x="-1042.3" y="-239" width="200" height="140" class="b"/><path d="M-938.3-139.7h-1v-42.8h12.5v30.3h39c0-3.9 0-30.8 0-32l0-0.1c0.1-0.6 0-1.3-0.1-1.6h-35.5v-12.5h37.3c0.1 0 10.9 0.4 10.9 11.2v36.3c0 10.8-10.8 11.2-10.9 11.2H-938.3z" class="e"/><path d="M-960.1-139.7h-47.6c-0.9 0-1.5-0.7-1.5-1.5v-9.7c0-0.9 0.7-1.5 1.5-1.5h46v-8.1h13.5c0.9 0 1.5 0.7 1.5 1.5v7c0 0.1 0 0.2 0 0.3l0 0.3 0 0.1c0 0.1-0.2 3-1.9 5.9C-950.1-142.9-953.4-139.7-960.1-139.7z" class="e"/><path d="M-961.6-160.6h-35.8c-0.2 0-11.7-0.6-11.7-11.3l0.1-24.6c0-0.8 0.7-1.5 1.5-1.5h59.5c0.9 0 1.5 0.7 1.5 1.5v9.7c0 0.9-0.7 1.5-1.5 1.5h-48.1v11.8h33.1c0.9 0 1.5 0.7 1.5 1.5V-160.6z" class="e"/><rect x="-263.8" y="-239" width="200" height="140" class="b"/><rect x="-176.3" y="-194" width="12.5" height="12.5" class="f"/><rect x="-163.8" y="-181.4" width="12.5" height="37.4" class="f"/><rect x="268" y="-239" width="200" height="140" class="b"/><polygon points="381.1 -181.5 404.7 -181.5 404.7 -194 356.1 -194 356.1 -181.5 368.6 -181.5 368.6 -143.9 368.7 -143.9 386.5 -143.9 404.7 -143.9 404.7 -156.2 381.1 -156.2 " class="g"/><rect x="404.7" y="-181.5" width="12.5" height="25.2" class="g"/><rect x="417.2" y="-194" width="12.5" height="12.5" class="g"/><rect x="429.7" y="-181.4" width="12.5" height="37.5" class="g"/><rect x="318.8" y="-181.6" width="12.5" height="37.6" class="g"/><polygon points="293.8 -194.1 293.8 -143.9 306.3 -143.9 306.3 -181.6 318.8 -181.6 318.8 -194.1 " class="g"/><rect x="343.7" y="-181.6" width="12.5" height="37.6" class="g"/><rect x="331.2" y="-194.1" width="12.5" height="12.5" class="g"/><rect x="-792.2" y="-239" width="200" height="140" class="b"/><polygon points="-698.4 -193.8 -735.9 -193.8 -735.9 -143.9 -723.4 -143.9 -723.4 -156.4 -710.9 -156.4 -710.9 -169 -723.4 -169 -723.4 -181.5 -698.4 -181.5 " class="h"/><rect x="-686" y="-169" width="12.5" height="25.1" class="h"/><rect x="-673.5" y="-181.5" width="12.5" height="12.5" class="h"/><rect x="-698.4" y="-181.5" width="12.5" height="12.5" class="h"/><rect x="-661" y="-194.1" width="12.5" height="12.5" class="h"/><rect x="270.3" width="200" height="140" class="g"/><path d="M351.7 70.2v12.5H339.3v12.5h-12.5V45.2h24.9l0 12.5h-12.4V70.2H351.7z" class="b"/><path d="M413.9 70.1V95.2h-24.7V82.7h-12.5V57.6h12.5V45.2h24.7v12.5h-24.7v25.1h12.3V70.1H413.9z" class="b"/><text transform="matrix(1 0 0 1 672.252 -43.1235)"><tspan font-family="'Monoeger0556'" font-size="78.5648" letter-spacing="-25">  P</tspan><tspan x="33.8" font-family="'Monoeger0556'" font-size="78.5648">  G</tspan></text><rect x="354" y="57.7" width="12.5" height="12.5" class="b"/><rect x="743.1" width="200" height="140" class="g"/><path d="M848.1 70.2v12.5h-12.4v12.5h-12.5V45.2h24.9l0 12.5h-12.4V70.2H848.1z" class="b"/><rect x="850.5" y="57.7" width="12.5" height="12.5" class="b"/><rect x="-567.3" y="227.8" width="12.5" height="12.5"/><rect x="-640.3" y="174.7" width="12.5" height="12.5"/></svg>