<svg xmlns="http://www.w3.org/2000/svg" width="200" height="140" viewBox="0 0 200 140"><style>.a{fill:#38C7C9;}.b{fill:#ECEDED;}.c{fill:#D91C5C;}.d{fill:#414042;}.e{fill:#414042;stroke-width:2;stroke:#414042;}.f{fill:#DE653A;}.g{fill:#90278E;}.h{fill:#1FA7E0;}</style><rect x="527.8" width="200" height="140" class="a"/><rect x="602.8" y="45.1" width="25" height="12.3" class="b"/><rect x="602.8" y="82.5" width="25" height="12.5" class="b"/><rect x="590.3" y="57.4" width="12.5" height="25.1" class="b"/><rect x="640.3" y="45.1" width="25" height="12.3" class="b"/><rect x="640.3" y="82.5" width="25" height="12.5" class="b"/><rect x="627.8" y="57.4" width="12.5" height="25.1" class="b"/><rect width="200" height="140" class="c"/><rect x="93.8" y="57.4" width="12.5" height="37.6" class="b"/><polygon points="68.8 44.9 68.8 95.1 81.3 95.1 81.3 57.4 93.8 57.4 93.8 44.9 " class="b"/><rect x="118.7" y="57.4" width="12.5" height="37.6" class="b"/><rect x="106.2" y="44.9" width="12.5" height="12.5" class="b"/><rect x="-5.8" y="-673.2" width="200" height="200" class="b"/><rect x="260.1" y="-673.2" width="200" height="200" class="b"/><rect x="526" y="-673.2" width="200" height="200" class="b"/><rect x="791.7" y="-673.2" width="200" height="200" class="b"/><rect x="590.2" y="-604.1" width="35.6" height="11.3" class="d"/><rect x="590.2" y="-558.9" width="35.6" height="11.3" class="d"/><rect x="572.4" y="-592.8" width="17.8" height="33.9" class="d"/><rect x="650.1" y="-558.9" width="36.1" height="11.3" class="d"/><rect x="632.4" y="-592.8" width="17.7" height="33.9" class="d"/><rect x="650.1" y="-604.1" width="36.1" height="11.3" class="d"/><rect x="85.3" y="-592.9" width="17.8" height="45.3" class="d"/><polygon points="49.6 -604.2 49.6 -547.6 67.4 -547.6 67.4 -592.9 85.3 -592.9 85.3 -604.2 " class="d"/><rect x="120.9" y="-592.9" width="17.8" height="45.3" class="d"/><rect x="103.1" y="-604.2" width="17.8" height="11.3" class="d"/><rect x="-271.4" y="-673.2" width="200" height="200" class="b"/><polygon points="-178.1 -604.2 -224.6 -604.2 -224.6 -547.9 -206.9 -547.9 -206.9 -570.4 -178.1 -570.4 -178.1 -581.7 -206.9 -581.7 -206.9 -592.9 -178.1 -592.9 " class="d"/><rect x="-153.7" y="-581.4" width="17.7" height="33.8" class="d"/><polygon points="-171.4 -581.7 -153.7 -581.7 -153.7 -604.2 -153.7 -604.2 -171.4 -604.2 " class="d"/><rect x="-136" y="-603.9" width="17.7" height="22.5" class="d"/><rect x="-519.4" y="-673.2" width="200" height="194.7" class="b"/><rect x="855.9" y="-592.8" width="17.8" height="45.2" class="d"/><polygon points="820.3 -604.1 820.3 -547.6 838.1 -547.6 838.1 -592.8 855.9 -592.8 855.9 -604.1 " class="d"/><polygon points="909.2 -592.8 927.5 -592.8 927.5 -604.1 891.4 -604.1 891.4 -604.1 873.7 -604.1 873.7 -592.8 891.4 -592.8 891.4 -547.6 891.4 -547.6 909.2 -547.6 927.5 -547.6 927.5 -558.9 909.2 -558.9 " class="d"/><rect x="927.5" y="-592.8" width="16.2" height="33.9" class="d"/><rect x="950.3" y="-583.1" width="17.8" height="35.5" class="d"/><rect x="950.3" y="-604.1" width="17.8" height="11.3" class="d"/><path d="M360.1-592.9h17M377.4-592.9v44.1h-17.3v-44.1" class="d"/><rect x="342.7" y="-607.3" width="17.3" height="11" class="d"/><path d="M-374.9-593.7h-29.3v-10.5h30.9c0 0 9.9 0.3 9.9 10.2v3 33.3c0 9.9-9.9 10.2-9.9 10.2h-46.8v-40.8h10.5v29.8c0 0.3 0.2 0.5 0.5 0.5h34.6c0.3 0 0.5-0.2 0.5-0.5 0 0 0-31.2 0-32.5C-373.8-591-373.5-593.7-374.9-593.7h-29.3" class="e"/><path d="M-442.3-570.3v11.9h-44.9c-0.3 0-0.5 0.2-0.5 0.5v9.7c0 0.3 0.2 0.5 0.5 0.5h45.5c6 0 9.1-2.7 10.7-5.4 1.6-2.7 1.7-5.4 1.7-5.4l0-0.4c0-0.1 0-0.1 0-0.2v-10.8c0-0.3-0.2-0.5-0.5-0.5H-442.3z" class="e"/><line x1="-442.3" y1="-570.3" x2="-442.4" y2="-570.3" class="e"/><path d="M-442.4-570.3v-10.3c0-0.3-0.2-0.5-0.5-0.5h-34v-11.9h47.1c0.3 0 0.5-0.2 0.5-0.5v-9.7c0-0.3-0.2-0.5-0.5-0.5h-57.4c-0.3 0-0.5 0.2-0.5 0.5l-0.1 22.8c0 9.8 10.7 10.3 10.7 10.3l0.2 0c0 0 0 0 0 0H-442.4z" class="e"/><rect x="-514.5" width="200" height="140" class="e"/><path d="M-410.5 99.3h-1V56.5h12.5v30.3h39c0-3.9 0-30.8 0-32l0-0.1c0.1-0.6 0-1.3-0.1-1.6h-35.5V40.7h37.3c0.1 0 10.9 0.4 10.9 11.2v36.3c0 10.8-10.8 11.2-10.9 11.2H-410.5z" class="b"/><path d="M-432.3 99.3h-47.6c-0.9 0-1.5-0.7-1.5-1.5v-9.7c0-0.9 0.7-1.5 1.5-1.5h46v-8.1h13.5c0.9 0 1.5 0.7 1.5 1.5v7c0 0.1 0 0.2 0 0.3l0 0.3 0 0.1c0 0.1-0.2 3-1.9 5.9C-422.3 96.1-425.6 99.3-432.3 99.3z" class="b"/><path d="M-433.9 78.4h-35.8c-0.2 0-11.7-0.6-11.7-11.3l0.1-24.6c0-0.8 0.7-1.5 1.5-1.5h59.5c0.9 0 1.5 0.7 1.5 1.5v9.7c0 0.9-0.7 1.5-1.5 1.5h-48.1v11.8h33.1c0.9 0 1.5 0.7 1.5 1.5V78.4z" class="b"/><rect x="264" width="200" height="140" class="f"/><rect x="351.5" y="45" width="12.5" height="12.5" class="b"/><rect x="364" y="57.6" width="12.5" height="37.4" class="b"/><rect x="795.8" y="272" width="200" height="140" class="g"/><polygon points="908.8 329.5 932.5 329.5 932.5 317 883.9 317 883.9 329.5 896.4 329.5 896.4 367.1 896.5 367.1 914.2 367.1 932.5 367.1 932.5 354.8 908.8 354.8 " class="b"/><rect x="932.5" y="329.5" width="12.5" height="25.2" class="b"/><rect x="945" y="317" width="12.5" height="12.5" class="b"/><rect x="957.5" y="329.6" width="12.5" height="37.5" class="b"/><rect x="846.5" y="329.4" width="12.5" height="37.6" class="b"/><polygon points="821.6 316.9 821.6 367.1 834.1 367.1 834.1 329.4 846.5 329.4 846.5 316.9 " class="b"/><rect x="871.5" y="329.4" width="12.5" height="37.6" class="b"/><rect x="859" y="316.9" width="12.5" height="12.5" class="b"/><rect x="1246" y="-379" width="200" height="140" class="g"/><polygon points="1359 -321.5 1382.7 -321.5 1382.7 -334 1334.1 -334 1334.1 -321.5 1346.6 -321.5 1346.6 -283.9 1346.7 -283.9 1364.4 -283.9 1382.7 -283.9 1382.7 -296.2 1359 -296.2 " class="b"/><rect x="1382.7" y="-321.5" width="12.5" height="25.2" class="b"/><rect x="1395.2" y="-334" width="12.5" height="12.5" class="b"/><rect x="1407.7" y="-321.4" width="12.5" height="37.5" class="b"/><rect x="1296.7" y="-321.6" width="12.5" height="37.6" class="b"/><polygon points="1271.8 -334.1 1271.8 -283.9 1284.3 -283.9 1284.3 -321.6 1296.7 -321.6 1296.7 -334.1 " class="b"/><rect x="1321.7" y="-321.6" width="12.5" height="37.6" class="b"/><rect x="1309.2" y="-334.1" width="12.5" height="12.5" class="b"/><rect x="-744.8" y="346.2" width="12.5" height="12.5" class="b"/><rect x="-744.8" y="358.8" width="12.5" height="12.5" class="b"/><rect x="-744.8" y="371.3" width="12.5" height="12.5" class="b"/><rect x="-744.8" y="383.9" width="12.5" height="12.5" class="b"/><rect x="-757.2" y="346.2" width="12.5" height="12.5" class="b"/><rect x="-757.2" y="358.8" width="12.5" height="12.5" class="b"/><rect x="-757.2" y="371.3" width="12.5" height="12.5" class="b"/><rect x="-757.2" y="383.9" width="12.5" height="12.5" class="b"/><rect x="-769.7" y="346.2" width="12.5" height="12.5" class="b"/><rect x="-769.7" y="358.8" width="12.5" height="12.5" class="b"/><rect x="-769.7" y="371.3" width="12.5" height="12.5" class="b"/><rect x="-769.7" y="383.9" width="12.5" height="12.5" class="b"/><rect x="-782.2" y="346.2" width="12.5" height="12.5" class="b"/><rect x="-782.2" y="358.8" width="12.5" height="12.5" class="b"/><rect x="-782.2" y="371.3" width="12.5" height="12.5" class="b"/><rect x="-782.2" y="383.9" width="12.5" height="12.5" class="b"/><rect x="-794.7" y="346.2" width="12.5" height="12.5" class="b"/><rect x="-794.7" y="358.8" width="12.5" height="12.5" class="b"/><rect x="-794.7" y="371.3" width="12.5" height="12.5" class="b"/><rect x="-794.7" y="383.9" width="12.5" height="12.5" class="b"/><rect x="-264.4" width="200" height="140" class="h"/><polygon points="-170.7 45.2 -208.1 45.2 -208.1 95.1 -195.6 95.1 -195.6 82.6 -183.2 82.6 -183.2 70 -195.6 70 -195.6 57.5 -170.7 57.5 " class="b"/><rect x="-158.2" y="70" width="12.5" height="25.1" class="b"/><rect x="-145.7" y="57.5" width="12.5" height="12.5" class="b"/><rect x="-170.7" y="57.5" width="12.5" height="12.5" class="b"/><rect x="-133.2" y="44.9" width="12.5" height="12.5" class="b"/><rect x="527.8" y="-239" width="200" height="140" class="b"/><rect x="602.8" y="-193.9" width="25" height="12.3" class="a"/><rect x="602.8" y="-156.5" width="25" height="12.5" class="a"/><rect x="590.3" y="-181.6" width="12.5" height="25.1" class="a"/><rect x="640.3" y="-193.9" width="25" height="12.3" class="a"/><rect x="640.3" y="-156.5" width="25" height="12.5" class="a"/><rect x="627.8" y="-181.6" width="12.5" height="25.1" class="a"/><rect y="-239" width="200" height="140" class="b"/><rect x="93.8" y="-181.6" width="12.5" height="37.6" class="c"/><polygon points="68.8 -194.1 68.8 -143.9 81.3 -143.9 81.3 -181.6 93.8 -181.6 93.8 -194.1 " class="c"/><rect x="118.7" y="-181.6" width="12.5" height="37.6" class="c"/><rect x="106.2" y="-194.1" width="12.5" height="12.5" class="c"/><rect x="-514.5" y="-239" width="200" height="140" class="b"/><path d="M-410.5-139.7h-1v-42.8h12.5v30.3h39c0-3.9 0-30.8 0-32l0-0.1c0.1-0.6 0-1.3-0.1-1.6h-35.5v-12.5h37.3c0.1 0 10.9 0.4 10.9 11.2v36.3c0 10.8-10.8 11.2-10.9 11.2H-410.5z" class="e"/><path d="M-432.3-139.7h-47.6c-0.9 0-1.5-0.7-1.5-1.5v-9.7c0-0.9 0.7-1.5 1.5-1.5h46v-8.1h13.5c0.9 0 1.5 0.7 1.5 1.5v7c0 0.1 0 0.2 0 0.3l0 0.3 0 0.1c0 0.1-0.2 3-1.9 5.9C-422.3-142.9-425.6-139.7-432.3-139.7z" class="e"/><path d="M-433.9-160.6h-35.8c-0.2 0-11.7-0.6-11.7-11.3l0.1-24.6c0-0.8 0.7-1.5 1.5-1.5h59.5c0.9 0 1.5 0.7 1.5 1.5v9.7c0 0.9-0.7 1.5-1.5 1.5h-48.1v11.8h33.1c0.9 0 1.5 0.7 1.5 1.5V-160.6z" class="e"/><rect x="264" y="-239" width="200" height="140" class="b"/><rect x="351.5" y="-194" width="12.5" height="12.5" class="f"/><rect x="364" y="-181.4" width="12.5" height="37.4" class="f"/><rect x="795.8" y="-239" width="200" height="140" class="b"/><polygon points="908.8 -181.5 932.5 -181.5 932.5 -194 883.9 -194 883.9 -181.5 896.4 -181.5 896.4 -143.9 896.5 -143.9 914.2 -143.9 932.5 -143.9 932.5 -156.2 908.8 -156.2 " class="g"/><rect x="932.5" y="-181.5" width="12.5" height="25.2" class="g"/><rect x="945" y="-194" width="12.5" height="12.5" class="g"/><rect x="957.5" y="-181.4" width="12.5" height="37.5" class="g"/><rect x="846.5" y="-181.6" width="12.5" height="37.6" class="g"/><polygon points="821.6 -194.1 821.6 -143.9 834.1 -143.9 834.1 -181.6 846.5 -181.6 846.5 -194.1 " class="g"/><rect x="871.5" y="-181.6" width="12.5" height="37.6" class="g"/><rect x="859" y="-194.1" width="12.5" height="12.5" class="g"/><rect x="-264.4" y="-239" width="200" height="140" class="b"/><polygon points="-170.7 -193.8 -208.1 -193.8 -208.1 -143.9 -195.6 -143.9 -195.6 -156.4 -183.2 -156.4 -183.2 -169 -195.6 -169 -195.6 -181.5 -170.7 -181.5 " class="h"/><rect x="-158.2" y="-169" width="12.5" height="25.1" class="h"/><rect x="-145.7" y="-181.5" width="12.5" height="12.5" class="h"/><rect x="-170.7" y="-181.5" width="12.5" height="12.5" class="h"/><rect x="-133.2" y="-194.1" width="12.5" height="12.5" class="h"/><rect x="798.1" width="200" height="140" class="g"/><path d="M879.5 70.2v12.5h-12.4v12.5H854.6V45.2h24.9l0 12.5h-12.4V70.2H879.5z" class="b"/><path d="M941.7 70.1V95.2h-24.7V82.7h-12.5V57.6h12.5V45.2h24.7v12.5h-24.7v25.1h12.3V70.1H941.7z" class="b"/><text transform="matrix(1 0 0 1 1200.0269 -43.1235)"><tspan font-family="'Monoeger0556'" font-size="78.5648" letter-spacing="-25">  P</tspan><tspan x="33.8" font-family="'Monoeger0556'" font-size="78.5648">  G</tspan></text><rect x="881.8" y="57.7" width="12.5" height="12.5" class="b"/><rect x="1270.9" width="200" height="140" class="g"/><path d="M1375.9 70.2v12.5h-12.4v12.5h-12.5V45.2h24.9l0 12.5h-12.4V70.2H1375.9z" class="b"/><rect x="1378.3" y="57.7" width="12.5" height="12.5" class="b"/><rect x="-39.5" y="227.8" width="12.5" height="12.5"/><rect x="-112.5" y="174.7" width="12.5" height="12.5"/></svg>