<svg xmlns="http://www.w3.org/2000/svg" width="202" height="142" viewBox="0 0 202 142"><style>.a{fill:#38C7C9;}.b{fill:#ECEDED;}.c{fill:#D91C5C;}.d{fill:#414042;}.e{fill:#414042;stroke-width:2;stroke:#414042;}.f{fill:#DE653A;}.g{fill:#90278E;}.h{fill:#1FA7E0;}</style><rect x="1043.3" y="1" width="200" height="140" class="a"/><rect x="1118.3" y="46.1" width="25" height="12.3" class="b"/><rect x="1118.3" y="83.5" width="25" height="12.5" class="b"/><rect x="1105.8" y="58.4" width="12.5" height="25.1" class="b"/><rect x="1155.8" y="46.1" width="25" height="12.3" class="b"/><rect x="1155.8" y="83.5" width="25" height="12.5" class="b"/><rect x="1143.3" y="58.4" width="12.5" height="25.1" class="b"/><rect x="515.5" y="1" width="200" height="140" class="c"/><rect x="609.3" y="58.4" width="12.5" height="37.6" class="b"/><polygon points="584.3 45.9 584.3 96.1 596.8 96.1 596.8 58.4 609.3 58.4 609.3 45.9 " class="b"/><rect x="634.2" y="58.4" width="12.5" height="37.6" class="b"/><rect x="621.7" y="45.9" width="12.5" height="12.5" class="b"/><rect x="509.7" y="-672.2" width="200" height="200" class="b"/><rect x="775.6" y="-672.2" width="200" height="200" class="b"/><rect x="1041.5" y="-672.2" width="200" height="200" class="b"/><rect x="1307.2" y="-672.2" width="200" height="200" class="b"/><rect x="1105.7" y="-603.1" width="35.6" height="11.3" class="d"/><rect x="1105.7" y="-557.9" width="35.6" height="11.3" class="d"/><rect x="1087.9" y="-591.8" width="17.8" height="33.9" class="d"/><rect x="1165.6" y="-557.9" width="36.1" height="11.3" class="d"/><rect x="1147.9" y="-591.8" width="17.7" height="33.9" class="d"/><rect x="1165.6" y="-603.1" width="36.1" height="11.3" class="d"/><rect x="600.7" y="-591.9" width="17.8" height="45.3" class="d"/><polygon points="565.1 -603.2 565.1 -546.6 582.9 -546.6 582.9 -591.9 600.7 -591.9 600.7 -603.2 " class="d"/><rect x="636.4" y="-591.9" width="17.8" height="45.3" class="d"/><rect x="618.6" y="-603.2" width="17.8" height="11.3" class="d"/><rect x="244.1" y="-672.2" width="200" height="200" class="b"/><polygon points="337.4 -603.2 290.9 -603.2 290.9 -546.9 308.6 -546.9 308.6 -569.4 337.4 -569.4 337.4 -580.7 308.6 -580.7 308.6 -591.9 337.4 -591.9 " class="d"/><rect x="361.8" y="-580.4" width="17.7" height="33.8" class="d"/><polygon points="344 -580.7 361.8 -580.7 361.8 -603.2 361.8 -603.2 344 -603.2 " class="d"/><rect x="379.5" y="-602.9" width="17.7" height="22.5" class="d"/><rect x="-3.9" y="-672.2" width="200" height="194.7" class="b"/><rect x="1371.4" y="-591.8" width="17.8" height="45.2" class="d"/><polygon points="1335.8 -603.1 1335.8 -546.6 1353.6 -546.6 1353.6 -591.8 1371.4 -591.8 1371.4 -603.1 " class="d"/><polygon points="1424.7 -591.8 1443 -591.8 1443 -603.1 1406.9 -603.1 1406.9 -603.1 1389.2 -603.1 1389.2 -591.8 1406.9 -591.8 1406.9 -546.6 1406.9 -546.6 1424.7 -546.6 1443 -546.6 1443 -557.9 1424.7 -557.9 " class="d"/><rect x="1443" y="-591.8" width="16.2" height="33.9" class="d"/><rect x="1465.8" y="-582.1" width="17.8" height="35.5" class="d"/><rect x="1465.8" y="-603.1" width="17.8" height="11.3" class="d"/><path d="M875.6-591.9h17M892.9-591.9v44.1h-17.3v-44.1" class="d"/><rect x="858.2" y="-606.3" width="17.3" height="11" class="d"/><path d="M140.6-592.7h-29.3v-10.5h30.9c0 0 9.9 0.3 9.9 10.2v3 33.3c0 9.9-9.9 10.2-9.9 10.2H95.5v-40.8h10.5v29.8c0 0.3 0.2 0.5 0.5 0.5h34.6c0.3 0 0.5-0.2 0.5-0.5 0 0 0-31.2 0-32.5C141.7-590 142-592.7 140.6-592.7h-29.3" class="e"/><path d="M73.2-569.3v11.9H28.2c-0.3 0-0.5 0.2-0.5 0.5v9.7c0 0.3 0.2 0.5 0.5 0.5h45.5c6 0 9.1-2.7 10.7-5.4 1.6-2.7 1.7-5.4 1.7-5.4l0-0.4c0-0.1 0-0.1 0-0.2v-10.8c0-0.3-0.2-0.5-0.5-0.5H73.2z" class="e"/><line x1="73.2" y1="-569.3" x2="73.1" y2="-569.3" class="e"/><path d="M73.1-569.3v-10.3c0-0.3-0.2-0.5-0.5-0.5h-34v-11.9H85.7c0.3 0 0.5-0.2 0.5-0.5v-9.7c0-0.3-0.2-0.5-0.5-0.5H28.2c-0.3 0-0.5 0.2-0.5 0.5l-0.1 22.8c0 9.8 10.7 10.3 10.7 10.3l0.2 0c0 0 0 0 0 0H73.1z" class="e"/><rect x="1" y="1" width="200" height="140" class="e"/><path d="M105 100.3h-1V57.5h12.5v30.3h39c0-3.9 0-30.8 0-32l0-0.1c0.1-0.6 0-1.3-0.1-1.6h-35.5V41.7h37.3c0.1 0 10.9 0.4 10.9 11.2v36.3c0 10.8-10.8 11.2-10.9 11.2H105z" class="b"/><path d="M83.2 100.3H35.6c-0.9 0-1.5-0.7-1.5-1.5v-9.7c0-0.9 0.7-1.5 1.5-1.5h46v-8.1h13.5c0.9 0 1.5 0.7 1.5 1.5v7c0 0.1 0 0.2 0 0.3l0 0.3 0 0.1c0 0.1-0.2 3-1.9 5.9C93.2 97.1 89.9 100.3 83.2 100.3z" class="b"/><path d="M81.6 79.4h-35.8c-0.2 0-11.7-0.6-11.7-11.3l0.1-24.6c0-0.8 0.7-1.5 1.5-1.5h59.5c0.9 0 1.5 0.7 1.5 1.5v9.7c0 0.9-0.7 1.5-1.5 1.5H47v11.8h33.1c0.9 0 1.5 0.7 1.5 1.5V79.4z" class="b"/><rect x="779.5" y="1" width="200" height="140" class="f"/><rect x="867" y="46" width="12.5" height="12.5" class="b"/><rect x="879.5" y="58.6" width="12.5" height="37.4" class="b"/><rect x="1311.3" y="273" width="200" height="140" class="g"/><polygon points="1424.3 330.5 1448 330.5 1448 318 1399.4 318 1399.4 330.5 1411.9 330.5 1411.9 368.1 1412 368.1 1429.7 368.1 1448 368.1 1448 355.8 1424.3 355.8 " class="b"/><rect x="1448" y="330.5" width="12.5" height="25.2" class="b"/><rect x="1460.5" y="318" width="12.5" height="12.5" class="b"/><rect x="1473" y="330.6" width="12.5" height="37.5" class="b"/><rect x="1362" y="330.4" width="12.5" height="37.6" class="b"/><polygon points="1337.1 317.9 1337.1 368.1 1349.6 368.1 1349.6 330.4 1362 330.4 1362 317.9 " class="b"/><rect x="1387" y="330.4" width="12.5" height="37.6" class="b"/><rect x="1374.5" y="317.9" width="12.5" height="12.5" class="b"/><rect x="1761.5" y="-378" width="200" height="140" class="g"/><polygon points="1874.5 -320.5 1898.2 -320.5 1898.2 -333 1849.6 -333 1849.6 -320.5 1862.1 -320.5 1862.1 -282.9 1862.2 -282.9 1879.9 -282.9 1898.2 -282.9 1898.2 -295.2 1874.5 -295.2 " class="b"/><rect x="1898.2" y="-320.5" width="12.5" height="25.2" class="b"/><rect x="1910.7" y="-333" width="12.5" height="12.5" class="b"/><rect x="1923.2" y="-320.4" width="12.5" height="37.5" class="b"/><rect x="1812.2" y="-320.6" width="12.5" height="37.6" class="b"/><polygon points="1787.3 -333.1 1787.3 -282.9 1799.8 -282.9 1799.8 -320.6 1812.2 -320.6 1812.2 -333.1 " class="b"/><rect x="1837.2" y="-320.6" width="12.5" height="37.6" class="b"/><rect x="1824.7" y="-333.1" width="12.5" height="12.5" class="b"/><rect x="-229.3" y="347.2" width="12.5" height="12.5" class="b"/><rect x="-229.3" y="359.8" width="12.5" height="12.5" class="b"/><rect x="-229.3" y="372.3" width="12.5" height="12.5" class="b"/><rect x="-229.3" y="384.9" width="12.5" height="12.5" class="b"/><rect x="-241.7" y="347.2" width="12.5" height="12.5" class="b"/><rect x="-241.7" y="359.8" width="12.5" height="12.5" class="b"/><rect x="-241.7" y="372.3" width="12.5" height="12.5" class="b"/><rect x="-241.7" y="384.9" width="12.5" height="12.5" class="b"/><rect x="-254.2" y="347.2" width="12.5" height="12.5" class="b"/><rect x="-254.2" y="359.8" width="12.5" height="12.5" class="b"/><rect x="-254.2" y="372.3" width="12.5" height="12.5" class="b"/><rect x="-254.2" y="384.9" width="12.5" height="12.5" class="b"/><rect x="-266.7" y="347.2" width="12.5" height="12.5" class="b"/><rect x="-266.7" y="359.8" width="12.5" height="12.5" class="b"/><rect x="-266.7" y="372.3" width="12.5" height="12.5" class="b"/><rect x="-266.7" y="384.9" width="12.5" height="12.5" class="b"/><rect x="-279.2" y="347.2" width="12.5" height="12.5" class="b"/><rect x="-279.2" y="359.8" width="12.5" height="12.5" class="b"/><rect x="-279.2" y="372.3" width="12.5" height="12.5" class="b"/><rect x="-279.2" y="384.9" width="12.5" height="12.5" class="b"/><rect x="251.1" y="1" width="200" height="140" class="h"/><polygon points="344.8 46.2 307.4 46.2 307.4 96.1 319.9 96.1 319.9 83.6 332.3 83.6 332.3 71 319.9 71 319.9 58.5 344.8 58.5 " class="b"/><rect x="357.3" y="71" width="12.5" height="25.1" class="b"/><rect x="369.8" y="58.5" width="12.5" height="12.5" class="b"/><rect x="344.8" y="58.5" width="12.5" height="12.5" class="b"/><rect x="382.3" y="45.9" width="12.5" height="12.5" class="b"/><rect x="1043.3" y="-238" width="200" height="140" class="b"/><rect x="1118.3" y="-192.9" width="25" height="12.3" class="a"/><rect x="1118.3" y="-155.5" width="25" height="12.5" class="a"/><rect x="1105.8" y="-180.6" width="12.5" height="25.1" class="a"/><rect x="1155.8" y="-192.9" width="25" height="12.3" class="a"/><rect x="1155.8" y="-155.5" width="25" height="12.5" class="a"/><rect x="1143.3" y="-180.6" width="12.5" height="25.1" class="a"/><rect x="515.5" y="-238" width="200" height="140" class="b"/><rect x="609.3" y="-180.6" width="12.5" height="37.6" class="c"/><polygon points="584.3 -193.1 584.3 -142.9 596.8 -142.9 596.8 -180.6 609.3 -180.6 609.3 -193.1 " class="c"/><rect x="634.2" y="-180.6" width="12.5" height="37.6" class="c"/><rect x="621.7" y="-193.1" width="12.5" height="12.5" class="c"/><rect x="1" y="-238" width="200" height="140" class="b"/><path d="M105-138.7h-1v-42.8h12.5v30.3h39c0-3.9 0-30.8 0-32l0-0.1c0.1-0.6 0-1.3-0.1-1.6h-35.5v-12.5h37.3c0.1 0 10.9 0.4 10.9 11.2v36.3c0 10.8-10.8 11.2-10.9 11.2H105z" class="e"/><path d="M83.2-138.7H35.6c-0.9 0-1.5-0.7-1.5-1.5v-9.7c0-0.9 0.7-1.5 1.5-1.5h46v-8.1h13.5c0.9 0 1.5 0.7 1.5 1.5v7c0 0.1 0 0.2 0 0.3l0 0.3 0 0.1c0 0.1-0.2 3-1.9 5.9C93.2-141.9 89.9-138.7 83.2-138.7z" class="e"/><path d="M81.6-159.6h-35.8c-0.2 0-11.7-0.6-11.7-11.3l0.1-24.6c0-0.8 0.7-1.5 1.5-1.5h59.5c0.9 0 1.5 0.7 1.5 1.5v9.7c0 0.9-0.7 1.5-1.5 1.5H47v11.8h33.1c0.9 0 1.5 0.7 1.5 1.5V-159.6z" class="e"/><rect x="779.5" y="-238" width="200" height="140" class="b"/><rect x="867" y="-193" width="12.5" height="12.5" class="f"/><rect x="879.5" y="-180.4" width="12.5" height="37.4" class="f"/><rect x="1311.3" y="-238" width="200" height="140" class="b"/><polygon points="1424.3 -180.5 1448 -180.5 1448 -193 1399.4 -193 1399.4 -180.5 1411.9 -180.5 1411.9 -142.9 1412 -142.9 1429.7 -142.9 1448 -142.9 1448 -155.2 1424.3 -155.2 " class="g"/><rect x="1448" y="-180.5" width="12.5" height="25.2" class="g"/><rect x="1460.5" y="-193" width="12.5" height="12.5" class="g"/><rect x="1473" y="-180.4" width="12.5" height="37.5" class="g"/><rect x="1362" y="-180.6" width="12.5" height="37.6" class="g"/><polygon points="1337.1 -193.1 1337.1 -142.9 1349.6 -142.9 1349.6 -180.6 1362 -180.6 1362 -193.1 " class="g"/><rect x="1387" y="-180.6" width="12.5" height="37.6" class="g"/><rect x="1374.5" y="-193.1" width="12.5" height="12.5" class="g"/><rect x="251.1" y="-238" width="200" height="140" class="b"/><polygon points="344.8 -192.8 307.4 -192.8 307.4 -142.9 319.9 -142.9 319.9 -155.4 332.3 -155.4 332.3 -168 319.9 -168 319.9 -180.5 344.8 -180.5 " class="h"/><rect x="357.3" y="-168" width="12.5" height="25.1" class="h"/><rect x="369.8" y="-180.5" width="12.5" height="12.5" class="h"/><rect x="344.8" y="-180.5" width="12.5" height="12.5" class="h"/><rect x="382.3" y="-193.1" width="12.5" height="12.5" class="h"/><rect x="1313.6" y="1" width="200" height="140" class="g"/><path d="M1395 71.2v12.5h-12.4v12.5h-12.5V46.2h24.9l0 12.5h-12.4V71.2H1395z" class="b"/><path d="M1457.2 71.1V96.2h-24.7V83.7h-12.5V58.6h12.5V46.2h24.7v12.5h-24.7v25.1h12.3V71.1H1457.2z" class="b"/><text transform="matrix(1 0 0 1 1715.5249 -42.1235)"><tspan font-family="'Monoeger0556'" font-size="78.5648" letter-spacing="-25">  P</tspan><tspan x="33.8" font-family="'Monoeger0556'" font-size="78.5648">  G</tspan></text><rect x="1397.3" y="58.7" width="12.5" height="12.5" class="b"/><rect x="1786.4" y="1" width="200" height="140" class="g"/><path d="M1891.4 71.2v12.5h-12.4v12.5h-12.5V46.2h24.9l0 12.5h-12.4V71.2H1891.4z" class="b"/><rect x="1893.8" y="58.7" width="12.5" height="12.5" class="b"/><rect x="476" y="228.8" width="12.5" height="12.5"/><rect x="403" y="175.7" width="12.5" height="12.5"/></svg>