<svg xmlns="http://www.w3.org/2000/svg" width="200" height="140" viewBox="0 0 200 140"><style>.a{fill:#38C7C9;}.b{fill:#ECEDED;}.c{fill:#D91C5C;}.d{fill:#414042;}.e{fill:#414042;stroke-width:2;stroke:#414042;}.f{fill:#DE653A;}.g{fill:#90278E;}.h{fill:#1FA7E0;}</style><rect x="1042.3" y="239" width="200" height="140" class="a"/><rect x="1117.3" y="284" width="25" height="12.3" class="b"/><rect x="1117.3" y="321.4" width="25" height="12.5" class="b"/><rect x="1104.8" y="296.4" width="12.5" height="25.1" class="b"/><rect x="1154.8" y="284" width="25" height="12.3" class="b"/><rect x="1154.8" y="321.4" width="25" height="12.5" class="b"/><rect x="1142.3" y="296.4" width="12.5" height="25.1" class="b"/><rect x="514.5" y="239" width="200" height="140" class="c"/><rect x="608.3" y="296.4" width="12.5" height="37.6" class="b"/><polygon points="583.3 283.9 583.3 334.1 595.8 334.1 595.8 296.4 608.3 296.4 608.3 283.9 " class="b"/><rect x="633.2" y="296.4" width="12.5" height="37.6" class="b"/><rect x="620.7" y="283.9" width="12.5" height="12.5" class="b"/><rect x="508.7" y="-434.2" width="200" height="200" class="b"/><rect x="774.6" y="-434.2" width="200" height="200" class="b"/><rect x="1040.5" y="-434.2" width="200" height="200" class="b"/><rect x="1306.2" y="-434.2" width="200" height="200" class="b"/><rect x="1104.7" y="-365.1" width="35.6" height="11.3" class="d"/><rect x="1104.7" y="-319.9" width="35.6" height="11.3" class="d"/><rect x="1086.9" y="-353.8" width="17.8" height="33.9" class="d"/><rect x="1164.6" y="-319.9" width="36.1" height="11.3" class="d"/><rect x="1146.9" y="-353.8" width="17.7" height="33.9" class="d"/><rect x="1164.6" y="-365.1" width="36.1" height="11.3" class="d"/><rect x="599.7" y="-353.9" width="17.8" height="45.3" class="d"/><polygon points="564.1 -365.2 564.1 -308.6 581.9 -308.6 581.9 -353.9 599.7 -353.9 599.7 -365.2 " class="d"/><rect x="635.4" y="-353.9" width="17.8" height="45.3" class="d"/><rect x="617.6" y="-365.2" width="17.8" height="11.3" class="d"/><rect x="243.1" y="-434.2" width="200" height="200" class="b"/><polygon points="336.4 -365.2 289.9 -365.2 289.9 -308.9 307.6 -308.9 307.6 -331.4 336.4 -331.4 336.4 -342.7 307.6 -342.7 307.6 -353.9 336.4 -353.9 " class="d"/><rect x="360.8" y="-342.4" width="17.7" height="33.8" class="d"/><polygon points="343 -342.7 360.8 -342.7 360.8 -365.2 360.8 -365.2 343 -365.2 " class="d"/><rect x="378.5" y="-364.9" width="17.7" height="22.5" class="d"/><rect x="-4.9" y="-434.2" width="200" height="194.7" class="b"/><rect x="1370.4" y="-353.8" width="17.8" height="45.2" class="d"/><polygon points="1334.8 -365.1 1334.8 -308.6 1352.6 -308.6 1352.6 -353.8 1370.4 -353.8 1370.4 -365.1 " class="d"/><polygon points="1423.7 -353.8 1442 -353.8 1442 -365.1 1405.9 -365.1 1405.9 -365.1 1388.2 -365.1 1388.2 -353.8 1405.9 -353.8 1405.9 -308.6 1405.9 -308.6 1423.7 -308.6 1442 -308.6 1442 -319.9 1423.7 -319.9 " class="d"/><rect x="1442" y="-353.8" width="16.2" height="33.9" class="d"/><rect x="1464.8" y="-344.1" width="17.8" height="35.5" class="d"/><rect x="1464.8" y="-365.1" width="17.8" height="11.3" class="d"/><path d="M874.6-353.9h17M891.9-353.9v44.1h-17.3v-44.1" class="d"/><rect x="857.2" y="-368.3" width="17.3" height="11" class="d"/><path d="M139.6-354.7h-29.3v-10.5h30.9c0 0 9.9 0.3 9.9 10.2v3 33.3c0 9.9-9.9 10.2-9.9 10.2H94.5v-40.8h10.5v29.8c0 0.3 0.2 0.5 0.5 0.5h34.6c0.3 0 0.5-0.2 0.5-0.5 0 0 0-31.2 0-32.5C140.7-352 141-354.7 139.6-354.7h-29.3" class="e"/><path d="M72.2-331.3v11.9H27.2c-0.3 0-0.5 0.2-0.5 0.5v9.7c0 0.3 0.2 0.5 0.5 0.5h45.5c6 0 9.1-2.7 10.7-5.4 1.6-2.7 1.7-5.4 1.7-5.4l0-0.4c0-0.1 0-0.1 0-0.2v-10.8c0-0.3-0.2-0.5-0.5-0.5H72.2z" class="e"/><line x1="72.2" y1="-331.3" x2="72.1" y2="-331.3" class="e"/><path d="M72.1-331.3v-10.3c0-0.3-0.2-0.5-0.5-0.5h-34v-11.9H84.7c0.3 0 0.5-0.2 0.5-0.5v-9.7c0-0.3-0.2-0.5-0.5-0.5H27.2c-0.3 0-0.5 0.2-0.5 0.5l-0.1 22.8c0 9.8 10.7 10.3 10.7 10.3l0.2 0c0 0 0 0 0 0H72.1z" class="e"/><rect y="239" width="200" height="140" class="e"/><path d="M104 338.3h-1v-42.8h12.5v30.3h39c0-3.9 0-30.8 0-32l0-0.1c0.1-0.6 0-1.3-0.1-1.6h-35.5v-12.5h37.3c0.1 0 10.9 0.4 10.9 11.2v36.3c0 10.8-10.8 11.2-10.9 11.2H104z" class="b"/><path d="M82.2 338.3H34.6c-0.9 0-1.5-0.7-1.5-1.5v-9.7c0-0.9 0.7-1.5 1.5-1.5h46v-8.1h13.5c0.9 0 1.5 0.7 1.5 1.5v7c0 0.1 0 0.2 0 0.3l0 0.3 0 0.1c0 0.1-0.2 3-1.9 5.9C92.2 335.1 88.9 338.3 82.2 338.3z" class="b"/><path d="M80.6 317.4h-35.8c-0.2 0-11.7-0.6-11.7-11.3l0.1-24.6c0-0.8 0.7-1.5 1.5-1.5h59.5c0.9 0 1.5 0.7 1.5 1.5v9.7c0 0.9-0.7 1.5-1.5 1.5H46v11.8h33.1c0.9 0 1.5 0.7 1.5 1.5V317.4z" class="b"/><rect x="778.5" y="239" width="200" height="140" class="f"/><rect x="866" y="284" width="12.5" height="12.5" class="b"/><rect x="878.5" y="296.6" width="12.5" height="37.4" class="b"/><rect x="1310.3" y="511" width="200" height="140" class="g"/><polygon points="1423.3 568.5 1447 568.5 1447 556 1398.4 556 1398.4 568.5 1410.9 568.5 1410.9 606.1 1411 606.1 1428.7 606.1 1447 606.1 1447 593.7 1423.3 593.7 " class="b"/><rect x="1447" y="568.5" width="12.5" height="25.2" class="b"/><rect x="1459.5" y="556" width="12.5" height="12.5" class="b"/><rect x="1472" y="568.6" width="12.5" height="37.5" class="b"/><rect x="1361" y="568.4" width="12.5" height="37.6" class="b"/><polygon points="1336.1 555.9 1336.1 606.1 1348.6 606.1 1348.6 568.4 1361 568.4 1361 555.9 " class="b"/><rect x="1386" y="568.4" width="12.5" height="37.6" class="b"/><rect x="1373.5" y="555.9" width="12.5" height="12.5" class="b"/><rect x="1760.5" y="-140" width="200" height="140" class="g"/><polygon points="1873.5 -82.5 1897.2 -82.5 1897.2 -95 1848.6 -95 1848.6 -82.5 1861.1 -82.5 1861.1 -44.9 1861.2 -44.9 1878.9 -44.9 1897.2 -44.9 1897.2 -57.2 1873.5 -57.2 " class="b"/><rect x="1897.2" y="-82.5" width="12.5" height="25.2" class="b"/><rect x="1909.7" y="-95" width="12.5" height="12.5" class="b"/><rect x="1922.2" y="-82.4" width="12.5" height="37.5" class="b"/><rect x="1811.2" y="-82.6" width="12.5" height="37.6" class="b"/><polygon points="1786.3 -95.1 1786.3 -44.9 1798.8 -44.9 1798.8 -82.6 1811.2 -82.6 1811.2 -95.1 " class="b"/><rect x="1836.2" y="-82.6" width="12.5" height="37.6" class="b"/><rect x="1823.7" y="-95.1" width="12.5" height="12.5" class="b"/><rect x="63.7" y="585.2" width="12.5" height="12.5" class="b"/><rect x="63.7" y="597.8" width="12.5" height="12.5" class="b"/><rect x="63.7" y="610.3" width="12.5" height="12.5" class="b"/><rect x="63.7" y="622.9" width="12.5" height="12.5" class="b"/><rect x="51.3" y="585.2" width="12.5" height="12.5" class="b"/><rect x="51.3" y="597.8" width="12.5" height="12.5" class="b"/><rect x="51.3" y="610.3" width="12.5" height="12.5" class="b"/><rect x="51.3" y="622.9" width="12.5" height="12.5" class="b"/><rect x="38.8" y="585.2" width="12.5" height="12.5" class="b"/><rect x="38.8" y="597.8" width="12.5" height="12.5" class="b"/><rect x="38.8" y="610.3" width="12.5" height="12.5" class="b"/><rect x="38.8" y="622.9" width="12.5" height="12.5" class="b"/><rect x="26.3" y="585.2" width="12.5" height="12.5" class="b"/><rect x="26.3" y="597.8" width="12.5" height="12.5" class="b"/><rect x="26.3" y="610.3" width="12.5" height="12.5" class="b"/><rect x="26.3" y="622.9" width="12.5" height="12.5" class="b"/><rect x="13.8" y="585.2" width="12.5" height="12.5" class="b"/><rect x="13.8" y="597.8" width="12.5" height="12.5" class="b"/><rect x="13.8" y="610.3" width="12.5" height="12.5" class="b"/><rect x="13.8" y="622.9" width="12.5" height="12.5" class="b"/><rect x="250.1" y="239" width="200" height="140" class="h"/><polygon points="343.8 284.2 306.4 284.2 306.4 334.1 318.9 334.1 318.9 321.6 331.3 321.6 331.3 309 318.9 309 318.9 296.5 343.8 296.5 " class="b"/><rect x="356.3" y="309" width="12.5" height="25.1" class="b"/><rect x="368.8" y="296.5" width="12.5" height="12.5" class="b"/><rect x="343.8" y="296.5" width="12.5" height="12.5" class="b"/><rect x="381.3" y="283.9" width="12.5" height="12.5" class="b"/><rect x="1042.3" width="200" height="140" class="b"/><rect x="1117.3" y="45.1" width="25" height="12.3" class="a"/><rect x="1117.3" y="82.5" width="25" height="12.5" class="a"/><rect x="1104.8" y="57.4" width="12.5" height="25.1" class="a"/><rect x="1154.8" y="45.1" width="25" height="12.3" class="a"/><rect x="1154.8" y="82.5" width="25" height="12.5" class="a"/><rect x="1142.3" y="57.4" width="12.5" height="25.1" class="a"/><rect x="514.5" width="200" height="140" class="b"/><rect x="608.3" y="57.4" width="12.5" height="37.6" class="c"/><polygon points="583.3 44.9 583.3 95.1 595.8 95.1 595.8 57.4 608.3 57.4 608.3 44.9 " class="c"/><rect x="633.2" y="57.4" width="12.5" height="37.6" class="c"/><rect x="620.7" y="44.9" width="12.5" height="12.5" class="c"/><rect width="200" height="140" class="b"/><path d="M104 99.3h-1V56.5h12.5v30.3h39c0-3.9 0-30.8 0-32l0-0.1c0.1-0.6 0-1.3-0.1-1.6h-35.5V40.7h37.3c0.1 0 10.9 0.4 10.9 11.2v36.3c0 10.8-10.8 11.2-10.9 11.2H104z" class="d"/><path d="M82.2 99.3H34.6c-0.9 0-1.5-0.7-1.5-1.5v-9.7c0-0.9 0.7-1.5 1.5-1.5h46v-8.1h13.5c0.9 0 1.5 0.7 1.5 1.5v7c0 0.1 0 0.2 0 0.3l0 0.3 0 0.1c0 0.1-0.2 3-1.9 5.9C92.2 96.1 88.9 99.3 82.2 99.3z" class="d"/><path d="M80.6 78.4h-35.8c-0.2 0-11.7-0.6-11.7-11.3l0.1-24.6c0-0.8 0.7-1.5 1.5-1.5h59.5c0.9 0 1.5 0.7 1.5 1.5v9.7c0 0.9-0.7 1.5-1.5 1.5H46v11.8h33.1c0.9 0 1.5 0.7 1.5 1.5V78.4z" class="d"/><rect x="778.5" width="200" height="140" class="b"/><rect x="866" y="45" width="12.5" height="12.5" class="f"/><rect x="878.5" y="57.6" width="12.5" height="37.4" class="f"/><rect x="250.1" width="200" height="140" class="b"/><polygon points="343.8 45.2 306.4 45.2 306.4 95.1 318.9 95.1 318.9 82.6 331.3 82.6 331.3 70 318.9 70 318.9 57.5 343.8 57.5 " class="h"/><rect x="356.3" y="70" width="12.5" height="25.1" class="h"/><rect x="368.8" y="57.5" width="12.5" height="12.5" class="h"/><rect x="343.8" y="57.5" width="12.5" height="12.5" class="h"/><rect x="381.3" y="44.9" width="12.5" height="12.5" class="h"/><text transform="matrix(1 0 0 1 1714.5249 195.8643)"><tspan font-family="'Monoeger0556'" font-size="78.5648" letter-spacing="-25">  P</tspan><tspan x="33.8" font-family="'Monoeger0556'" font-size="78.5648">  G</tspan></text><rect x="1312.6" y="239" width="200" height="140" class="g"/><path d="M1394 309.1v12.5h-12.4v12.5h-12.5v-50h24.9l0 12.5h-12.4v12.5H1394z" class="b"/><path d="M1456.2 309.1v25.1h-24.7v-12.5h-12.5v-25.1h12.5v-12.5h24.7v12.5h-24.7v25.1h12.3v-12.6H1456.2z" class="b"/><rect x="1394" y="296.7" width="12.5" height="12.5" class="b"/><rect x="1311.4" y="0.1" width="200" height="140" class="b"/><path d="M1392.8 70.3v12.5h-12.4v12.5h-12.5V45.3h24.9l0 12.5h-12.4v12.5H1392.8z" class="g"/><path d="M1455 70.3v25.1h-24.7V82.8h-12.5V57.8h12.5V45.3h24.7v12.5h-24.7v25.1h12.3V70.3H1455z" class="g"/><rect x="1392.8" y="57.8" width="12.5" height="12.5" class="g"/><rect x="1785.4" y="239" width="200" height="140" class="g"/><path d="M1890.4 309.1v12.5h-12.4v12.5h-12.5v-50h24.9l0 12.5h-12.4v12.5H1890.4z" class="b"/><rect x="1892.8" y="296.7" width="12.5" height="12.5" class="b"/><rect x="475" y="466.8" width="12.5" height="12.5"/><rect x="402" y="413.7" width="12.5" height="12.5"/></svg>