<svg xmlns="http://www.w3.org/2000/svg" width="200" height="140" viewBox="0 0 200 140"><style>.a{fill:#38C7C9;}.b{fill:#ECEDED;}.c{fill:#D91C5C;}.d{fill:#414042;}.e{fill:#414042;stroke-width:2;stroke:#414042;}.f{fill:#DE653A;}.g{fill:#90278E;}.h{fill:#1FA7E0;}</style><rect x="-270.3" width="200" height="140" class="a"/><rect x="-195.3" y="45.1" width="25" height="12.3" class="b"/><rect x="-195.3" y="82.5" width="25" height="12.5" class="b"/><rect x="-207.8" y="57.4" width="12.5" height="25.1" class="b"/><rect x="-157.8" y="45.1" width="25" height="12.3" class="b"/><rect x="-157.8" y="82.5" width="25" height="12.5" class="b"/><rect x="-170.3" y="57.4" width="12.5" height="25.1" class="b"/><rect x="-798.1" width="200" height="140" class="c"/><rect x="-704.3" y="57.4" width="12.5" height="37.6" class="b"/><polygon points="-729.3 44.9 -729.3 95.1 -716.8 95.1 -716.8 57.4 -704.3 57.4 -704.3 44.9 " class="b"/><rect x="-679.4" y="57.4" width="12.5" height="37.6" class="b"/><rect x="-691.9" y="44.9" width="12.5" height="12.5" class="b"/><rect x="-803.9" y="-673.2" width="200" height="200" class="b"/><rect x="-538" y="-673.2" width="200" height="200" class="b"/><rect x="-272.1" y="-673.2" width="200" height="200" class="b"/><rect x="-6.4" y="-673.2" width="200" height="200" class="b"/><rect x="-207.9" y="-604.1" width="35.6" height="11.3" class="d"/><rect x="-207.9" y="-558.9" width="35.6" height="11.3" class="d"/><rect x="-225.7" y="-592.8" width="17.8" height="33.9" class="d"/><rect x="-148" y="-558.9" width="36.1" height="11.3" class="d"/><rect x="-165.7" y="-592.8" width="17.7" height="33.9" class="d"/><rect x="-148" y="-604.1" width="36.1" height="11.3" class="d"/><rect x="-712.9" y="-592.9" width="17.8" height="45.3" class="d"/><polygon points="-748.5 -604.2 -748.5 -547.6 -730.7 -547.6 -730.7 -592.9 -712.9 -592.9 -712.9 -604.2 " class="d"/><rect x="-677.2" y="-592.9" width="17.8" height="45.3" class="d"/><rect x="-695" y="-604.2" width="17.8" height="11.3" class="d"/><rect x="-1069.5" y="-673.2" width="200" height="200" class="b"/><polygon points="-976.2 -604.2 -1022.7 -604.2 -1022.7 -547.9 -1005 -547.9 -1005 -570.4 -976.2 -570.4 -976.2 -581.7 -1005 -581.7 -1005 -592.9 -976.2 -592.9 " class="d"/><rect x="-951.8" y="-581.4" width="17.7" height="33.8" class="d"/><polygon points="-969.6 -581.7 -951.8 -581.7 -951.8 -604.2 -951.8 -604.2 -969.6 -604.2 " class="d"/><rect x="-934.1" y="-603.9" width="17.7" height="22.5" class="d"/><rect x="-1317.5" y="-673.2" width="200" height="194.7" class="b"/><rect x="57.8" y="-592.8" width="17.8" height="45.2" class="d"/><polygon points="22.2 -604.1 22.2 -547.6 40 -547.6 40 -592.8 57.8 -592.8 57.8 -604.1 " class="d"/><polygon points="111.1 -592.8 129.4 -592.8 129.4 -604.1 93.3 -604.1 93.3 -604.1 75.6 -604.1 75.6 -592.8 93.3 -592.8 93.3 -547.6 93.3 -547.6 111.1 -547.6 129.4 -547.6 129.4 -558.9 111.1 -558.9 " class="d"/><rect x="129.4" y="-592.8" width="16.2" height="33.9" class="d"/><rect x="152.2" y="-583.1" width="17.8" height="35.5" class="d"/><rect x="152.2" y="-604.1" width="17.8" height="11.3" class="d"/><path d="M-438-592.9h17M-420.7-592.9v44.1h-17.3v-44.1" class="d"/><rect x="-455.4" y="-607.3" width="17.3" height="11" class="d"/><path d="M-1173-593.7h-29.3v-10.5h30.9c0 0 9.9 0.3 9.9 10.2v3 33.3c0 9.9-9.9 10.2-9.9 10.2h-46.8v-40.8h10.5v29.8c0 0.3 0.2 0.5 0.5 0.5h34.6c0.3 0 0.5-0.2 0.5-0.5 0 0 0-31.2 0-32.5C-1171.9-591-1171.6-593.7-1173-593.7h-29.3" class="e"/><path d="M-1240.4-570.3v11.9h-44.9c-0.3 0-0.5 0.2-0.5 0.5v9.7c0 0.3 0.2 0.5 0.5 0.5h45.5c6 0 9.1-2.7 10.7-5.4 1.6-2.7 1.7-5.4 1.7-5.4l0-0.4c0-0.1 0-0.1 0-0.2v-10.8c0-0.3-0.2-0.5-0.5-0.5H-1240.4z" class="e"/><line x1="-1240.4" y1="-570.3" x2="-1240.5" y2="-570.3" class="e"/><path d="M-1240.5-570.3v-10.3c0-0.3-0.2-0.5-0.5-0.5h-34v-11.9h47.1c0.3 0 0.5-0.2 0.5-0.5v-9.7c0-0.3-0.2-0.5-0.5-0.5h-57.4c-0.3 0-0.5 0.2-0.5 0.5l-0.1 22.8c0 9.8 10.7 10.3 10.7 10.3l0.2 0c0 0 0 0 0 0H-1240.5z" class="e"/><rect x="-1312.6" width="200" height="140" class="e"/><path d="M-1208.6 99.3h-1V56.5h12.5v30.3h39c0-3.9 0-30.8 0-32l0-0.1c0.1-0.6 0-1.3-0.1-1.6h-35.5V40.7h37.3c0.1 0 10.9 0.4 10.9 11.2v36.3c0 10.8-10.8 11.2-10.9 11.2H-1208.6z" class="b"/><path d="M-1230.4 99.3h-47.6c-0.9 0-1.5-0.7-1.5-1.5v-9.7c0-0.9 0.7-1.5 1.5-1.5h46v-8.1h13.5c0.9 0 1.5 0.7 1.5 1.5v7c0 0.1 0 0.2 0 0.3l0 0.3 0 0.1c0 0.1-0.2 3-1.9 5.9C-1220.4 96.1-1223.7 99.3-1230.4 99.3z" class="b"/><path d="M-1232 78.4h-35.8c-0.2 0-11.7-0.6-11.7-11.3l0.1-24.6c0-0.8 0.7-1.5 1.5-1.5h59.5c0.9 0 1.5 0.7 1.5 1.5v9.7c0 0.9-0.7 1.5-1.5 1.5h-48.1v11.8h33.1c0.9 0 1.5 0.7 1.5 1.5V78.4z" class="b"/><rect x="-534.1" width="200" height="140" class="f"/><rect x="-446.6" y="45" width="12.5" height="12.5" class="b"/><rect x="-434.1" y="57.6" width="12.5" height="37.4" class="b"/><rect x="-2.3" y="272" width="200" height="140" class="g"/><polygon points="110.7 329.5 134.4 329.5 134.4 317 85.8 317 85.8 329.5 98.3 329.5 98.3 367.1 98.4 367.1 116.1 367.1 134.4 367.1 134.4 354.8 110.7 354.8 " class="b"/><rect x="134.4" y="329.5" width="12.5" height="25.2" class="b"/><rect x="146.9" y="317" width="12.5" height="12.5" class="b"/><rect x="159.4" y="329.6" width="12.5" height="37.5" class="b"/><rect x="48.4" y="329.4" width="12.5" height="37.6" class="b"/><polygon points="23.5 316.9 23.5 367.1 36 367.1 36 329.4 48.4 329.4 48.4 316.9 " class="b"/><rect x="73.4" y="329.4" width="12.5" height="37.6" class="b"/><rect x="60.9" y="316.9" width="12.5" height="12.5" class="b"/><rect x="447.9" y="-379" width="200" height="140" class="g"/><polygon points="560.9 -321.5 584.6 -321.5 584.6 -334 536 -334 536 -321.5 548.5 -321.5 548.5 -283.9 548.6 -283.9 566.3 -283.9 584.6 -283.9 584.6 -296.2 560.9 -296.2 " class="b"/><rect x="584.6" y="-321.5" width="12.5" height="25.2" class="b"/><rect x="597.1" y="-334" width="12.5" height="12.5" class="b"/><rect x="609.6" y="-321.4" width="12.5" height="37.5" class="b"/><rect x="498.6" y="-321.6" width="12.5" height="37.6" class="b"/><polygon points="473.7 -334.1 473.7 -283.9 486.2 -283.9 486.2 -321.6 498.6 -321.6 498.6 -334.1 " class="b"/><rect x="523.6" y="-321.6" width="12.5" height="37.6" class="b"/><rect x="511.1" y="-334.1" width="12.5" height="12.5" class="b"/><rect x="-1542.9" y="346.2" width="12.5" height="12.5" class="b"/><rect x="-1542.9" y="358.8" width="12.5" height="12.5" class="b"/><rect x="-1542.9" y="371.3" width="12.5" height="12.5" class="b"/><rect x="-1542.9" y="383.9" width="12.5" height="12.5" class="b"/><rect x="-1555.3" y="346.2" width="12.5" height="12.5" class="b"/><rect x="-1555.3" y="358.8" width="12.5" height="12.5" class="b"/><rect x="-1555.3" y="371.3" width="12.5" height="12.5" class="b"/><rect x="-1555.3" y="383.9" width="12.5" height="12.5" class="b"/><rect x="-1567.8" y="346.2" width="12.5" height="12.5" class="b"/><rect x="-1567.8" y="358.8" width="12.5" height="12.5" class="b"/><rect x="-1567.8" y="371.3" width="12.5" height="12.5" class="b"/><rect x="-1567.8" y="383.9" width="12.5" height="12.5" class="b"/><rect x="-1580.3" y="346.2" width="12.5" height="12.5" class="b"/><rect x="-1580.3" y="358.8" width="12.5" height="12.5" class="b"/><rect x="-1580.3" y="371.3" width="12.5" height="12.5" class="b"/><rect x="-1580.3" y="383.9" width="12.5" height="12.5" class="b"/><rect x="-1592.8" y="346.2" width="12.5" height="12.5" class="b"/><rect x="-1592.8" y="358.8" width="12.5" height="12.5" class="b"/><rect x="-1592.8" y="371.3" width="12.5" height="12.5" class="b"/><rect x="-1592.8" y="383.9" width="12.5" height="12.5" class="b"/><rect x="-1062.5" width="200" height="140" class="h"/><polygon points="-968.8 45.2 -1006.2 45.2 -1006.2 95.1 -993.7 95.1 -993.7 82.6 -981.3 82.6 -981.3 70 -993.7 70 -993.7 57.5 -968.8 57.5 " class="b"/><rect x="-956.3" y="70" width="12.5" height="25.1" class="b"/><rect x="-943.8" y="57.5" width="12.5" height="12.5" class="b"/><rect x="-968.8" y="57.5" width="12.5" height="12.5" class="b"/><rect x="-931.3" y="44.9" width="12.5" height="12.5" class="b"/><rect x="-270.3" y="-239" width="200" height="140" class="b"/><rect x="-195.3" y="-193.9" width="25" height="12.3" class="a"/><rect x="-195.3" y="-156.5" width="25" height="12.5" class="a"/><rect x="-207.8" y="-181.6" width="12.5" height="25.1" class="a"/><rect x="-157.8" y="-193.9" width="25" height="12.3" class="a"/><rect x="-157.8" y="-156.5" width="25" height="12.5" class="a"/><rect x="-170.3" y="-181.6" width="12.5" height="25.1" class="a"/><rect x="-798.1" y="-239" width="200" height="140" class="b"/><rect x="-704.3" y="-181.6" width="12.5" height="37.6" class="c"/><polygon points="-729.3 -194.1 -729.3 -143.9 -716.8 -143.9 -716.8 -181.6 -704.3 -181.6 -704.3 -194.1 " class="c"/><rect x="-679.4" y="-181.6" width="12.5" height="37.6" class="c"/><rect x="-691.9" y="-194.1" width="12.5" height="12.5" class="c"/><rect x="-1312.6" y="-239" width="200" height="140" class="b"/><path d="M-1208.6-139.7h-1v-42.8h12.5v30.3h39c0-3.9 0-30.8 0-32l0-0.1c0.1-0.6 0-1.3-0.1-1.6h-35.5v-12.5h37.3c0.1 0 10.9 0.4 10.9 11.2v36.3c0 10.8-10.8 11.2-10.9 11.2H-1208.6z" class="e"/><path d="M-1230.4-139.7h-47.6c-0.9 0-1.5-0.7-1.5-1.5v-9.7c0-0.9 0.7-1.5 1.5-1.5h46v-8.1h13.5c0.9 0 1.5 0.7 1.5 1.5v7c0 0.1 0 0.2 0 0.3l0 0.3 0 0.1c0 0.1-0.2 3-1.9 5.9C-1220.4-142.9-1223.7-139.7-1230.4-139.7z" class="e"/><path d="M-1232-160.6h-35.8c-0.2 0-11.7-0.6-11.7-11.3l0.1-24.6c0-0.8 0.7-1.5 1.5-1.5h59.5c0.9 0 1.5 0.7 1.5 1.5v9.7c0 0.9-0.7 1.5-1.5 1.5h-48.1v11.8h33.1c0.9 0 1.5 0.7 1.5 1.5V-160.6z" class="e"/><rect x="-534.1" y="-239" width="200" height="140" class="b"/><rect x="-446.6" y="-194" width="12.5" height="12.5" class="f"/><rect x="-434.1" y="-181.4" width="12.5" height="37.4" class="f"/><rect x="-2.3" y="-239" width="200" height="140" class="b"/><polygon points="110.7 -181.5 134.4 -181.5 134.4 -194 85.8 -194 85.8 -181.5 98.3 -181.5 98.3 -143.9 98.4 -143.9 116.1 -143.9 134.4 -143.9 134.4 -156.2 110.7 -156.2 " class="g"/><rect x="134.4" y="-181.5" width="12.5" height="25.2" class="g"/><rect x="146.9" y="-194" width="12.5" height="12.5" class="g"/><rect x="159.4" y="-181.4" width="12.5" height="37.5" class="g"/><rect x="48.4" y="-181.6" width="12.5" height="37.6" class="g"/><polygon points="23.5 -194.1 23.5 -143.9 36 -143.9 36 -181.6 48.4 -181.6 48.4 -194.1 " class="g"/><rect x="73.4" y="-181.6" width="12.5" height="37.6" class="g"/><rect x="60.9" y="-194.1" width="12.5" height="12.5" class="g"/><rect x="-1062.5" y="-239" width="200" height="140" class="b"/><polygon points="-968.8 -193.8 -1006.2 -193.8 -1006.2 -143.9 -993.7 -143.9 -993.7 -156.4 -981.3 -156.4 -981.3 -169 -993.7 -169 -993.7 -181.5 -968.8 -181.5 " class="h"/><rect x="-956.3" y="-169" width="12.5" height="25.1" class="h"/><rect x="-943.8" y="-181.5" width="12.5" height="12.5" class="h"/><rect x="-968.8" y="-181.5" width="12.5" height="12.5" class="h"/><rect x="-931.3" y="-194.1" width="12.5" height="12.5" class="h"/><rect width="200" height="140" class="g"/><path d="M81.4 70.2v12.5H68.9v12.5H56.4V45.2h24.9l0 12.5h-12.4V70.2H81.4z" class="b"/><path d="M143.6 70.1V95.2h-24.7V82.7h-12.5V57.6h12.5V45.2h24.7v12.5h-24.7v25.1h12.3V70.1H143.6z" class="b"/><text transform="matrix(1 0 0 1 401.9258 -43.1235)"><tspan font-family="'Monoeger0556'" font-size="78.5648" letter-spacing="-25">  P</tspan><tspan x="33.8" font-family="'Monoeger0556'" font-size="78.5648">  G</tspan></text><rect x="83.7" y="57.7" width="12.5" height="12.5" class="b"/><rect x="472.8" width="200" height="140" class="g"/><path d="M577.8 70.2v12.5h-12.4v12.5h-12.5V45.2h24.9l0 12.5h-12.4V70.2H577.8z" class="b"/><rect x="580.2" y="57.7" width="12.5" height="12.5" class="b"/><rect x="-837.6" y="227.8" width="12.5" height="12.5"/><rect x="-910.6" y="174.7" width="12.5" height="12.5"/></svg>